  0
SECTION
  2
HEADER
  9
$ACADVER
  1
AC1009
  9
$INSBASE
 10
0.0
 20
0.0
 30
0.0
  9
$EXTMIN
 10
0.0
 20
-4.885144291892515
 30
0.0
  9
$EXTMAX
 10
323.69329364928342
 20
199.9999207702929
 30
0.0
  9
$LIMMIN
 10
0.0
 20
0.0
  9
$LIMMAX
 10
12.0
 20
9.0
  9
$ORTHOMODE
 70
     0
  9
$REGENMODE
 70
     1
  9
$FILLMODE
 70
     1
  9
$QTEXTMODE
 70
     0
  9
$MIRRTEXT
 70
     0
  9
$DRAGMODE
 70
     2
  9
$LTSCALE
 40
1.0
  9
$OSMODE
 70
    37
  9
$ATTMODE
 70
     1
  9
$TEXTSIZE
 40
1.0
  9
$TRACEWID
 40
0.05
  9
$TEXTSTYLE
  7
STANDARD
  9
$CLAYER
  8
0
  9
$CELTYPE
  6
CONTINUOUS
  9
$CECOLOR
 62
   256
  9
$DIMSCALE
 40
1.0
  9
$DIMASZ
 40
0.18
  9
$DIMEXO
 40
0.0625
  9
$DIMDLI
 40
0.38
  9
$DIMRND
 40
0.0
  9
$DIMDLE
 40
0.0
  9
$DIMEXE
 40
0.18
  9
$DIMTP
 40
0.0
  9
$DIMTM
 40
0.0
  9
$DIMTXT
 40
0.18
  9
$DIMCEN
 40
0.09
  9
$DIMTSZ
 40
0.0
  9
$DIMTOL
 70
     0
  9
$DIMLIM
 70
     0
  9
$DIMTIH
 70
     1
  9
$DIMTOH
 70
     1
  9
$DIMSE1
 70
     0
  9
$DIMSE2
 70
     0
  9
$DIMTAD
 70
     0
  9
$DIMZIN
 70
     0
  9
$DIMBLK
  1

  9
$DIMASO
 70
     1
  9
$DIMSHO
 70
     1
  9
$DIMPOST
  1

  9
$DIMAPOST
  1

  9
$DIMALT
 70
     0
  9
$DIMALTD
 70
     2
  9
$DIMALTF
 40
25.399999999999999
  9
$DIMLFAC
 40
1.0
  9
$DIMTOFL
 70
     0
  9
$DIMTVP
 40
0.0
  9
$DIMTIX
 70
     0
  9
$DIMSOXD
 70
     0
  9
$DIMSAH
 70
     0
  9
$DIMBLK1
  1

  9
$DIMBLK2
  1

  9
$DIMSTYLE
  2
STANDARD
  9
$DIMCLRD
 70
     0
  9
$DIMCLRE
 70
     0
  9
$DIMCLRT
 70
     0
  9
$DIMTFAC
 40
1.0
  9
$DIMGAP
 40
0.09
  9
$LUNITS
 70
     2
  9
$LUPREC
 70
     4
  9
$SKETCHINC
 40
0.1
  9
$FILLETRAD
 40
0.0
  9
$AUNITS
 70
     0
  9
$AUPREC
 70
     0
  9
$MENU
  1
.
  9
$ELEVATION
 40
0.0
  9
$PELEVATION
 40
0.0
  9
$THICKNESS
 40
0.0
  9
$LIMCHECK
 70
     0
  9
$BLIPMODE
 70
     0
  9
$CHAMFERA
 40
0.0
  9
$CHAMFERB
 40
0.0
  9
$SKPOLY
 70
     0
  9
$TDCREATE
 40
2458204.62840728
  9
$TDUPDATE
 40
2458204.63117897
  9
$TDINDWG
 40
0.0027719329
  9
$TDUSRTIMER
 40
0.0027719329
  9
$USRTIMER
 70
     1
  9
$ANGBASE
 50
0.0
  9
$ANGDIR
 70
     0
  9
$PDMODE
 70
     0
  9
$PDSIZE
 40
0.0
  9
$PLINEWID
 40
0.0
  9
$COORDS
 70
     1
  9
$SPLFRAME
 70
     0
  9
$SPLINETYPE
 70
     6
  9
$SPLINESEGS
 70
     8
  9
$ATTDIA
 70
     0
  9
$ATTREQ
 70
     1
  9
$HANDLING
 70
     1
  9
$HANDSEED
  5
582
  9
$SURFTAB1
 70
     6
  9
$SURFTAB2
 70
     6
  9
$SURFTYPE
 70
     6
  9
$SURFU
 70
     6
  9
$SURFV
 70
     6
  9
$UCSNAME
  2

  9
$UCSORG
 10
0.0
 20
0.0
 30
0.0
  9
$UCSXDIR
 10
1.0
 20
0.0
 30
0.0
  9
$UCSYDIR
 10
0.0
 20
1.0
 30
0.0
  9
$PUCSNAME
  2

  9
$PUCSORG
 10
0.0
 20
0.0
 30
0.0
  9
$PUCSXDIR
 10
1.0
 20
0.0
 30
0.0
  9
$PUCSYDIR
 10
0.0
 20
1.0
 30
0.0
  9
$USERI1
 70
     0
  9
$USERI2
 70
     0
  9
$USERI3
 70
     0
  9
$USERI4
 70
     0
  9
$USERI5
 70
     0
  9
$USERR1
 40
0.0
  9
$USERR2
 40
0.0
  9
$USERR3
 40
0.0
  9
$USERR4
 40
0.0
  9
$USERR5
 40
0.0
  9
$WORLDVIEW
 70
     1
  9
$SHADEDGE
 70
     3
  9
$SHADEDIF
 70
    70
  9
$TILEMODE
 70
     1
  9
$MAXACTVP
 70
    64
  9
$PLIMCHECK
 70
     0
  9
$PEXTMIN
 10
1.0000000000000000E+020
 20
1.0000000000000000E+020
 30
1.0000000000000000E+020
  9
$PEXTMAX
 10
-1.0000000000000000E+020
 20
-1.0000000000000000E+020
 30
-1.0000000000000000E+020
  9
$PLIMMIN
 10
0.0
 20
0.0
  9
$PLIMMAX
 10
12.0
 20
9.0
  9
$UNITMODE
 70
     0
  9
$VISRETAIN
 70
     1
  9
$PLINEGEN
 70
     0
  9
$PSLTSCALE
 70
     1
  0
ENDSEC
  0
SECTION
  2
TABLES
  0
TABLE
  2
VPORT
 70
     1
  0
VPORT
  2
*ACTIVE
 70
     0
 10
0.0
 20
0.0
 11
1.0
 21
1.0
 12
90.696463835997008
 22
39.512689685992967
 13
0.0
 23
0.0
 14
1.0
 24
1.0
 15
0.0
 25
0.0
 16
-0.0000000000000924
 26
0.0
 36
409.28322800334251
 17
50.0
 27
50.0
 37
0.0
 40
435.85773893130249
 41
2.230948225712623
 42
50.0
 43
0.0
 44
0.0
 50
0.0
 51
0.0
 71
     0
 72
   100
 73
     1
 74
     1
 75
     0
 76
     0
 77
     0
 78
     0
  0
ENDTAB
  0
TABLE
  2
LTYPE
 70
    20
  0
LTYPE
  2
CONTINUOUS
 70
     0
  3
Solid
 72
    65
 73
     0
 40
0.0
  0
LTYPE
  2
CENTER
 70
     0
  3
Center ____ _ ____ _ ____ _ ____ _ ____ _ ____
 72
    65
 73
     4
 40
2.0
 49
1.25
 49
-0.25
 49
0.25
 49
-0.25
  0
LTYPE
  2
CENTERX2
 70
     0
  3
Center (2x) ________  __  ________  __  ________
 72
    65
 73
     4
 40
3.5
 49
2.5
 49
-0.25
 49
0.5
 49
-0.25
  0
LTYPE
  2
CENTER2
 70
     0
  3
Center (.5x) ____ _ ____ _ ____ _ ____ _ ____
 72
    65
 73
     4
 40
1.0
 49
0.625
 49
-0.125
 49
0.125
 49
-0.125
  0
LTYPE
  2
DASHED
 70
     0
  3
Dashed __ __ __ __ __ __ __ __ __ __ __ __ __ _
 72
    65
 73
     2
 40
0.6
 49
0.5
 49
-0.1
  0
LTYPE
  2
DASHEDX2
 70
     0
  3
Dashed (2x) ____  ____  ____  ____  ____  ____
 72
    65
 73
     2
 40
1.1999999999999991
 49
1.0
 49
-0.2
  0
LTYPE
  2
DASHED2
 70
     0
  3
Dashed (.5x) _ _ _ _ _ _ _ _ _ _ _ _ _ _
 72
    65
 73
     2
 40
0.3
 49
0.25
 49
-0.05
  0
LTYPE
  2
PHANTOM
 70
     0
  3
Phantom ______  __  __  ______  __  __  ______
 72
    65
 73
     6
 40
2.5
 49
1.25
 49
-0.25
 49
0.25
 49
-0.25
 49
0.25
 49
-0.25
  0
LTYPE
  2
PHANTOMX2
 70
     0
  3
Phantom (2x)____________    ____    ____    ____________
 72
    65
 73
     6
 40
4.25
 49
2.5
 49
-0.25
 49
0.5
 49
-0.25
 49
0.5
 49
-0.25
  0
LTYPE
  2
PHANTOM2
 70
     0
  3
Phantom (.5x) ___ _ _ ___ _ _ ___ _ _ ___ _ _ ___
 72
    65
 73
     6
 40
1.25
 49
0.625
 49
-0.125
 49
0.125
 49
-0.125
 49
0.125
 49
-0.125
  0
LTYPE
  2
DASHDOT
 70
     0
  3
Dash dot __ . __ . __ . __ . __ . __ . __ . __
 72
    65
 73
     4
 40
1.399999999999999
 49
1.0
 49
-0.2
 49
0.0
 49
-0.2
  0
LTYPE
  2
DASHDOTX2
 70
     0
  3
Dash dot (2x) ____  .  ____  .  ____  .  ____
 72
    65
 73
     4
 40
2.399999999999999
 49
2.0
 49
-0.2
 49
0.0
 49
-0.2
  0
LTYPE
  2
DASHDOT2
 70
     0
  3
Dash dot (.5x) _ . _ . _ . _ . _ . _ . _ . _
 72
    65
 73
     4
 40
0.7
 49
0.5
 49
-0.1
 49
0.0
 49
-0.1
  0
LTYPE
  2
DOT
 70
     0
  3
Dot .  .  .  .  .  .  .  .  .  .  .  .  .  .  .  .
 72
    65
 73
     2
 40
0.2
 49
0.0
 49
-0.2
  0
LTYPE
  2
DOTX2
 70
     0
  3
Dot (2x) .    .    .    .    .    .    .    . 
 72
    65
 73
     2
 40
0.4
 49
0.0
 49
-0.4
  0
LTYPE
  2
DOT2
 70
     0
  3
Dot (.5) . . . . . . . . . . . . . . . . . . . 
 72
    65
 73
     2
 40
0.1
 49
0.0
 49
-0.1
  0
LTYPE
  2
DIVIDE
 70
     0
  3
Divide __ . . __ . . __ . . __ . . __ . . __
 72
    65
 73
     6
 40
1.6000000000000001
 49
1.0
 49
-0.2
 49
0.0
 49
-0.2
 49
0.0
 49
-0.2
  0
LTYPE
  2
DIVIDEX2
 70
     0
  3
Divide (2x) ____  . .  ____  . .  ____  . .  ____
 72
    65
 73
     6
 40
2.6000000000000001
 49
2.0
 49
-0.2
 49
0.0
 49
-0.2
 49
0.0
 49
-0.2
  0
LTYPE
  2
DIVIDE2
 70
     0
  3
Divide(.5x) _ . _ . _ . _ . _ . _ . _ . _
 72
    65
 73
     6
 40
0.8
 49
0.5
 49
-0.1
 49
0.0
 49
-0.1
 49
0.0
 49
-0.1
  0
ENDTAB
  0
TABLE
  2
LAYER
 70
    10
  0
LAYER
  2
0
 70
     0
 62
     7
  6
CONTINUOUS
  0
LAYER
  2
DIMENSIONS
 70
     0
 62
     1
  6
CONTINUOUS
  0
LAYER
  2
TABLEBACKGROUND
 70
     0
 62
     1
  6
CONTINUOUS
  0
LAYER
  2
TABLECONTENT
 70
     0
 62
     1
  6
CONTINUOUS
  0
LAYER
  2
TABLEGRID
 70
     0
 62
     1
  6
CONTINUOUS
  0
LAYER
  2
VIEWPORTS
 70
     0
 62
     7
  6
CONTINUOUS
  0
LAYER
  2
ALIGN
 70
     0
 62
     1
  6
CONTINUOUS
  0
LAYER
  2
COORD
 70
     0
 62
     2
  6
CONTINUOUS
  0
LAYER
  2
MAGNET
 70
     0
 62
     3
  6
CONTINUOUS
  0
LAYER
  2
BONDPADS
 70
     0
 62
     2
  6
CONTINUOUS
  0
ENDTAB
  0
TABLE
  2
STYLE
 70
    13
  0
STYLE
  2
STANDARD
 70
     0
 40
0.0
 41
1.0
 50
0.0
 71
     0
 42
1.0
  3
txt
  4

  0
STYLE
  2
ANNOTATIVE
 70
     0
 40
0.0
 41
1.0
 50
0.0
 71
     0
 42
0.2
  3
txt
  4

  0
STYLE
  2
ARIAL
 70
     0
 40
0.0
 41
1.0
 50
0.0
 71
     0
 42
1.0
  3
txt
  4

  0
STYLE
  2
ARIAL_BOLD
 70
     0
 40
0.0
 41
1.0
 50
0.0
 71
     0
 42
1.0
  3
txt
  4

  0
STYLE
  2
ARIAL_ITALIC
 70
     0
 40
0.0
 41
1.0
 50
0.0
 71
     0
 42
1.0
  3
txt
  4

  0
STYLE
  2
ARIAL_BOLD_ITALIC
 70
     0
 40
0.0
 41
1.0
 50
0.0
 71
     0
 42
1.0
  3
txt
  4

  0
STYLE
  2
ARIAL_BLACK
 70
     0
 40
0.0
 41
1.0
 50
0.0
 71
     0
 42
1.0
  3
txt
  4

  0
STYLE
  2
ISOCPEUR
 70
     0
 40
0.0
 41
1.0
 50
0.0
 71
     0
 42
1.0
  3
txt
  4

  0
STYLE
  2
ISOCPEUR_ITALIC
 70
     0
 40
0.0
 41
1.0
 50
0.0
 71
     0
 42
1.0
  3
txt
  4

  0
STYLE
  2
TIMES
 70
     0
 40
0.0
 41
1.0
 50
0.0
 71
     0
 42
1.0
  3
txt
  4

  0
STYLE
  2
TIMES_BOLD
 70
     0
 40
0.0
 41
1.0
 50
0.0
 71
     0
 42
1.0
  3
txt
  4

  0
STYLE
  2
TIMES_ITALIC
 70
     0
 40
0.0
 41
1.0
 50
0.0
 71
     0
 42
1.0
  3
txt
  4

  0
STYLE
  2
TIMES_BOLD_ITALIC
 70
     0
 40
0.0
 41
1.0
 50
0.0
 71
     0
 42
1.0
  3
txt
  4

  0
ENDTAB
  0
TABLE
  2
VIEW
 70
     0
  0
ENDTAB
  0
TABLE
  2
UCS
 70
     0
  0
ENDTAB
  0
TABLE
  2
APPID
 70
     8
  0
APPID
  2
ACAD
 70
     0
  0
APPID
  2
ACADANNOTATIVE
 70
     0
  0
APPID
  2
DXFWRITE
 70
     0
  0
APPID
  2
ACAECLAYERSTANDARD
 70
     0
  0
APPID
  2
ACCMTRANSPARENCY
 70
     0
  0
APPID
  2
ACAD_NAV_VCDISPLAY
 70
     0
  0
APPID
  2
ACAD_EXEMPT_FROM_CAD_STANDARDS
 70
     0
  0
APPID
  2
ACAD_MLEADERVER
 70
     0
  0
ENDTAB
  0
TABLE
  2
DIMSTYLE
 70
     3
  0
DIMSTYLE
  2
STANDARD
 70
     0
  3

  4

  5

  6

  7

 40
1.0
 41
0.18
 42
0.0625
 43
0.38
 44
0.18
 45
0.0
 46
0.0
 47
0.0
 48
0.0
140
0.18
141
0.09
142
0.0
143
25.399999999999999
144
1.0
145
0.0
146
1.0
147
0.09
 71
     0
 72
     0
 73
     1
 74
     1
 75
     0
 76
     0
 77
     0
 78
     0
170
     0
171
     2
172
     0
173
     0
174
     0
175
     0
176
     0
177
     0
178
     0
  0
DIMSTYLE
  2
ANNOTATIVE
 70
     0
  3

  4

  5

  6

  7

 40
1.0
 41
0.18
 42
0.0625
 43
0.38
 44
0.18
 45
0.0
 46
0.0
 47
0.0
 48
0.0
140
0.18
141
0.09
142
0.0
143
25.399999999999999
144
1.0
145
0.0
146
1.0
147
0.09
 71
     0
 72
     0
 73
     1
 74
     1
 75
     0
 76
     0
 77
     0
 78
     0
170
     0
171
     2
172
     0
173
     0
174
     0
175
     0
176
     0
177
     0
178
     0
  0
ENDTAB
  0
ENDSEC
  0
SECTION
  2
BLOCKS
  0
BLOCK
  8
0
  2
$MODEL_SPACE
 70
     0
 10
0.0
 20
0.0
 30
0.0
  3
$MODEL_SPACE
  1

  0
ENDBLK
  5
6D
  8
0
  0
BLOCK
 67
     1
  8
0
  2
$PAPER_SPACE
 70
     0
 10
0.0
 20
0.0
 30
0.0
  3
$PAPER_SPACE
  1

  0
ENDBLK
  5
69
 67
     1
  8
0
  0
ENDSEC
  0
SECTION
  2
ENTITIES
  0
CIRCLE
  5
28C
  8
COORD
 10
120.00004637055569
 20
122.4998890796398
 30
0.0
 40
0.125
  0
CIRCLE
  5
28D
  8
COORD
 10
110.00004637055569
 20
122.4998890796398
 30
0.0
 40
0.125
  0
CIRCLE
  5
28E
  8
COORD
 10
100.00004637055569
 20
122.4998890796398
 30
0.0
 40
0.125
  0
CIRCLE
  5
28F
  8
COORD
 10
90.000046370555665
 20
122.4998890796398
 30
0.0
 40
0.125
  0
CIRCLE
  5
290
  8
COORD
 10
80.000046370555765
 20
122.4998890796398
 30
0.0
 40
0.125
  0
CIRCLE
  5
291
  8
COORD
 10
115.00004637055559
 20
114.9998890796398
 30
0.0
 40
0.125
  0
CIRCLE
  5
292
  8
COORD
 10
105.00004637055569
 20
114.9998890796398
 30
0.0
 40
0.125
  0
CIRCLE
  5
293
  8
COORD
 10
95.000046370555765
 20
114.9998890796398
 30
0.0
 40
0.125
  0
CIRCLE
  5
294
  8
COORD
 10
85.000046370555765
 20
114.9998890796398
 30
0.0
 40
0.125
  0
CIRCLE
  5
295
  8
COORD
 10
115.00004637055559
 20
104.9998890796398
 30
0.0
 40
0.125
  0
CIRCLE
  5
296
  8
COORD
 10
105.00004637055569
 20
104.9998890796398
 30
0.0
 40
0.125
  0
CIRCLE
  5
297
  8
COORD
 10
95.000046370555765
 20
104.9998890796398
 30
0.0
 40
0.125
  0
CIRCLE
  5
298
  8
COORD
 10
85.000046370555765
 20
104.9998890796398
 30
0.0
 40
0.125
  0
CIRCLE
  5
299
  8
COORD
 10
115.00004637055559
 20
94.999889079639843
 30
0.0
 40
0.125
  0
CIRCLE
  5
29A
  8
COORD
 10
105.00004637055569
 20
94.999889079639843
 30
0.0
 40
0.125
  0
CIRCLE
  5
29B
  8
COORD
 10
95.000046370555765
 20
94.999889079639843
 30
0.0
 40
0.125
  0
CIRCLE
  5
29C
  8
COORD
 10
85.000046370555765
 20
94.999889079639843
 30
0.0
 40
0.125
  0
CIRCLE
  5
29D
  8
COORD
 10
115.00004637055559
 20
84.999889079639843
 30
0.0
 40
0.125
  0
CIRCLE
  5
29E
  8
COORD
 10
105.00004637055569
 20
84.999889079639843
 30
0.0
 40
0.125
  0
CIRCLE
  5
29F
  8
COORD
 10
95.000046370555765
 20
84.999889079639843
 30
0.0
 40
0.125
  0
CIRCLE
  5
2A0
  8
COORD
 10
85.000046370555765
 20
84.999889079639843
 30
0.0
 40
0.125
  0
CIRCLE
  5
2A1
  8
COORD
 10
125.00004637055569
 20
114.9998890796398
 30
0.0
 40
0.125
  0
CIRCLE
  5
2A2
  8
COORD
 10
125.00004637055569
 20
104.9998890796398
 30
0.0
 40
0.125
  0
CIRCLE
  5
2A3
  8
COORD
 10
125.00004637055569
 20
94.999889079639843
 30
0.0
 40
0.125
  0
CIRCLE
  5
2A4
  8
COORD
 10
125.00004637055569
 20
84.999889079639843
 30
0.0
 40
0.125
  0
CIRCLE
  5
2A5
  8
COORD
 10
75.000046370555765
 20
114.9998890796398
 30
0.0
 40
0.125
  0
CIRCLE
  5
2A6
  8
COORD
 10
75.000046370555765
 20
104.9998890796398
 30
0.0
 40
0.125
  0
CIRCLE
  5
2A7
  8
COORD
 10
75.000046370555765
 20
94.999889079639843
 30
0.0
 40
0.125
  0
CIRCLE
  5
2A8
  8
COORD
 10
75.000046370555765
 20
84.999889079639843
 30
0.0
 40
0.125
  0
CIRCLE
  5
2A9
  8
COORD
 10
115.00004637055559
 20
124.9998890796398
 30
0.0
 40
0.125
  0
CIRCLE
  5
2AA
  8
COORD
 10
105.00004637055569
 20
124.9998890796398
 30
0.0
 40
0.125
  0
CIRCLE
  5
2AB
  8
COORD
 10
95.000046370555765
 20
124.9998890796398
 30
0.0
 40
0.125
  0
CIRCLE
  5
2AC
  8
COORD
 10
85.000046370555765
 20
124.9998890796398
 30
0.0
 40
0.125
  0
CIRCLE
  5
2AD
  8
COORD
 10
115.00004637055559
 20
74.999889079639843
 30
0.0
 40
0.125
  0
CIRCLE
  5
2AE
  8
COORD
 10
105.00004637055569
 20
74.999889079639843
 30
0.0
 40
0.125
  0
CIRCLE
  5
2AF
  8
COORD
 10
95.000046370555765
 20
74.999889079639843
 30
0.0
 40
0.125
  0
CIRCLE
  5
2B0
  8
COORD
 10
85.000046370555765
 20
74.999889079639843
 30
0.0
 40
0.125
  0
CIRCLE
  5
2B1
  8
COORD
 10
117.50004637055569
 20
119.9998890796398
 30
0.0
 40
0.125
  0
CIRCLE
  5
2B2
  8
COORD
 10
107.50004637055569
 20
119.9998890796398
 30
0.0
 40
0.125
  0
CIRCLE
  5
2B3
  8
COORD
 10
97.500046370555765
 20
119.9998890796398
 30
0.0
 40
0.125
  0
CIRCLE
  5
2B4
  8
COORD
 10
87.500046370555765
 20
119.9998890796398
 30
0.0
 40
0.125
  0
CIRCLE
  5
2B5
  8
COORD
 10
117.50004637055569
 20
109.9998890796398
 30
0.0
 40
0.125
  0
CIRCLE
  5
2B6
  8
COORD
 10
107.50004637055569
 20
109.9998890796398
 30
0.0
 40
0.125
  0
CIRCLE
  5
2B7
  8
COORD
 10
97.500046370555765
 20
109.9998890796398
 30
0.0
 40
0.125
  0
CIRCLE
  5
2B8
  8
COORD
 10
87.500046370555765
 20
109.9998890796398
 30
0.0
 40
0.125
  0
CIRCLE
  5
2B9
  8
COORD
 10
117.50004637055569
 20
99.999889079639843
 30
0.0
 40
0.125
  0
CIRCLE
  5
2BA
  8
COORD
 10
107.50004637055569
 20
99.999889079639843
 30
0.0
 40
0.125
  0
CIRCLE
  5
2BB
  8
COORD
 10
97.500046370555765
 20
99.999889079639843
 30
0.0
 40
0.125
  0
CIRCLE
  5
2BC
  8
COORD
 10
87.500046370555765
 20
99.999889079639843
 30
0.0
 40
0.125
  0
CIRCLE
  5
2BD
  8
COORD
 10
117.50004637055569
 20
89.999889079640752
 30
0.0
 40
0.125
  0
CIRCLE
  5
2BE
  8
COORD
 10
107.50004637055569
 20
89.999889079640752
 30
0.0
 40
0.125
  0
CIRCLE
  5
2BF
  8
COORD
 10
97.500046370555765
 20
89.999889079640752
 30
0.0
 40
0.125
  0
CIRCLE
  5
2C0
  8
COORD
 10
87.500046370555765
 20
89.999889079640752
 30
0.0
 40
0.125
  0
CIRCLE
  5
2C1
  8
COORD
 10
117.50004637055569
 20
79.999889079639843
 30
0.0
 40
0.125
  0
CIRCLE
  5
2C2
  8
COORD
 10
107.50004637055569
 20
79.999889079639843
 30
0.0
 40
0.125
  0
CIRCLE
  5
2C3
  8
COORD
 10
97.500046370555765
 20
79.999889079639843
 30
0.0
 40
0.125
  0
CIRCLE
  5
2C4
  8
COORD
 10
87.500046370555765
 20
79.999889079639843
 30
0.0
 40
0.125
  0
CIRCLE
  5
2C5
  8
COORD
 10
122.50004637055569
 20
119.9998890796398
 30
0.0
 40
0.125
  0
CIRCLE
  5
2C6
  8
COORD
 10
112.50004637055569
 20
119.9998890796398
 30
0.0
 40
0.125
  0
CIRCLE
  5
2C7
  8
COORD
 10
102.50004637055559
 20
119.9998890796398
 30
0.0
 40
0.125
  0
CIRCLE
  5
2C8
  8
COORD
 10
92.500046370555765
 20
119.9998890796398
 30
0.0
 40
0.125
  0
CIRCLE
  5
2C9
  8
COORD
 10
122.50004637055569
 20
109.9998890796398
 30
0.0
 40
0.125
  0
CIRCLE
  5
2CA
  8
COORD
 10
112.50004637055569
 20
109.9998890796398
 30
0.0
 40
0.125
  0
CIRCLE
  5
2CB
  8
COORD
 10
102.50004637055559
 20
109.9998890796398
 30
0.0
 40
0.125
  0
CIRCLE
  5
2CC
  8
COORD
 10
92.500046370555765
 20
109.9998890796398
 30
0.0
 40
0.125
  0
CIRCLE
  5
2CD
  8
COORD
 10
122.50004637055569
 20
99.999889079639843
 30
0.0
 40
0.125
  0
CIRCLE
  5
2CE
  8
COORD
 10
112.50004637055569
 20
99.999889079639843
 30
0.0
 40
0.125
  0
CIRCLE
  5
2CF
  8
COORD
 10
102.50004637055559
 20
99.999889079639843
 30
0.0
 40
0.125
  0
CIRCLE
  5
2D0
  8
COORD
 10
92.500046370555765
 20
99.999889079639843
 30
0.0
 40
0.125
  0
CIRCLE
  5
2D1
  8
COORD
 10
122.50004637055569
 20
89.999889079640752
 30
0.0
 40
0.125
  0
CIRCLE
  5
2D2
  8
COORD
 10
112.50004637055569
 20
89.999889079640752
 30
0.0
 40
0.125
  0
CIRCLE
  5
2D3
  8
COORD
 10
102.50004637055559
 20
89.999889079640752
 30
0.0
 40
0.125
  0
CIRCLE
  5
2D4
  8
COORD
 10
92.500046370555765
 20
89.999889079640752
 30
0.0
 40
0.125
  0
CIRCLE
  5
2D5
  8
COORD
 10
122.50004637055569
 20
79.999889079639843
 30
0.0
 40
0.125
  0
CIRCLE
  5
2D6
  8
COORD
 10
112.50004637055569
 20
79.999889079639843
 30
0.0
 40
0.125
  0
CIRCLE
  5
2D7
  8
COORD
 10
102.50004637055559
 20
79.999889079639843
 30
0.0
 40
0.125
  0
CIRCLE
  5
2D8
  8
COORD
 10
92.500046370555765
 20
79.999889079639843
 30
0.0
 40
0.125
  0
CIRCLE
  5
2D9
  8
COORD
 10
77.500046370555651
 20
119.9998890796398
 30
0.0
 40
0.125
  0
CIRCLE
  5
2DA
  8
COORD
 10
77.500046370555651
 20
109.9998890796398
 30
0.0
 40
0.125
  0
CIRCLE
  5
2DB
  8
COORD
 10
77.500046370555651
 20
99.999889079639843
 30
0.0
 40
0.125
  0
CIRCLE
  5
2DC
  8
COORD
 10
77.500046370555651
 20
89.999889079640752
 30
0.0
 40
0.125
  0
CIRCLE
  5
2DD
  8
COORD
 10
77.500046370555651
 20
79.999889079639843
 30
0.0
 40
0.125
  0
CIRCLE
  5
2DE
  8
COORD
 10
82.500046370555765
 20
119.9998890796398
 30
0.0
 40
0.125
  0
CIRCLE
  5
2DF
  8
COORD
 10
82.500046370555765
 20
109.9998890796398
 30
0.0
 40
0.125
  0
CIRCLE
  5
2E0
  8
COORD
 10
82.500046370555765
 20
99.999889079639843
 30
0.0
 40
0.125
  0
CIRCLE
  5
2E1
  8
COORD
 10
82.500046370555765
 20
89.999889079640752
 30
0.0
 40
0.125
  0
CIRCLE
  5
2E2
  8
COORD
 10
82.500046370555765
 20
79.999889079639843
 30
0.0
 40
0.125
  0
CIRCLE
  5
2E3
  8
COORD
 10
120.00004637055569
 20
117.4998890796398
 30
0.0
 40
0.125
  0
CIRCLE
  5
2E4
  8
COORD
 10
110.00004637055569
 20
117.4998890796398
 30
0.0
 40
0.125
  0
CIRCLE
  5
2E5
  8
COORD
 10
100.00004637055569
 20
117.4998890796398
 30
0.0
 40
0.125
  0
CIRCLE
  5
2E6
  8
COORD
 10
90.000046370555665
 20
117.4998890796398
 30
0.0
 40
0.125
  0
CIRCLE
  5
2E7
  8
COORD
 10
80.000046370555765
 20
117.4998890796398
 30
0.0
 40
0.125
  0
CIRCLE
  5
2E8
  8
COORD
 10
120.00004637055569
 20
112.4998890796398
 30
0.0
 40
0.125
  0
CIRCLE
  5
2E9
  8
COORD
 10
110.00004637055569
 20
112.4998890796398
 30
0.0
 40
0.125
  0
CIRCLE
  5
2EA
  8
COORD
 10
100.00004637055569
 20
112.4998890796398
 30
0.0
 40
0.125
  0
CIRCLE
  5
2EB
  8
COORD
 10
90.000046370555665
 20
112.4998890796398
 30
0.0
 40
0.125
  0
CIRCLE
  5
2EC
  8
COORD
 10
80.000046370555765
 20
112.4998890796398
 30
0.0
 40
0.125
  0
CIRCLE
  5
2ED
  8
COORD
 10
120.00004637055569
 20
107.4998890796398
 30
0.0
 40
0.125
  0
CIRCLE
  5
2EE
  8
COORD
 10
110.00004637055569
 20
107.4998890796398
 30
0.0
 40
0.125
  0
CIRCLE
  5
2EF
  8
COORD
 10
100.00004637055569
 20
107.4998890796398
 30
0.0
 40
0.125
  0
CIRCLE
  5
2F0
  8
COORD
 10
90.000046370555665
 20
107.4998890796398
 30
0.0
 40
0.125
  0
CIRCLE
  5
2F1
  8
COORD
 10
80.000046370555765
 20
107.4998890796398
 30
0.0
 40
0.125
  0
CIRCLE
  5
2F2
  8
COORD
 10
120.00004637055569
 20
102.4998890796398
 30
0.0
 40
0.125
  0
CIRCLE
  5
2F3
  8
COORD
 10
110.00004637055569
 20
102.4998890796398
 30
0.0
 40
0.125
  0
CIRCLE
  5
2F4
  8
COORD
 10
100.00004637055569
 20
102.4998890796398
 30
0.0
 40
0.125
  0
CIRCLE
  5
2F5
  8
COORD
 10
90.000046370555665
 20
102.4998890796398
 30
0.0
 40
0.125
  0
CIRCLE
  5
2F6
  8
COORD
 10
80.000046370555765
 20
102.4998890796398
 30
0.0
 40
0.125
  0
CIRCLE
  5
2F7
  8
COORD
 10
120.00004637055569
 20
97.499889079639843
 30
0.0
 40
0.125
  0
CIRCLE
  5
2F8
  8
COORD
 10
110.00004637055569
 20
97.499889079639843
 30
0.0
 40
0.125
  0
CIRCLE
  5
2F9
  8
COORD
 10
100.00004637055569
 20
97.499889079639843
 30
0.0
 40
0.125
  0
CIRCLE
  5
2FA
  8
COORD
 10
90.000046370555665
 20
97.499889079639843
 30
0.0
 40
0.125
  0
CIRCLE
  5
2FB
  8
COORD
 10
80.000046370555765
 20
97.499889079639843
 30
0.0
 40
0.125
  0
CIRCLE
  5
2FC
  8
COORD
 10
120.00004637055569
 20
92.499889079639843
 30
0.0
 40
0.125
  0
CIRCLE
  5
2FD
  8
COORD
 10
110.00004637055569
 20
92.499889079639843
 30
0.0
 40
0.125
  0
CIRCLE
  5
2FE
  8
COORD
 10
100.00004637055569
 20
92.499889079639843
 30
0.0
 40
0.125
  0
CIRCLE
  5
2FF
  8
COORD
 10
90.000046370555665
 20
92.499889079639843
 30
0.0
 40
0.125
  0
CIRCLE
  5
300
  8
COORD
 10
80.000046370555765
 20
92.499889079639843
 30
0.0
 40
0.125
  0
CIRCLE
  5
301
  8
COORD
 10
120.00004637055569
 20
87.499889079639843
 30
0.0
 40
0.125
  0
CIRCLE
  5
302
  8
COORD
 10
110.00004637055569
 20
87.499889079639843
 30
0.0
 40
0.125
  0
CIRCLE
  5
303
  8
COORD
 10
100.00004637055569
 20
87.499889079639843
 30
0.0
 40
0.125
  0
CIRCLE
  5
304
  8
COORD
 10
90.000046370555665
 20
87.499889079639843
 30
0.0
 40
0.125
  0
CIRCLE
  5
305
  8
COORD
 10
80.000046370555765
 20
87.499889079639843
 30
0.0
 40
0.125
  0
CIRCLE
  5
306
  8
COORD
 10
120.00004637055569
 20
82.499889079639843
 30
0.0
 40
0.125
  0
CIRCLE
  5
307
  8
COORD
 10
110.00004637055569
 20
82.499889079639843
 30
0.0
 40
0.125
  0
CIRCLE
  5
308
  8
COORD
 10
100.00004637055569
 20
82.499889079639843
 30
0.0
 40
0.125
  0
CIRCLE
  5
309
  8
COORD
 10
90.000046370555665
 20
82.499889079639843
 30
0.0
 40
0.125
  0
CIRCLE
  5
30A
  8
COORD
 10
80.000046370555765
 20
82.499889079639843
 30
0.0
 40
0.125
  0
CIRCLE
  5
30B
  8
COORD
 10
120.00004637055569
 20
77.499889079640752
 30
0.0
 40
0.125
  0
CIRCLE
  5
30C
  8
COORD
 10
110.00004637055569
 20
77.499889079640752
 30
0.0
 40
0.125
  0
CIRCLE
  5
30D
  8
COORD
 10
100.00004637055569
 20
77.499889079640752
 30
0.0
 40
0.125
  0
CIRCLE
  5
30E
  8
COORD
 10
90.000046370555665
 20
77.499889079640752
 30
0.0
 40
0.125
  0
CIRCLE
  5
30F
  8
COORD
 10
80.000046370555765
 20
77.499889079640752
 30
0.0
 40
0.125
  0
CIRCLE
  5
310
  8
COORD
 10
125.00004637055569
 20
124.9998890796398
 30
0.0
 40
0.125
  0
CIRCLE
  5
311
  8
COORD
 10
75.000046370555765
 20
124.9998890796398
 30
0.0
 40
0.125
  0
CIRCLE
  5
312
  8
COORD
 10
125.00004637055569
 20
74.999889079639843
 30
0.0
 40
0.125
  0
CIRCLE
  5
313
  8
COORD
 10
75.000046370555765
 20
74.999889079639843
 30
0.0
 40
0.125
  0
POLYLINE
  5
31B
  8
ALIGN
 66
     1
 10
0.0
 20
0.0
 30
0.0
 70
     1
  0
VERTEX
  5
50F
  8
ALIGN
 10
3.0000000000001128
 20
3.0000000000009091
 30
0.0
  0
VERTEX
  5
510
  8
ALIGN
 10
3.0000000000001128
 20
6.0000000000009086
 30
0.0
  0
VERTEX
  5
511
  8
ALIGN
 10
5.9999999999998863
 20
6.0000000000009086
 30
0.0
  0
VERTEX
  5
512
  8
ALIGN
 10
5.9999999999998863
 20
3.0000000000009091
 30
0.0
  0
SEQEND
  5
513
  8
ALIGN
  0
POLYLINE
  5
31C
  8
ALIGN
 66
     1
 10
0.0
 20
0.0
 30
0.0
 70
     1
  0
VERTEX
  5
514
  8
ALIGN
 10
3.0000000000001128
 20
3.0000000000009091
 30
0.0
  0
VERTEX
  5
515
  8
ALIGN
 10
3.0000000000001128
 20
0.0
 30
0.0
  0
VERTEX
  5
516
  8
ALIGN
 10
0.0
 20
0.0
 30
0.0
  0
VERTEX
  5
517
  8
ALIGN
 10
0.0
 20
3.0000000000009091
 30
0.0
  0
SEQEND
  5
518
  8
ALIGN
  0
POLYLINE
  5
31D
  8
ALIGN
 66
     1
 10
0.0
 20
0.0
 30
0.0
 70
     1
  0
VERTEX
  5
519
  8
ALIGN
 10
196.99994475767039
 20
196.99992077029279
 30
0.0
  0
VERTEX
  5
51A
  8
ALIGN
 10
196.99994475767039
 20
199.9999207702929
 30
0.0
  0
VERTEX
  5
51B
  8
ALIGN
 10
199.99994475767039
 20
199.9999207702929
 30
0.0
  0
VERTEX
  5
51C
  8
ALIGN
 10
199.99994475767039
 20
196.99992077029279
 30
0.0
  0
SEQEND
  5
51D
  8
ALIGN
  0
POLYLINE
  5
31E
  8
ALIGN
 66
     1
 10
0.0
 20
0.0
 30
0.0
 70
     1
  0
VERTEX
  5
51E
  8
ALIGN
 10
196.99994475767039
 20
196.99992077029279
 30
0.0
  0
VERTEX
  5
51F
  8
ALIGN
 10
196.99994475767039
 20
193.99992077029171
 30
0.0
  0
VERTEX
  5
520
  8
ALIGN
 10
193.99994475767039
 20
193.99992077029171
 30
0.0
  0
VERTEX
  5
521
  8
ALIGN
 10
193.99994475767039
 20
196.99992077029279
 30
0.0
  0
SEQEND
  5
522
  8
ALIGN
  0
POLYLINE
  5
31F
  8
ALIGN
 66
     1
 10
0.0
 20
0.0
 30
0.0
 70
     1
  0
VERTEX
  5
523
  8
ALIGN
 10
3.0000000000001128
 20
196.99992077029381
 30
0.0
  0
VERTEX
  5
524
  8
ALIGN
 10
3.0000000000001128
 20
193.99992077029381
 30
0.0
  0
VERTEX
  5
525
  8
ALIGN
 10
5.9999999999998863
 20
193.99992077029381
 30
0.0
  0
VERTEX
  5
526
  8
ALIGN
 10
5.9999999999998863
 20
196.99992077029381
 30
0.0
  0
SEQEND
  5
527
  8
ALIGN
  0
POLYLINE
  5
320
  8
ALIGN
 66
     1
 10
0.0
 20
0.0
 30
0.0
 70
     1
  0
VERTEX
  5
528
  8
ALIGN
 10
3.0000000000001128
 20
196.99992077029381
 30
0.0
  0
VERTEX
  5
529
  8
ALIGN
 10
3.0000000000001128
 20
199.9999207702929
 30
0.0
  0
VERTEX
  5
52A
  8
ALIGN
 10
0.0
 20
199.9999207702929
 30
0.0
  0
VERTEX
  5
52B
  8
ALIGN
 10
0.0
 20
196.99992077029381
 30
0.0
  0
SEQEND
  5
52C
  8
ALIGN
  0
POLYLINE
  5
321
  8
ALIGN
 66
     1
 10
0.0
 20
0.0
 30
0.0
 70
     1
  0
VERTEX
  5
52D
  8
ALIGN
 10
197.0
 20
2.9999207702928739
 30
0.0
  0
VERTEX
  5
52E
  8
ALIGN
 10
197.0
 20
-0.0000792297071257
 30
0.0
  0
VERTEX
  5
52F
  8
ALIGN
 10
200.0
 20
-0.0000792297071257
 30
0.0
  0
VERTEX
  5
530
  8
ALIGN
 10
200.0
 20
2.9999207702928739
 30
0.0
  0
SEQEND
  5
531
  8
ALIGN
  0
POLYLINE
  5
322
  8
ALIGN
 66
     1
 10
0.0
 20
0.0
 30
0.0
 70
     1
  0
VERTEX
  5
532
  8
ALIGN
 10
197.0
 20
2.9999207702928739
 30
0.0
  0
VERTEX
  5
533
  8
ALIGN
 10
197.0
 20
5.9999207702917374
 30
0.0
  0
VERTEX
  5
534
  8
ALIGN
 10
194.00000000000011
 20
5.9999207702917374
 30
0.0
  0
VERTEX
  5
535
  8
ALIGN
 10
194.00000000000011
 20
2.9999207702928739
 30
0.0
  0
SEQEND
  5
536
  8
ALIGN
  0
POLYLINE
  5
325
  8
ALIGN
 66
     1
 10
0.0
 20
0.0
 30
0.0
 70
     1
  0
VERTEX
  5
537
  8
ALIGN
 10
13.0
 20
13.000000000000909
 30
0.0
  0
VERTEX
  5
538
  8
ALIGN
 10
13.0
 20
16.000000000000909
 30
0.0
  0
VERTEX
  5
539
  8
ALIGN
 10
16.00000000000011
 20
16.000000000000909
 30
0.0
  0
VERTEX
  5
53A
  8
ALIGN
 10
16.00000000000011
 20
13.000000000000909
 30
0.0
  0
SEQEND
  5
53B
  8
ALIGN
  0
POLYLINE
  5
326
  8
ALIGN
 66
     1
 10
0.0
 20
0.0
 30
0.0
 70
     1
  0
VERTEX
  5
53C
  8
ALIGN
 10
13.0
 20
13.000000000000909
 30
0.0
  0
VERTEX
  5
53D
  8
ALIGN
 10
13.0
 20
10.0
 30
0.0
  0
VERTEX
  5
53E
  8
ALIGN
 10
9.9999999999998863
 20
10.0
 30
0.0
  0
VERTEX
  5
53F
  8
ALIGN
 10
9.9999999999998863
 20
13.000000000000909
 30
0.0
  0
SEQEND
  5
540
  8
ALIGN
  0
POLYLINE
  5
331
  8
ALIGN
 66
     1
 10
0.0
 20
0.0
 30
0.0
 70
     1
  0
VERTEX
  5
541
  8
ALIGN
 10
187.00000000000011
 20
12.999920770292871
 30
0.0
  0
VERTEX
  5
542
  8
ALIGN
 10
187.00000000000011
 20
9.9999207702928743
 30
0.0
  0
VERTEX
  5
543
  8
ALIGN
 10
190.00000000000011
 20
9.9999207702928743
 30
0.0
  0
VERTEX
  5
544
  8
ALIGN
 10
190.00000000000011
 20
12.999920770292871
 30
0.0
  0
SEQEND
  5
545
  8
ALIGN
  0
POLYLINE
  5
332
  8
ALIGN
 66
     1
 10
0.0
 20
0.0
 30
0.0
 70
     1
  0
VERTEX
  5
546
  8
ALIGN
 10
187.00000000000011
 20
12.999920770292871
 30
0.0
  0
VERTEX
  5
547
  8
ALIGN
 10
187.00000000000011
 20
15.999920770291739
 30
0.0
  0
VERTEX
  5
548
  8
ALIGN
 10
184.0
 20
15.999920770291739
 30
0.0
  0
VERTEX
  5
549
  8
ALIGN
 10
184.0
 20
12.999920770292871
 30
0.0
  0
SEQEND
  5
54A
  8
ALIGN
  0
POLYLINE
  5
333
  8
ALIGN
 66
     1
 10
0.0
 20
0.0
 30
0.0
 70
     1
  0
VERTEX
  5
54B
  8
ALIGN
 10
186.99994475767039
 20
186.99992077029279
 30
0.0
  0
VERTEX
  5
54C
  8
ALIGN
 10
186.99994475767039
 20
189.9999207702929
 30
0.0
  0
VERTEX
  5
54D
  8
ALIGN
 10
189.99994475767039
 20
189.9999207702929
 30
0.0
  0
VERTEX
  5
54E
  8
ALIGN
 10
189.99994475767039
 20
186.99992077029279
 30
0.0
  0
SEQEND
  5
54F
  8
ALIGN
  0
POLYLINE
  5
334
  8
ALIGN
 66
     1
 10
0.0
 20
0.0
 30
0.0
 70
     1
  0
VERTEX
  5
550
  8
ALIGN
 10
186.99994475767039
 20
186.99992077029279
 30
0.0
  0
VERTEX
  5
551
  8
ALIGN
 10
186.99994475767039
 20
183.99992077029171
 30
0.0
  0
VERTEX
  5
552
  8
ALIGN
 10
183.99994475767039
 20
183.99992077029171
 30
0.0
  0
VERTEX
  5
553
  8
ALIGN
 10
183.99994475767039
 20
186.99992077029279
 30
0.0
  0
SEQEND
  5
554
  8
ALIGN
  0
POLYLINE
  5
335
  8
ALIGN
 66
     1
 10
0.0
 20
0.0
 30
0.0
 70
     1
  0
VERTEX
  5
555
  8
ALIGN
 10
13.0
 20
186.99992077029381
 30
0.0
  0
VERTEX
  5
556
  8
ALIGN
 10
13.0
 20
183.99992077029381
 30
0.0
  0
VERTEX
  5
557
  8
ALIGN
 10
16.00000000000011
 20
183.99992077029381
 30
0.0
  0
VERTEX
  5
558
  8
ALIGN
 10
16.00000000000011
 20
186.99992077029381
 30
0.0
  0
SEQEND
  5
559
  8
ALIGN
  0
POLYLINE
  5
336
  8
ALIGN
 66
     1
 10
0.0
 20
0.0
 30
0.0
 70
     1
  0
VERTEX
  5
55A
  8
ALIGN
 10
13.0
 20
186.99992077029381
 30
0.0
  0
VERTEX
  5
55B
  8
ALIGN
 10
13.0
 20
189.9999207702929
 30
0.0
  0
VERTEX
  5
55C
  8
ALIGN
 10
9.9999999999998863
 20
189.9999207702929
 30
0.0
  0
VERTEX
  5
55D
  8
ALIGN
 10
9.9999999999998863
 20
186.99992077029381
 30
0.0
  0
SEQEND
  5
55E
  8
ALIGN
  0
POLYLINE
  5
337
  8
ALIGN
 66
     1
 10
0.0
 20
0.0
 30
0.0
  0
VERTEX
  5
55F
  8
ALIGN
 10
64.000046370555765
 20
72.999889079639843
 30
0.0
  0
VERTEX
  5
560
  8
ALIGN
 10
73.000046370555765
 20
72.999889079639843
 30
0.0
  0
VERTEX
  5
561
  8
ALIGN
 10
73.000046370555765
 20
63.999889079639843
 30
0.0
  0
VERTEX
  5
562
  8
ALIGN
 10
71.000046370555765
 20
63.999889079639843
 30
0.0
  0
VERTEX
  5
563
  8
ALIGN
 10
71.000046370555765
 20
70.999889079638933
 30
0.0
  0
VERTEX
  5
564
  8
ALIGN
 10
64.000046370555765
 20
70.999889079638933
 30
0.0
  0
VERTEX
  5
565
  8
ALIGN
 10
64.000046370555765
 20
72.999889079639843
 30
0.0
  0
SEQEND
  5
566
  8
ALIGN
  0
CIRCLE
  5
338
  8
ALIGN
 10
7.5000000000001128
 20
7.5
 30
0.0
 40
0.125
  0
CIRCLE
  5
339
  8
ALIGN
 10
8.4999999999998863
 20
7.5
 30
0.0
 40
0.125
  0
CIRCLE
  5
33A
  8
ALIGN
 10
7.5000000000001128
 20
6.5000000000009086
 30
0.0
 40
0.125
  0
CIRCLE
  5
33B
  8
ALIGN
 10
6.5000000000002274
 20
7.5
 30
0.0
 40
0.125
  0
CIRCLE
  5
33C
  8
ALIGN
 10
7.5000000000001128
 20
8.5000000000009095
 30
0.0
 40
0.125
  0
CIRCLE
  5
33D
  8
ALIGN
 10
192.5
 20
7.4999207702928743
 30
0.0
 40
0.125
  0
CIRCLE
  5
33E
  8
ALIGN
 10
193.5000000000002
 20
7.4999207702928743
 30
0.0
 40
0.125
  0
CIRCLE
  5
33F
  8
ALIGN
 10
192.5
 20
6.4999207702937829
 30
0.0
 40
0.125
  0
CIRCLE
  5
340
  8
ALIGN
 10
191.5
 20
7.4999207702928743
 30
0.0
 40
0.125
  0
CIRCLE
  5
341
  8
ALIGN
 10
192.5
 20
8.4999207702937838
 30
0.0
 40
0.125
  0
CIRCLE
  5
342
  8
ALIGN
 10
192.5
 20
192.4999207702929
 30
0.0
 40
0.125
  0
CIRCLE
  5
343
  8
ALIGN
 10
193.5000000000002
 20
192.4999207702929
 30
0.0
 40
0.125
  0
CIRCLE
  5
344
  8
ALIGN
 10
192.5
 20
191.49992077029381
 30
0.0
 40
0.125
  0
CIRCLE
  5
345
  8
ALIGN
 10
191.5
 20
192.4999207702929
 30
0.0
 40
0.125
  0
CIRCLE
  5
346
  8
ALIGN
 10
192.5
 20
193.49992077029381
 30
0.0
 40
0.125
  0
CIRCLE
  5
347
  8
ALIGN
 10
7.5000000000001128
 20
192.4999207702929
 30
0.0
 40
0.125
  0
CIRCLE
  5
348
  8
ALIGN
 10
8.4999999999998863
 20
192.4999207702929
 30
0.0
 40
0.125
  0
CIRCLE
  5
349
  8
ALIGN
 10
7.5000000000001128
 20
191.49992077029381
 30
0.0
 40
0.125
  0
CIRCLE
  5
34A
  8
ALIGN
 10
6.5000000000002274
 20
192.4999207702929
 30
0.0
 40
0.125
  0
CIRCLE
  5
34B
  8
ALIGN
 10
7.5000000000001128
 20
193.49992077029381
 30
0.0
 40
0.125
  0
POLYLINE
  5
34C
  8
ALIGN
 66
     1
 10
0.0
 20
0.0
 30
0.0
  0
VERTEX
  5
567
  8
ALIGN
 10
127.00004637055569
 20
63.999889079639843
 30
0.0
  0
VERTEX
  5
568
  8
ALIGN
 10
127.00004637055569
 20
72.999889079639843
 30
0.0
  0
VERTEX
  5
569
  8
ALIGN
 10
136.00004637055559
 20
72.999889079639843
 30
0.0
  0
VERTEX
  5
56A
  8
ALIGN
 10
136.00004637055559
 20
70.999889079639843
 30
0.0
  0
VERTEX
  5
56B
  8
ALIGN
 10
129.0000463705563
 20
70.999889079639843
 30
0.0
  0
VERTEX
  5
56C
  8
ALIGN
 10
129.0000463705563
 20
63.999889079639843
 30
0.0
  0
VERTEX
  5
56D
  8
ALIGN
 10
127.00004637055569
 20
63.999889079639843
 30
0.0
  0
SEQEND
  5
56E
  8
ALIGN
  0
POLYLINE
  5
34D
  8
ALIGN
 66
     1
 10
0.0
 20
0.0
 30
0.0
  0
VERTEX
  5
56F
  8
ALIGN
 10
136.00004637055559
 20
126.9998890796398
 30
0.0
  0
VERTEX
  5
570
  8
ALIGN
 10
127.00004637055559
 20
126.9998890796398
 30
0.0
  0
VERTEX
  5
571
  8
ALIGN
 10
127.00004637055559
 20
135.99988907963979
 30
0.0
  0
VERTEX
  5
572
  8
ALIGN
 10
129.00004637055559
 20
135.99988907963979
 30
0.0
  0
VERTEX
  5
573
  8
ALIGN
 10
129.00004637055559
 20
128.9998890796407
 30
0.0
  0
VERTEX
  5
574
  8
ALIGN
 10
136.00004637055559
 20
128.9998890796407
 30
0.0
  0
VERTEX
  5
575
  8
ALIGN
 10
136.00004637055559
 20
126.9998890796398
 30
0.0
  0
SEQEND
  5
576
  8
ALIGN
  0
POLYLINE
  5
34E
  8
ALIGN
 66
     1
 10
0.0
 20
0.0
 30
0.0
  0
VERTEX
  5
577
  8
ALIGN
 10
73.000046370555992
 20
135.99988907963979
 30
0.0
  0
VERTEX
  5
578
  8
ALIGN
 10
73.000046370555765
 20
126.9998890796398
 30
0.0
  0
VERTEX
  5
579
  8
ALIGN
 10
64.000046370555765
 20
126.9998890796398
 30
0.0
  0
VERTEX
  5
57A
  8
ALIGN
 10
64.000046370555765
 20
128.99988907963979
 30
0.0
  0
VERTEX
  5
57B
  8
ALIGN
 10
71.000046370554855
 20
128.99988907963979
 30
0.0
  0
VERTEX
  5
57C
  8
ALIGN
 10
71.000046370554969
 20
135.99988907963979
 30
0.0
  0
VERTEX
  5
57D
  8
ALIGN
 10
73.000046370555992
 20
135.99988907963979
 30
0.0
  0
SEQEND
  5
57E
  8
ALIGN
  0
VIEWPORT
  5
A4
 67
     1
  8
VIEWPORTS
 10
0.0
 20
0.0
 30
0.0
 40
1.0
 41
1.0
 68
     1
 69
     1
1001
ACAD
1000
MVIEW
1002
{
1070
    16
1010
0.0
1020
0.0
1030
0.0
1010
0.0
1020
0.0
1030
0.0
1040
0.0
1040
1.0
1040
0.0
1040
0.0
1040
50.0
1040
0.0
1040
0.0
1070
     0
1070
   100
1070
     1
1070
     3
1070
     0
1070
     0
1070
     0
1070
     0
1040
0.0
1040
0.0
1040
0.0
1040
0.1
1040
0.1
1040
0.1
1040
0.1
1070
     0
1002
{
1002
}
1002
}
  0
ENDSEC
  0
EOF
