  0
SECTION
  2
HEADER
  9
$ACADVER
  1
AC1009
  9
$INSBASE
 10
0.0
 20
0.0
 30
0.0
  9
$EXTMIN
 10
-1.1399856438156331
 20
-1.1499990799983371
 30
0.0
  9
$EXTMAX
 10
1.1600143561843761
 20
1.1500009200016721
 30
0.0
  9
$LIMMIN
 10
0.0
 20
0.0
  9
$LIMMAX
 10
420.0
 20
297.0
  9
$ORTHOMODE
 70
     0
  9
$REGENMODE
 70
     1
  9
$FILLMODE
 70
     1
  9
$QTEXTMODE
 70
     0
  9
$MIRRTEXT
 70
     0
  9
$DRAGMODE
 70
     2
  9
$LTSCALE
 40
1.0
  9
$OSMODE
 70
    37
  9
$ATTMODE
 70
     1
  9
$TEXTSIZE
 40
5.0
  9
$TRACEWID
 40
1.0
  9
$TEXTSTYLE
  7
STANDARD
  9
$CLAYER
  8
MAGNET
  9
$CELTYPE
  6
BYLAYER
  9
$CECOLOR
 62
   256
  9
$DIMSCALE
 40
1.0
  9
$DIMASZ
 40
2.5
  9
$DIMEXO
 40
0.625
  9
$DIMDLI
 40
3.75
  9
$DIMRND
 40
0.0
  9
$DIMDLE
 40
0.0
  9
$DIMEXE
 40
1.25
  9
$DIMTP
 40
0.0
  9
$DIMTM
 40
0.0
  9
$DIMTXT
 40
2.5
  9
$DIMCEN
 40
2.5
  9
$DIMTSZ
 40
0.0
  9
$DIMTOL
 70
     0
  9
$DIMLIM
 70
     0
  9
$DIMTIH
 70
     0
  9
$DIMTOH
 70
     0
  9
$DIMSE1
 70
     0
  9
$DIMSE2
 70
     0
  9
$DIMTAD
 70
     1
  9
$DIMZIN
 70
     8
  9
$DIMBLK
  1

  9
$DIMASO
 70
     1
  9
$DIMSHO
 70
     1
  9
$DIMPOST
  1

  9
$DIMAPOST
  1

  9
$DIMALT
 70
     0
  9
$DIMALTD
 70
     3
  9
$DIMALTF
 40
0.03937007874016
  9
$DIMLFAC
 40
1.0
  9
$DIMTOFL
 70
     1
  9
$DIMTVP
 40
0.0
  9
$DIMTIX
 70
     0
  9
$DIMSOXD
 70
     0
  9
$DIMSAH
 70
     0
  9
$DIMBLK1
  1

  9
$DIMBLK2
  1

  9
$DIMSTYLE
  2
ISO-25
  9
$DIMCLRD
 70
     0
  9
$DIMCLRE
 70
     0
  9
$DIMCLRT
 70
     0
  9
$DIMTFAC
 40
1.0
  9
$DIMGAP
 40
0.625
  9
$LUNITS
 70
     2
  9
$LUPREC
 70
     4
  9
$SKETCHINC
 40
1.0
  9
$FILLETRAD
 40
0.0
  9
$AUNITS
 70
     0
  9
$AUPREC
 70
     0
  9
$MENU
  1
.
  9
$ELEVATION
 40
0.0
  9
$PELEVATION
 40
0.0
  9
$THICKNESS
 40
0.0
  9
$LIMCHECK
 70
     0
  9
$BLIPMODE
 70
     0
  9
$CHAMFERA
 40
0.0
  9
$CHAMFERB
 40
0.0
  9
$SKPOLY
 70
     0
  9
$TDCREATE
 40
2457490.4822232178
  9
$TDUPDATE
 40
2458155.6038153819
  9
$TDINDWG
 40
54.1989712731
  9
$TDUSRTIMER
 40
54.198965613399999
  9
$USRTIMER
 70
     1
  9
$ANGBASE
 50
0.0
  9
$ANGDIR
 70
     0
  9
$PDMODE
 70
     0
  9
$PDSIZE
 40
0.0
  9
$PLINEWID
 40
0.0
  9
$COORDS
 70
     1
  9
$SPLFRAME
 70
     0
  9
$SPLINETYPE
 70
     6
  9
$SPLINESEGS
 70
     8
  9
$ATTDIA
 70
     0
  9
$ATTREQ
 70
     1
  9
$HANDLING
 70
     1
  9
$HANDSEED
  5
A6A4
  9
$SURFTAB1
 70
     6
  9
$SURFTAB2
 70
     6
  9
$SURFTYPE
 70
     6
  9
$SURFU
 70
     6
  9
$SURFV
 70
     6
  9
$UCSNAME
  2

  9
$UCSORG
 10
-470.0
 20
-470.0
 30
0.0
  9
$UCSXDIR
 10
1.0
 20
0.0
 30
0.0
  9
$UCSYDIR
 10
0.0
 20
1.0
 30
0.0
  9
$PUCSNAME
  2

  9
$PUCSORG
 10
0.0
 20
0.0
 30
0.0
  9
$PUCSXDIR
 10
1.0
 20
0.0
 30
0.0
  9
$PUCSYDIR
 10
0.0
 20
1.0
 30
0.0
  9
$USERI1
 70
     0
  9
$USERI2
 70
     0
  9
$USERI3
 70
     0
  9
$USERI4
 70
     0
  9
$USERI5
 70
     0
  9
$USERR1
 40
0.0
  9
$USERR2
 40
0.0
  9
$USERR3
 40
0.0
  9
$USERR4
 40
0.0
  9
$USERR5
 40
0.0
  9
$WORLDVIEW
 70
     1
  9
$SHADEDGE
 70
     3
  9
$SHADEDIF
 70
    70
  9
$TILEMODE
 70
     1
  9
$MAXACTVP
 70
    64
  9
$PLIMCHECK
 70
     0
  9
$PEXTMIN
 10
25.699999999999999
 20
19.5
 30
0.0
  9
$PEXTMAX
 10
231.30000000000001
 20
175.5
 30
0.0
  9
$PLIMMIN
 10
-20.0
 20
-7.5
  9
$PLIMMAX
 10
277.0
 20
202.5
  9
$UNITMODE
 70
     0
  9
$VISRETAIN
 70
     1
  9
$PLINEGEN
 70
     0
  9
$PSLTSCALE
 70
     1
  0
ENDSEC
  0
SECTION
  2
TABLES
  0
TABLE
  2
VPORT
 70
     1
  0
VPORT
  2
*ACTIVE
 70
     0
 10
0.0
 20
0.0
 11
1.0
 21
1.0
 12
0.0
 22
0.0
 13
0.0
 23
0.0
 14
10.0
 24
10.0
 15
10.0
 25
10.0
 16
-0.0000000000000026
 26
0.0
 36
11.72246607847222
 17
0.0100143561843709
 27
0.0000009200016677
 37
0.0
 40
3.2526911934581331
 41
2.826330532212884
 42
50.0
 43
0.0
 44
0.0
 50
0.0
 51
0.0
 71
     0
 72
  1000
 73
     1
 74
     3
 75
     0
 76
     1
 77
     0
 78
     0
  0
ENDTAB
  0
TABLE
  2
LTYPE
 70
     1
  0
LTYPE
  2
CONTINUOUS
 70
     0
  3
Solid line
 72
    65
 73
     0
 40
0.0
  0
ENDTAB
  0
TABLE
  2
LAYER
 70
     2
  0
LAYER
  2
0
 70
     0
 62
     7
  6
CONTINUOUS
  0
LAYER
  2
MAGNET
 70
     0
 62
     3
  6
CONTINUOUS
  0
ENDTAB
  0
TABLE
  2
STYLE
 70
     2
  0
STYLE
  2
STANDARD
 70
     0
 40
0.0
 41
1.0
 50
0.0
 71
     0
 42
5.0
  3
txt
  4

  0
STYLE
  2
ANNOTATIVE
 70
     0
 40
0.0
 41
1.0
 50
0.0
 71
     0
 42
0.2
  3
txt
  4

  0
ENDTAB
  0
TABLE
  2
VIEW
 70
     0
  0
ENDTAB
  0
TABLE
  2
UCS
 70
     0
  0
ENDTAB
  0
TABLE
  2
APPID
 70
    11
  0
APPID
  2
ACAD
 70
     0
  0
APPID
  2
ACADANNOTATIVE
 70
     0
  0
APPID
  2
ACAD_PSEXT
 70
     0
  0
APPID
  2
ACADANNOPO
 70
     0
  0
APPID
  2
ACAD_DSTYLE_DIMJAG
 70
     0
  0
APPID
  2
ACAD_DSTYLE_DIMTALN
 70
     0
  0
APPID
  2
ACAD_MLEADERVER
 70
     0
  0
APPID
  2
ACAECLAYERSTANDARD
 70
     0
  0
APPID
  2
ACCMTRANSPARENCY
 70
     0
  0
APPID
  2
ACAD_EXEMPT_FROM_CAD_STANDARDS
 70
     0
  0
APPID
  2
ACAD_NAV_VCDISPLAY
 70
     0
  0
ENDTAB
  0
TABLE
  2
DIMSTYLE
 70
     3
  0
DIMSTYLE
  2
STANDARD
 70
     0
  3

  4

  5

  6

  7

 40
1.0
 41
0.18
 42
0.0625
 43
0.38
 44
0.18
 45
0.0
 46
0.0
 47
0.0
 48
0.0
140
0.18
141
0.09
142
0.0
143
25.399999999999999
144
1.0
145
0.0
146
1.0
147
0.09
 71
     0
 72
     0
 73
     1
 74
     1
 75
     0
 76
     0
 77
     0
 78
     0
170
     0
171
     2
172
     0
173
     0
174
     0
175
     0
176
     0
177
     0
178
     0
  0
DIMSTYLE
  2
ANNOTATIVE
 70
     0
  3

  4

  5

  6

  7

 40
1.0
 41
0.18
 42
0.0625
 43
0.38
 44
0.18
 45
0.0
 46
0.0
 47
0.0
 48
0.0
140
0.18
141
0.09
142
0.0
143
25.399999999999999
144
1.0
145
0.0
146
1.0
147
0.09
 71
     0
 72
     0
 73
     1
 74
     1
 75
     0
 76
     0
 77
     0
 78
     0
170
     0
171
     2
172
     0
173
     0
174
     0
175
     0
176
     0
177
     0
178
     0
  0
DIMSTYLE
  2
ISO-25
 70
     0
  3

  4

  5

  6

  7

 40
1.0
 41
2.5
 42
0.625
 43
3.75
 44
1.25
 45
0.0
 46
0.0
 47
0.0
 48
0.0
140
2.5
141
2.5
142
0.0
143
0.03937007874016
144
1.0
145
0.0
146
1.0
147
0.625
 71
     0
 72
     0
 73
     0
 74
     0
 75
     0
 76
     0
 77
     1
 78
     8
170
     0
171
     3
172
     1
173
     0
174
     0
175
     0
176
     0
177
     0
178
     0
  0
ENDTAB
  0
ENDSEC
  0
SECTION
  2
BLOCKS
  0
BLOCK
  8
0
  2
$MODEL_SPACE
 70
     0
 10
0.0
 20
0.0
 30
0.0
  3
$MODEL_SPACE
  1

  0
ENDBLK
  5
A59F
  8
0
  0
BLOCK
 67
     1
  8
0
  2
$PAPER_SPACE
 70
     0
 10
0.0
 20
0.0
 30
0.0
  3
$PAPER_SPACE
  1

  0
ENDBLK
  5
A59B
 67
     1
  8
0
  0
ENDSEC
  0
SECTION
  2
ENTITIES
  0
POLYLINE
  5
9B76
  8
MAGNET
 66
     1
 10
0.0
 20
0.0
 30
0.0
 70
     1
  0
VERTEX
  5
A5CA
  8
MAGNET
 10
0.0093370938279804
 20
1.1000000000000221
 30
0.0
  0
VERTEX
  5
A5CB
  8
MAGNET
 10
0.0100475602741312
 20
1.1000000000000221
 30
0.0
  0
SEQEND
  5
A5CC
  8
MAGNET
  0
POLYLINE
  5
9B77
  8
MAGNET
 66
     1
 10
0.0
 20
0.0
 30
0.0
 70
     1
  0
VERTEX
  5
A5CD
  8
MAGNET
 10
0.8060888148013987
 20
-0.682305159963903
 30
0.0
  0
VERTEX
  5
A5CE
  8
MAGNET
 10
0.0866025403785216
 20
-0.0499999999998409
 30
0.0
  0
VERTEX
  5
A5CF
  8
MAGNET
 10
0.995086734189556
 20
-0.3573294114077612
 30
0.0
  0
VERTEX
  5
A5D0
  8
MAGNET
 10
0.9646574683446259
 20
-0.4351559557050564
 30
0.0
  0
VERTEX
  5
A5D1
  8
MAGNET
 10
0.9098945855166675
 20
-0.5419315459133145
 30
0.0
  0
VERTEX
  5
A5D2
  8
MAGNET
 10
0.8420755708763748
 20
-0.6409294310081464
 30
0.0
  0
VERTEX
  5
A5D3
  8
MAGNET
 10
0.8060888148013987
 20
-0.682305159963903
 30
0.0
  0
SEQEND
  5
A5D4
  8
MAGNET
  0
POLYLINE
  5
9B78
  8
MAGNET
 66
     1
 10
0.0
 20
0.0
 30
0.0
 70
     1
  0
VERTEX
  5
A5D5
  8
MAGNET
 10
-0.9796020869816855
 20
-0.352091139190577
 30
0.0
  0
VERTEX
  5
A5D6
  8
MAGNET
 10
-0.0866025403785216
 20
-0.0499999999998409
 30
0.0
  0
VERTEX
  5
A5D7
  8
MAGNET
 10
-0.7952936144050115
 20
-0.6728180284422936
 30
0.0
  0
VERTEX
  5
A5D8
  8
MAGNET
 10
-0.8737623529115126
 20
-0.5682723299586315
 30
0.0
  0
VERTEX
  5
A5D9
  8
MAGNET
 10
-0.9326996901455116
 20
-0.4637429547585157
 30
0.0
  0
VERTEX
  5
A5DA
  8
MAGNET
 10
-0.9796020869816855
 20
-0.352091139190577
 30
0.0
  0
SEQEND
  5
A5DB
  8
MAGNET
  0
POLYLINE
  5
A2AA
  8
MAGNET
 66
     1
 10
0.0
 20
0.0
 30
0.0
 70
     1
  0
VERTEX
  5
A5DC
  8
MAGNET
 10
-1.039985425394377
 20
-0.0006763423548364
 30
0.0
  0
VERTEX
  5
A5DD
  8
MAGNET
 10
-1.1399854443874911
 20
-0.0006763423548364
 30
0.0
  0
VERTEX
  5
A5DE
  8
MAGNET
 10
-1.1343290862063771
 20
0.1191902735652093
 30
0.0
  0
VERTEX
  5
A5DF
  8
MAGNET
 10
-1.1170347987970211
 20
0.2379375161564781
 30
0.0
  0
VERTEX
  5
A5E0
  8
MAGNET
 10
-1.0845256125534191
 20
0.3534500817488606
 30
0.0
  0
VERTEX
  5
A5E1
  8
MAGNET
 10
-1.040763475779328
 20
0.4651858208164869
 30
0.0
  0
VERTEX
  5
A5E2
  8
MAGNET
 10
-0.9882891184197431
 20
0.5731045023304091
 30
0.0
  0
VERTEX
  5
A5E3
  8
MAGNET
 10
-0.9224203991888655
 20
0.6734105930073611
 30
0.0
  0
VERTEX
  5
A5E4
  8
MAGNET
 10
-0.8476015754441164
 20
0.767230333006296
 30
0.0
  0
VERTEX
  5
A5E5
  8
MAGNET
 10
-0.7628344969671729
 20
0.8521687954744834
 30
0.0
  0
VERTEX
  5
A5E6
  8
MAGNET
 10
-0.6693753766311376
 20
0.9274375992781641
 30
0.0
  0
VERTEX
  5
A5E7
  8
MAGNET
 10
-0.5687182476561931
 20
0.9927686209027227
 30
0.0
  0
VERTEX
  5
A5E8
  8
MAGNET
 10
-0.4621854416336646
 20
1.0480023175105071
 30
0.0
  0
VERTEX
  5
A5E9
  8
MAGNET
 10
-0.350578630491384
 20
1.09209222232613
 30
0.0
  0
VERTEX
  5
A5EA
  8
MAGNET
 10
-0.2345852132463619
 20
1.1228416476187131
 30
0.0
  0
VERTEX
  5
A5EB
  8
MAGNET
 10
-0.1162970283104983
 20
1.143038313298119
 30
0.0
  0
VERTEX
  5
A5EC
  8
MAGNET
 10
0.0100143561844561
 20
1.1500009200016721
 30
0.0
  0
VERTEX
  5
A5ED
  8
MAGNET
 10
0.0100807631417297
 20
1.05000092000165
 30
0.0
  0
VERTEX
  5
A5EE
  8
MAGNET
 10
-0.1097196728707672
 20
1.043083150763606
 30
0.0
  0
VERTEX
  5
A5EF
  8
MAGNET
 10
-0.2281023093737531
 20
1.0234476885946711
 30
0.0
  0
VERTEX
  5
A5F0
  8
MAGNET
 10
-0.34314161806833
 20
0.989301569414124
 30
0.0
  0
VERTEX
  5
A5F1
  8
MAGNET
 10
-0.4537295360828466
 20
0.9427149577194882
 30
0.0
  0
VERTEX
  5
A5F2
  8
MAGNET
 10
-0.5582589101886128
 20
0.8837776185441724
 30
0.0
  0
VERTEX
  5
A5F3
  8
MAGNET
 10
-0.6548645083713041
 20
0.8125922380243649
 30
0.0
  0
VERTEX
  5
A5F4
  8
MAGNET
 10
-0.7432956171329012
 20
0.7314754148418388
 30
0.0
  0
VERTEX
  5
A5F5
  8
MAGNET
 10
-0.8220468585075194
 20
0.6409312710116524
 30
0.0
  0
VERTEX
  5
A5F6
  8
MAGNET
 10
-0.8898658731476417
 20
0.54193338591665
 30
0.0
  0
VERTEX
  5
A5F7
  8
MAGNET
 10
-0.9446287559758276
 20
0.4351577957083351
 30
0.0
  0
VERTEX
  5
A5F8
  8
MAGNET
 10
-0.9883260415889479
 20
0.3233966789009628
 30
0.0
  0
VERTEX
  5
A5F9
  8
MAGNET
 10
-1.017998778024604
 20
0.2071231706868843
 30
0.0
  0
VERTEX
  5
A5FA
  8
MAGNET
 10
-1.0368367895551369
 20
0.0886110222734829
 30
0.0
  0
VERTEX
  5
A5FB
  8
MAGNET
 10
-1.039985425394377
 20
-0.0006763423548364
 30
0.0
  0
SEQEND
  5
A5FC
  8
MAGNET
  0
POLYLINE
  5
A2AB
  8
MAGNET
 66
     1
 10
0.0
 20
0.0
 30
0.0
 70
     1
  0
VERTEX
  5
A5FD
  8
MAGNET
 10
0.0106915990411949
 20
-1.049998861589813
 30
0.0
  0
VERTEX
  5
A5FE
  8
MAGNET
 10
0.0106915971841204
 20
-1.14999888058287
 30
0.0
  0
VERTEX
  5
A5FF
  8
MAGNET
 10
-0.1091750186308786
 20
-1.144342520175712
 30
0.0
  0
VERTEX
  5
A600
  8
MAGNET
 10
-0.2279222609008684
 20
-1.127048230561001
 30
0.0
  0
VERTEX
  5
A601
  8
MAGNET
 10
-0.3434348258896875
 20
-1.094539042172016
 30
0.0
  0
VERTEX
  5
A602
  8
MAGNET
 10
-0.4551705641445666
 20
-1.0507769033231391
 30
0.0
  0
VERTEX
  5
A603
  8
MAGNET
 10
-0.5630892446839653
 20
-0.9983025439593687
 30
0.0
  0
VERTEX
  5
A604
  8
MAGNET
 10
-0.6633953341373629
 20
-0.9324338228656188
 30
0.0
  0
VERTEX
  5
A605
  8
MAGNET
 10
-0.7572150727469876
 20
-0.8576149973786755
 30
0.0
  0
VERTEX
  5
A606
  8
MAGNET
 10
-0.8421535336409531
 20
-0.7728479173241567
 30
0.0
  0
VERTEX
  5
A607
  8
MAGNET
 10
-0.9174223357089772
 20
-0.6793887955905121
 30
0.0
  0
VERTEX
  5
A608
  8
MAGNET
 10
-0.9827533554641831
 20
-0.5787316654022449
 30
0.0
  0
VERTEX
  5
A609
  8
MAGNET
 10
-1.037987050093589
 20
-0.4721988583538633
 30
0.0
  0
VERTEX
  5
A60A
  8
MAGNET
 10
-1.082076952836587
 20
-0.3605920463926964
 30
0.0
  0
VERTEX
  5
A60B
  8
MAGNET
 10
-1.1128263759750321
 20
-0.2445986285766821
 30
0.0
  0
VERTEX
  5
A60C
  8
MAGNET
 10
-1.1330230394576111
 20
-0.126310443265595
 30
0.0
  0
VERTEX
  5
A60D
  8
MAGNET
 10
-1.1399856438156331
 20
0.0000009413586213
 30
0.0
  0
VERTEX
  5
A60E
  8
MAGNET
 10
-1.039985643814304
 20
0.0000673464586498
 30
0.0
  0
VERTEX
  5
A60F
  8
MAGNET
 10
-1.0330678768011681
 20
-0.1197330896823132
 30
0.0
  0
VERTEX
  5
A610
  8
MAGNET
 10
-1.013432416830595
 20
-0.2381157265498928
 30
0.0
  0
VERTEX
  5
A611
  8
MAGNET
 10
-0.9792862997865086
 20
-0.3531550358786148
 30
0.0
  0
VERTEX
  5
A612
  8
MAGNET
 10
-0.9326996901455116
 20
-0.4637429547585157
 30
0.0
  0
VERTEX
  5
A613
  8
MAGNET
 10
-0.8737623529115126
 20
-0.5682723299586315
 30
0.0
  0
VERTEX
  5
A614
  8
MAGNET
 10
-0.8025769741857403
 20
-0.6648779294635006
 30
0.0
  0
VERTEX
  5
A615
  8
MAGNET
 10
-0.7214601526453635
 20
-0.7533090397313913
 30
0.0
  0
VERTEX
  5
A616
  8
MAGNET
 10
-0.6309160102777014
 20
-0.8320602827873813
 30
0.0
  0
VERTEX
  5
A617
  8
MAGNET
 10
-0.531918126442463
 20
-0.8998792992661036
 30
0.0
  0
VERTEX
  5
A618
  8
MAGNET
 10
-0.4251425372509629
 20
-0.9546421840772152
 30
0.0
  0
VERTEX
  5
A619
  8
MAGNET
 10
-0.3133814212550874
 20
-0.9983394717659733
 30
0.0
  0
VERTEX
  5
A61A
  8
MAGNET
 10
-0.1971079135919922
 20
-1.0280122103608831
 30
0.0
  0
VERTEX
  5
A61B
  8
MAGNET
 10
-0.0785957655283483
 20
-1.0468502240923381
 30
0.0
  0
VERTEX
  5
A61C
  8
MAGNET
 10
0.0106915990411949
 20
-1.049998861589813
 30
0.0
  0
SEQEND
  5
A61D
  8
MAGNET
  0
POLYLINE
  5
A2AC
  8
MAGNET
 66
     1
 10
0.0
 20
0.0
 30
0.0
 70
     1
  0
VERTEX
  5
A61E
  8
MAGNET
 10
1.0600141377635151
 20
0.000678182358115
 30
0.0
  0
VERTEX
  5
A61F
  8
MAGNET
 10
1.1600141567565729
 20
0.000678182358115
 30
0.0
  0
VERTEX
  5
A620
  8
MAGNET
 10
1.1543577985752891
 20
-0.1191884335618738
 30
0.0
  0
VERTEX
  5
A621
  8
MAGNET
 10
1.137063511165989
 20
-0.2379356761530857
 30
0.0
  0
VERTEX
  5
A622
  8
MAGNET
 10
1.1045543249223311
 20
-0.3534482417455251
 30
0.0
  0
VERTEX
  5
A623
  8
MAGNET
 10
1.0607921881481841
 20
-0.4651839808129809
 30
0.0
  0
VERTEX
  5
A624
  8
MAGNET
 10
1.008317830788654
 20
-0.5731026623269031
 30
0.0
  0
VERTEX
  5
A625
  8
MAGNET
 10
0.9424491115578348
 20
-0.6734087530038551
 30
0.0
  0
VERTEX
  5
A626
  8
MAGNET
 10
0.8676302878130853
 20
-0.7672284930028468
 30
0.0
  0
VERTEX
  5
A627
  8
MAGNET
 10
0.7828632093360853
 20
-0.8521669554710911
 30
0.0
  0
VERTEX
  5
A628
  8
MAGNET
 10
0.6894040890001068
 20
-0.9274357592748287
 30
0.0
  0
VERTEX
  5
A629
  8
MAGNET
 10
0.5887469600251623
 20
-0.9927667808992167
 30
0.0
  0
VERTEX
  5
A62A
  8
MAGNET
 10
0.4822141540026337
 20
-1.048000477507115
 30
0.0
  0
VERTEX
  5
A62B
  8
MAGNET
 10
0.3706073428603531
 20
-1.0920903823228501
 30
0.0
  0
VERTEX
  5
A62C
  8
MAGNET
 10
0.254613925615331
 20
-1.122839807615263
 30
0.0
  0
VERTEX
  5
A62D
  8
MAGNET
 10
0.1363257406794105
 20
-1.1430364732946141
 30
0.0
  0
VERTEX
  5
A62E
  8
MAGNET
 10
0.0100143561844561
 20
-1.1499990799983371
 30
0.0
  0
VERTEX
  5
A62F
  8
MAGNET
 10
0.0099479492272963
 20
-1.0499990799983721
 30
0.0
  0
VERTEX
  5
A630
  8
MAGNET
 10
0.1297483852397363
 20
-1.0430813107603281
 30
0.0
  0
VERTEX
  5
A631
  8
MAGNET
 10
0.2481310217427222
 20
-1.0234458485911651
 30
0.0
  0
VERTEX
  5
A632
  8
MAGNET
 10
0.3631703304372991
 20
-0.9892997294107884
 30
0.0
  0
VERTEX
  5
A633
  8
MAGNET
 10
0.4737582484519863
 20
-0.9427131177161529
 30
0.0
  0
VERTEX
  5
A634
  8
MAGNET
 10
0.5782876225575822
 20
-0.8837757785406664
 30
0.0
  0
VERTEX
  5
A635
  8
MAGNET
 10
0.6748932207403299
 20
-0.8125903980210296
 30
0.0
  0
VERTEX
  5
A636
  8
MAGNET
 10
0.7633243295018133
 20
-0.7314735748383896
 30
0.0
  0
VERTEX
  5
A637
  8
MAGNET
 10
0.8420755708763748
 20
-0.6409294310081464
 30
0.0
  0
VERTEX
  5
A638
  8
MAGNET
 10
0.9098945855166675
 20
-0.5419315459133145
 30
0.0
  0
VERTEX
  5
A639
  8
MAGNET
 10
0.9646574683446259
 20
-0.4351559557050564
 30
0.0
  0
VERTEX
  5
A63A
  8
MAGNET
 10
1.0083547539579161
 20
-0.3233948388976273
 30
0.0
  0
VERTEX
  5
A63B
  8
MAGNET
 10
1.0380274903935161
 20
-0.207121330683492
 30
0.0
  0
VERTEX
  5
A63C
  8
MAGNET
 10
1.0568655019239941
 20
-0.0886091822700337
 30
0.0
  0
VERTEX
  5
A63D
  8
MAGNET
 10
1.0600141377633461
 20
0.000678182358115
 30
0.0
  0
SEQEND
  5
A63E
  8
MAGNET
  0
POLYLINE
  5
A2AD
  8
MAGNET
 66
     1
 10
0.0
 20
0.0
 30
0.0
 70
     1
  0
VERTEX
  5
A63F
  8
MAGNET
 10
0.0093370938279804
 20
1.0500007015806421
 30
0.0
  0
VERTEX
  5
A640
  8
MAGNET
 10
0.0093370938279804
 20
1.1500007205738141
 30
0.0
  0
VERTEX
  5
A641
  8
MAGNET
 10
0.1292037097480261
 20
1.1443443623924721
 30
0.0
  0
VERTEX
  5
A642
  8
MAGNET
 10
0.2479509523391812
 20
1.1270500749832291
 30
0.0
  0
VERTEX
  5
A643
  8
MAGNET
 10
0.3634635179316774
 20
1.094540888739401
 30
0.0
  0
VERTEX
  5
A644
  8
MAGNET
 10
0.4751992569993037
 20
1.050778751965423
 30
0.0
  0
VERTEX
  5
A645
  8
MAGNET
 10
0.5831179385131691
 20
0.9983043946060091
 30
0.0
  0
VERTEX
  5
A646
  8
MAGNET
 10
0.6834240291900642
 20
0.9324356753749611
 30
0.0
  0
VERTEX
  5
A647
  8
MAGNET
 10
0.7772437691891696
 20
0.8576168516303822
 30
0.0
  0
VERTEX
  5
A648
  8
MAGNET
 10
0.8621822316571866
 20
0.7728497731533253
 30
0.0
  0
VERTEX
  5
A649
  8
MAGNET
 10
0.9374510354608672
 20
0.6793906528175171
 30
0.0
  0
VERTEX
  5
A64A
  8
MAGNET
 10
1.0027820570853681
 20
0.5787335238422884
 30
0.0
  0
VERTEX
  5
A64B
  8
MAGNET
 10
1.0580157536933821
 20
0.4722007178198738
 30
0.0
  0
VERTEX
  5
A64C
  8
MAGNET
 10
1.1021056585088891
 20
0.36059390667765
 30
0.0
  0
VERTEX
  5
A64D
  8
MAGNET
 10
1.132855083801358
 20
0.2446004894325142
 30
0.0
  0
VERTEX
  5
A64E
  8
MAGNET
 10
1.1530517494808801
 20
0.1263123044965368
 30
0.0
  0
VERTEX
  5
A64F
  8
MAGNET
 10
1.1600143561843761
 20
0.0000009200016962
 30
0.0
  0
VERTEX
  5
A650
  8
MAGNET
 10
1.060014356184467
 20
-0.00006548695535
 30
0.0
  0
VERTEX
  5
A651
  8
MAGNET
 10
1.053096586946479
 20
0.1197349490570332
 30
0.0
  0
VERTEX
  5
A652
  8
MAGNET
 10
1.033461124777544
 20
0.238117585560019
 30
0.0
  0
VERTEX
  5
A653
  8
MAGNET
 10
0.9993150055968271
 20
0.3531568942545959
 30
0.0
  0
VERTEX
  5
A654
  8
MAGNET
 10
0.9527283939023616
 20
0.4637448122691127
 30
0.0
  0
VERTEX
  5
A655
  8
MAGNET
 10
0.8937910547268755
 20
0.5682741863748788
 30
0.0
  0
VERTEX
  5
A656
  8
MAGNET
 10
0.8226056742071251
 20
0.6648797845575132
 30
0.0
  0
VERTEX
  5
A657
  8
MAGNET
 10
0.7414888510246556
 20
0.7533108933191102
 30
0.0
  0
VERTEX
  5
A658
  8
MAGNET
 10
0.6509447071942418
 20
0.8320621346935013
 30
0.0
  0
VERTEX
  5
A659
  8
MAGNET
 10
0.5519468220995237
 20
0.8998811493338506
 30
0.0
  0
VERTEX
  5
A65A
  8
MAGNET
 10
0.445171231891095
 20
0.9546440321620366
 30
0.0
  0
VERTEX
  5
A65B
  8
MAGNET
 10
0.3334101150837228
 20
0.9983413177751003
 30
0.0
  0
VERTEX
  5
A65C
  8
MAGNET
 10
0.2171366068695306
 20
1.0280140542106431
 30
0.0
  0
VERTEX
  5
A65D
  8
MAGNET
 10
0.0986244584561291
 20
1.0468520657411771
 30
0.0
  0
VERTEX
  5
A65E
  8
MAGNET
 10
0.0093370938279804
 20
1.0500007015806421
 30
0.0
  0
SEQEND
  5
A65F
  8
MAGNET
  0
POLYLINE
  5
A438
  8
MAGNET
 66
     1
 10
0.0
 20
0.0
 30
0.0
 70
     1
  0
VERTEX
  5
A660
  8
MAGNET
 10
0.1865744091807073
 20
1.0328720459033871
 30
0.0
  0
VERTEX
  5
A661
  8
MAGNET
 10
0.0
 20
0.1000000000001364
 30
0.0
  0
VERTEX
  5
A662
  8
MAGNET
 10
-0.1860834249310983
 20
1.0304171246558551
 30
0.0
  0
VERTEX
  5
A663
  8
MAGNET
 10
-0.1097196728707672
 20
1.043083150763606
 30
0.0
  0
VERTEX
  5
A664
  8
MAGNET
 10
0.0093370938279804
 20
1.0500007015806421
 30
0.0
  0
VERTEX
  5
A665
  8
MAGNET
 10
0.0986244584561291
 20
1.0468520657411771
 30
0.0
  0
VERTEX
  5
A666
  8
MAGNET
 10
0.1865744091807073
 20
1.0328720459033871
 30
0.0
  0
SEQEND
  5
A667
  8
MAGNET
  0
VIEWPORT
  5
17BD
 67
     1
  8
0
 10
107.42106577723629
 20
96.747649856142374
 30
0.0
 40
0.2596745447064885
 41
0.1162094437668202
 68
     1
 69
     1
1001
ACAD
1000
MVIEW
1002
{
1070
    16
1010
0.0
1020
0.0
1030
0.0
1010
0.0
1020
0.0
1030
1.0
1040
0.0
1040
0.1162094437668202
1040
107.42106577723629
1040
96.747649856142374
1040
50.0
1040
0.0
1040
0.0
1070
     0
1070
  1000
1070
     1
1070
     1
1070
     0
1070
     0
1070
     0
1070
     0
1040
0.0
1040
0.0
1040
0.0
1040
10.0
1040
10.0
1040
10.0
1040
10.0
1070
     0
1002
{
1002
}
1002
}
  0
VIEWPORT
  5
17C1
 67
     1
  8
0
 10
128.5
 20
97.5
 30
0.0
 40
205.59999999999999
 41
156.0
 68
     2
 69
     2
1001
ACAD
1000
MVIEW
1002
{
1070
    16
1010
-10.0
1020
-10.0
1030
0.0
1010
0.0
1020
0.0
1030
5967.6020490148403
1040
0.0
1040
3030.0
1040
0.0
1040
0.0
1040
50.0
1040
0.0
1040
0.0
1070
     0
1070
  1000
1070
     1
1070
     3
1070
     0
1070
     1
1070
     0
1070
     0
1040
0.0
1040
0.0
1040
0.0
1040
10.0
1040
10.0
1040
10.0
1040
10.0
1070
     0
1002
{
1002
}
1002
}
  0
ENDSEC
  0
EOF
