  0
SECTION
  2
HEADER
  9
$ACADVER
  1
AC1009
  9
$INSBASE
 10
0.0
 20
0.0
 30
0.0
  9
$EXTMIN
 10
-470.56498564381559
 20
-470.57499907999841
 30
0.0
  9
$EXTMAX
 10
0.5850143561844448
 20
0.575000920001628
 30
0.0
  9
$LIMMIN
 10
0.0
 20
0.0
  9
$LIMMAX
 10
420.0
 20
297.0
  9
$ORTHOMODE
 70
     0
  9
$REGENMODE
 70
     1
  9
$FILLMODE
 70
     1
  9
$QTEXTMODE
 70
     0
  9
$MIRRTEXT
 70
     0
  9
$DRAGMODE
 70
     2
  9
$LTSCALE
 40
1.0
  9
$OSMODE
 70
    37
  9
$ATTMODE
 70
     1
  9
$TEXTSIZE
 40
5.0
  9
$TRACEWID
 40
1.0
  9
$TEXTSTYLE
  7
STANDARD
  9
$CLAYER
  8
MAGNET
  9
$CELTYPE
  6
BYLAYER
  9
$CECOLOR
 62
   256
  9
$DIMSCALE
 40
1.0
  9
$DIMASZ
 40
2.5
  9
$DIMEXO
 40
0.625
  9
$DIMDLI
 40
3.75
  9
$DIMRND
 40
0.0
  9
$DIMDLE
 40
0.0
  9
$DIMEXE
 40
1.25
  9
$DIMTP
 40
0.0
  9
$DIMTM
 40
0.0
  9
$DIMTXT
 40
2.5
  9
$DIMCEN
 40
2.5
  9
$DIMTSZ
 40
0.0
  9
$DIMTOL
 70
     0
  9
$DIMLIM
 70
     0
  9
$DIMTIH
 70
     0
  9
$DIMTOH
 70
     0
  9
$DIMSE1
 70
     0
  9
$DIMSE2
 70
     0
  9
$DIMTAD
 70
     1
  9
$DIMZIN
 70
     8
  9
$DIMBLK
  1

  9
$DIMASO
 70
     1
  9
$DIMSHO
 70
     1
  9
$DIMPOST
  1

  9
$DIMAPOST
  1

  9
$DIMALT
 70
     0
  9
$DIMALTD
 70
     3
  9
$DIMALTF
 40
0.03937007874016
  9
$DIMLFAC
 40
1.0
  9
$DIMTOFL
 70
     1
  9
$DIMTVP
 40
0.0
  9
$DIMTIX
 70
     0
  9
$DIMSOXD
 70
     0
  9
$DIMSAH
 70
     0
  9
$DIMBLK1
  1

  9
$DIMBLK2
  1

  9
$DIMSTYLE
  2
ISO-25
  9
$DIMCLRD
 70
     0
  9
$DIMCLRE
 70
     0
  9
$DIMCLRT
 70
     0
  9
$DIMTFAC
 40
1.0
  9
$DIMGAP
 40
0.625
  9
$LUNITS
 70
     2
  9
$LUPREC
 70
     4
  9
$SKETCHINC
 40
1.0
  9
$FILLETRAD
 40
0.0
  9
$AUNITS
 70
     0
  9
$AUPREC
 70
     0
  9
$MENU
  1
.
  9
$ELEVATION
 40
0.0
  9
$PELEVATION
 40
0.0
  9
$THICKNESS
 40
0.0
  9
$LIMCHECK
 70
     0
  9
$BLIPMODE
 70
     0
  9
$CHAMFERA
 40
0.0
  9
$CHAMFERB
 40
0.0
  9
$SKPOLY
 70
     0
  9
$TDCREATE
 40
2457490.4822232178
  9
$TDUPDATE
 40
2458155.603549445
  9
$TDINDWG
 40
54.197852430600001
  9
$TDUSRTIMER
 40
54.197846909699997
  9
$USRTIMER
 70
     1
  9
$ANGBASE
 50
0.0
  9
$ANGDIR
 70
     0
  9
$PDMODE
 70
     0
  9
$PDSIZE
 40
0.0
  9
$PLINEWID
 40
0.0
  9
$COORDS
 70
     1
  9
$SPLFRAME
 70
     0
  9
$SPLINETYPE
 70
     6
  9
$SPLINESEGS
 70
     8
  9
$ATTDIA
 70
     0
  9
$ATTREQ
 70
     1
  9
$HANDLING
 70
     1
  9
$HANDSEED
  5
A52B
  9
$SURFTAB1
 70
     6
  9
$SURFTAB2
 70
     6
  9
$SURFTYPE
 70
     6
  9
$SURFU
 70
     6
  9
$SURFV
 70
     6
  9
$UCSNAME
  2

  9
$UCSORG
 10
-470.0
 20
-470.0
 30
0.0
  9
$UCSXDIR
 10
1.0
 20
0.0
 30
0.0
  9
$UCSYDIR
 10
0.0
 20
1.0
 30
0.0
  9
$PUCSNAME
  2

  9
$PUCSORG
 10
0.0
 20
0.0
 30
0.0
  9
$PUCSXDIR
 10
1.0
 20
0.0
 30
0.0
  9
$PUCSYDIR
 10
0.0
 20
1.0
 30
0.0
  9
$USERI1
 70
     0
  9
$USERI2
 70
     0
  9
$USERI3
 70
     0
  9
$USERI4
 70
     0
  9
$USERI5
 70
     0
  9
$USERR1
 40
0.0
  9
$USERR2
 40
0.0
  9
$USERR3
 40
0.0
  9
$USERR4
 40
0.0
  9
$USERR5
 40
0.0
  9
$WORLDVIEW
 70
     1
  9
$SHADEDGE
 70
     3
  9
$SHADEDIF
 70
    70
  9
$TILEMODE
 70
     1
  9
$MAXACTVP
 70
    64
  9
$PLIMCHECK
 70
     0
  9
$PEXTMIN
 10
25.699999999999999
 20
19.5
 30
0.0
  9
$PEXTMAX
 10
231.30000000000001
 20
175.5
 30
0.0
  9
$PLIMMIN
 10
-20.0
 20
-7.5
  9
$PLIMMAX
 10
277.0
 20
202.5
  9
$UNITMODE
 70
     0
  9
$VISRETAIN
 70
     1
  9
$PLINEGEN
 70
     0
  9
$PSLTSCALE
 70
     1
  0
ENDSEC
  0
SECTION
  2
TABLES
  0
TABLE
  2
VPORT
 70
     1
  0
VPORT
  2
*ACTIVE
 70
     0
 10
0.0
 20
0.0
 11
1.0
 21
1.0
 12
-470.0774452506891
 22
-470.00708085225313
 13
0.0
 23
0.0
 14
10.0
 24
10.0
 15
10.0
 25
10.0
 16
0.0
 26
0.0
 36
1.0
 17
0.0
 27
0.0
 37
0.0
 40
1.5139633506261381
 41
2.8263305322128849
 42
50.0
 43
0.0
 44
0.0
 50
0.0
 51
0.0
 71
     0
 72
  1000
 73
     1
 74
     3
 75
     0
 76
     1
 77
     0
 78
     0
  0
ENDTAB
  0
TABLE
  2
LTYPE
 70
     1
  0
LTYPE
  2
CONTINUOUS
 70
     0
  3
Solid line
 72
    65
 73
     0
 40
0.0
  0
ENDTAB
  0
TABLE
  2
LAYER
 70
     3
  0
LAYER
  2
0
 70
     0
 62
     7
  6
CONTINUOUS
  0
LAYER
  2
MAGNET
 70
     0
 62
     3
  6
CONTINUOUS
  0
ENDTAB
  0
TABLE
  2
STYLE
 70
     1
  0
STYLE
  2
STANDARD
 70
     0
 40
0.0
 41
1.0
 50
0.0
 71
     0
 42
5.0
  3
txt
  4

  0
ENDTAB
  0
TABLE
  2
VIEW
 70
     0
  0
ENDTAB
  0
TABLE
  2
UCS
 70
     0
  0
ENDTAB
  0
TABLE
  2
APPID
 70
    11
  0
APPID
  2
ACAD
 70
     0
  0
APPID
  2
ACAD_PSEXT
 70
     0
  0
APPID
  2
ACADANNOPO
 70
     0
  0
APPID
  2
ACADANNOTATIVE
 70
     0
  0
APPID
  2
ACAD_DSTYLE_DIMJAG
 70
     0
  0
APPID
  2
ACAD_DSTYLE_DIMTALN
 70
     0
  0
APPID
  2
ACAD_MLEADERVER
 70
     0
  0
APPID
  2
ACAECLAYERSTANDARD
 70
     0
  0
APPID
  2
ACCMTRANSPARENCY
 70
     0
  0
APPID
  2
ACAD_EXEMPT_FROM_CAD_STANDARDS
 70
     0
  0
APPID
  2
ACAD_NAV_VCDISPLAY
 70
     0
  0
ENDTAB
  0
TABLE
  2
DIMSTYLE
 70
     2
  0
DIMSTYLE
  2
STANDARD
 70
     0
  3

  4

  5

  6

  7

 40
1.0
 41
0.18
 42
0.0625
 43
0.38
 44
0.18
 45
0.0
 46
0.0
 47
0.0
 48
0.0
140
0.18
141
0.09
142
0.0
143
25.399999999999999
144
1.0
145
0.0
146
1.0
147
0.09
 71
     0
 72
     0
 73
     1
 74
     1
 75
     0
 76
     0
 77
     0
 78
     0
170
     0
171
     2
172
     0
173
     0
174
     0
175
     0
176
     0
177
     0
178
     0
  0
DIMSTYLE
  2
ISO-25
 70
     0
  3

  4

  5

  6

  7

 40
1.0
 41
2.5
 42
0.625
 43
3.75
 44
1.25
 45
0.0
 46
0.0
 47
0.0
 48
0.0
140
2.5
141
2.5
142
0.0
143
0.03937007874016
144
1.0
145
0.0
146
1.0
147
0.625
 71
     0
 72
     0
 73
     0
 74
     0
 75
     0
 76
     0
 77
     1
 78
     8
170
     0
171
     3
172
     1
173
     0
174
     0
175
     0
176
     0
177
     0
178
     0
  0
ENDTAB
  0
ENDSEC
  0
SECTION
  2
BLOCKS
  0
BLOCK
  8
0
  2
$MODEL_SPACE
 70
     0
 10
0.0
 20
0.0
 30
0.0
  3
$MODEL_SPACE
  1

  0
ENDBLK
  5
21
  8
0
  0
BLOCK
 67
     1
  8
0
  2
$PAPER_SPACE
 70
     0
 10
0.0
 20
0.0
 30
0.0
  3
$PAPER_SPACE
  1

  0
ENDBLK
  5
D9
 67
     1
  8
0
  0
ENDSEC
  0
SECTION
  2
ENTITIES
  0
POLYLINE
  5
9B83
  8
MAGNET
 66
     1
 10
0.0
 20
0.0
 30
0.0
 70
     1
  0
VERTEX
  5
A490
  8
MAGNET
 10
0.4058821284490364
 20
-0.3436464505743402
 30
0.0
  0
VERTEX
  5
A491
  8
MAGNET
 10
0.0433012701892039
 20
-0.0249999999998636
 30
0.0
  0
VERTEX
  5
A492
  8
MAGNET
 10
0.5019654686139461
 20
-0.1801606501203423
 30
0.0
  0
VERTEX
  5
A493
  8
MAGNET
 10
0.4873359122647117
 20
-0.2175775178516233
 30
0.0
  0
VERTEX
  5
A494
  8
MAGNET
 10
0.459954470850505
 20
-0.2709653129557523
 30
0.0
  0
VERTEX
  5
A495
  8
MAGNET
 10
0.4260449635303303
 20
-0.3204642555031683
 30
0.0
  0
VERTEX
  5
A496
  8
MAGNET
 10
0.4058821284490364
 20
-0.3436464505743402
 30
0.0
  0
SEQEND
  5
A497
  8
MAGNET
  0
POLYLINE
  5
A2AF
  8
MAGNET
 66
     1
 10
0.0
 20
0.0
 30
0.0
 70
     1
  0
VERTEX
  5
A498
  8
MAGNET
 10
-0.5149855346048753
 20
-0.0003377111765985
 30
0.0
  0
VERTEX
  5
A499
  8
MAGNET
 10
-0.5649855441014893
 20
-0.0003377111765985
 30
0.0
  0
VERTEX
  5
A49A
  8
MAGNET
 10
-0.5621573650109895
 20
0.059595596783538
 30
0.0
  0
VERTEX
  5
A49B
  8
MAGNET
 10
-0.5535102213062828
 20
0.1189692180789734
 30
0.0
  0
VERTEX
  5
A49C
  8
MAGNET
 10
-0.5372556281843686
 20
0.1767255008753068
 30
0.0
  0
VERTEX
  5
A49D
  8
MAGNET
 10
-0.5153745597975217
 20
0.2325933704090062
 30
0.0
  0
VERTEX
  5
A49E
  8
MAGNET
 10
-0.4891373811177005
 20
0.2865527111659958
 30
0.0
  0
VERTEX
  5
A49F
  8
MAGNET
 10
-0.4562030215021764
 20
0.3367057565045002
 30
0.0
  0
VERTEX
  5
A4A0
  8
MAGNET
 10
-0.4187936096299154
 20
0.3836156265039108
 30
0.0
  0
VERTEX
  5
A4A1
  8
MAGNET
 10
-0.37641007039133
 20
0.4260848577380898
 30
0.0
  0
VERTEX
  5
A4A2
  8
MAGNET
 10
-0.3296805102233407
 20
0.4637192596399018
 30
0.0
  0
VERTEX
  5
A4A3
  8
MAGNET
 10
-0.2793519457358684
 20
0.4963847704519822
 30
0.0
  0
VERTEX
  5
A4A4
  8
MAGNET
 10
-0.2260855427246042
 20
0.5240016187561878
 30
0.0
  0
VERTEX
  5
A4A5
  8
MAGNET
 10
-0.1702821371534924
 20
0.5460465711638564
 30
0.0
  0
VERTEX
  5
A4A6
  8
MAGNET
 10
-0.1122854285308676
 20
0.561421283810205
 30
0.0
  0
VERTEX
  5
A4A7
  8
MAGNET
 10
-0.053141336062879
 20
0.5715196166498801
 30
0.0
  0
VERTEX
  5
A4A8
  8
MAGNET
 10
0.0100143561843993
 20
0.575000920001628
 30
0.0
  0
VERTEX
  5
A4A9
  8
MAGNET
 10
0.0100475596631782
 20
0.5250009200016735
 30
0.0
  0
VERTEX
  5
A4AA
  8
MAGNET
 10
-0.0498526583431271
 20
0.5215420353825948
 30
0.0
  0
VERTEX
  5
A4AB
  8
MAGNET
 10
-0.1090439765945916
 20
0.5117243042981841
 30
0.0
  0
VERTEX
  5
A4AC
  8
MAGNET
 10
-0.1665636309419938
 20
0.494651244707768
 30
0.0
  0
VERTEX
  5
A4AD
  8
MAGNET
 10
-0.2218575899491952
 20
0.4713579388606491
 30
0.0
  0
VERTEX
  5
A4AE
  8
MAGNET
 10
-0.2741222770021636
 20
0.4418892692728491
 30
0.0
  0
VERTEX
  5
A4AF
  8
MAGNET
 10
-0.3224250760935092
 20
0.406296579012917
 30
0.0
  0
VERTEX
  5
A4B0
  8
MAGNET
 10
-0.3666406304740803
 20
0.365738167421739
 30
0.0
  0
VERTEX
  5
A4B1
  8
MAGNET
 10
-0.4060162511614749
 20
0.3204660955065037
 30
0.0
  0
VERTEX
  5
A4B2
  8
MAGNET
 10
-0.4399257584816496
 20
0.2709671529593152
 30
0.0
  0
VERTEX
  5
A4B3
  8
MAGNET
 10
-0.4673071998956289
 20
0.2175793578548451
 30
0.0
  0
VERTEX
  5
A4B4
  8
MAGNET
 10
-0.4891558427021892
 20
0.1616987994513011
 30
0.0
  0
VERTEX
  5
A4B5
  8
MAGNET
 10
-0.5039922109200461
 20
0.1035620453442902
 30
0.0
  0
VERTEX
  5
A4B6
  8
MAGNET
 10
-0.5134112166851992
 20
0.0443059711374758
 30
0.0
  0
VERTEX
  5
A4B7
  8
MAGNET
 10
-0.5149855346048753
 20
-0.0003377111765985
 30
0.0
  0
SEQEND
  5
A4B8
  8
MAGNET
  0
POLYLINE
  5
A2B0
  8
MAGNET
 66
     1
 10
0.0
 20
0.0
 30
0.0
 70
     1
  0
VERTEX
  5
A4B9
  8
MAGNET
 10
0.0103529776128539
 20
-0.5249989707941154
 30
0.0
  0
VERTEX
  5
A4BA
  8
MAGNET
 10
0.010352976684203
 20
-0.5749989802906727
 30
0.0
  0
VERTEX
  5
A4BB
  8
MAGNET
 10
-0.049580331223126
 20
-0.5721708000868944
 30
0.0
  0
VERTEX
  5
A4BC
  8
MAGNET
 10
-0.1089539523580925
 20
-0.563523655279596
 30
0.0
  0
VERTEX
  5
A4BD
  8
MAGNET
 10
-0.1667102348525873
 20
-0.5472690610852738
 30
0.0
  0
VERTEX
  5
A4BE
  8
MAGNET
 10
-0.2225781039800836
 20
-0.5253879916606934
 30
0.0
  0
VERTEX
  5
A4BF
  8
MAGNET
 10
-0.2765374442498114
 20
-0.4991508119788364
 30
0.0
  0
VERTEX
  5
A4C0
  8
MAGNET
 10
-0.3266904889765101
 20
-0.4662164514320466
 30
0.0
  0
VERTEX
  5
A4C1
  8
MAGNET
 10
-0.373600358281351
 20
-0.4288070386884897
 30
0.0
  0
VERTEX
  5
A4C2
  8
MAGNET
 10
-0.4160695887281918
 20
-0.386423498661145
 30
0.0
  0
VERTEX
  5
A4C3
  8
MAGNET
 10
-0.4537039897623459
 20
-0.3396939377943227
 30
0.0
  0
VERTEX
  5
A4C4
  8
MAGNET
 10
-0.4863694996398067
 20
-0.2893653727003311
 30
0.0
  0
VERTEX
  5
A4C5
  8
MAGNET
 10
-0.5139863469546527
 20
-0.2360989691761119
 30
0.0
  0
VERTEX
  5
A4C6
  8
MAGNET
 10
-0.5360312983261224
 20
-0.1802955631956706
 30
0.0
  0
VERTEX
  5
A4C7
  8
MAGNET
 10
-0.5514060098953451
 20
-0.1222988542873509
 30
0.0
  0
VERTEX
  5
A4C8
  8
MAGNET
 10
-0.5615043416365211
 20
-0.0631547616320063
 30
0.0
  0
VERTEX
  5
A4C9
  8
MAGNET
 10
-0.5649856438155894
 20
0.0000009306798461
 30
0.0
  0
VERTEX
  5
A4CA
  8
MAGNET
 10
-0.5149856438150096
 20
0.0000341332301446
 30
0.0
  0
VERTEX
  5
A4CB
  8
MAGNET
 10
-0.5115267603081293
 20
-0.059866084840337
 30
0.0
  0
VERTEX
  5
A4CC
  8
MAGNET
 10
-0.5017090303231271
 20
-0.1190574032741551
 30
0.0
  0
VERTEX
  5
A4CD
  8
MAGNET
 10
-0.4846359718009694
 20
-0.1765770579385162
 30
0.0
  0
VERTEX
  5
A4CE
  8
MAGNET
 10
-0.4613426669806131
 20
-0.2318710173782961
 30
0.0
  0
VERTEX
  5
A4CF
  8
MAGNET
 10
-0.4318739983634714
 20
-0.2841357049783823
 30
0.0
  0
VERTEX
  5
A4D0
  8
MAGNET
 10
-0.3962813090006989
 20
-0.3324385047308169
 30
0.0
  0
VERTEX
  5
A4D1
  8
MAGNET
 10
-0.3557228982305105
 20
-0.3766540598650181
 30
0.0
  0
VERTEX
  5
A4D2
  8
MAGNET
 10
-0.3104508270465089
 20
-0.4160296813928426
 30
0.0
  0
VERTEX
  5
A4D3
  8
MAGNET
 10
-0.2609518851288612
 20
-0.4499391896321754
 30
0.0
  0
VERTEX
  5
A4D4
  8
MAGNET
 10
-0.2075640905333103
 20
-0.4773206320377881
 30
0.0
  0
VERTEX
  5
A4D5
  8
MAGNET
 10
-0.1516835325354009
 20
-0.4991692758821955
 30
0.0
  0
VERTEX
  5
A4D6
  8
MAGNET
 10
-0.0935467787036828
 20
-0.5140056451796227
 30
0.0
  0
VERTEX
  5
A4D7
  8
MAGNET
 10
-0.0342907046720029
 20
-0.5234246520452645
 30
0.0
  0
VERTEX
  5
A4D8
  8
MAGNET
 10
0.0103529776128539
 20
-0.5249989707941154
 30
0.0
  0
SEQEND
  5
A4D9
  8
MAGNET
  0
POLYLINE
  5
A2B1
  8
MAGNET
 66
     1
 10
0.0
 20
0.0
 30
0.0
 70
     1
  0
VERTEX
  5
A4DA
  8
MAGNET
 10
0.5350142469739012
 20
0.000339551179934
 30
0.0
  0
VERTEX
  5
A4DB
  8
MAGNET
 10
0.5850142564703447
 20
0.000339551179934
 30
0.0
  0
VERTEX
  5
A4DC
  8
MAGNET
 10
0.5821860773798449
 20
-0.0595937567800888
 30
0.0
  0
VERTEX
  5
A4DD
  8
MAGNET
 10
0.5735389336751382
 20
-0.1189673780756379
 30
0.0
  0
VERTEX
  5
A4DE
  8
MAGNET
 10
0.5572843405533378
 20
-0.1767236608719145
 30
0.0
  0
VERTEX
  5
A4DF
  8
MAGNET
 10
0.5354032721663771
 20
-0.2325915304056707
 30
0.0
  0
VERTEX
  5
A4E0
  8
MAGNET
 10
0.5091660934866127
 20
-0.286550871162774
 30
0.0
  0
VERTEX
  5
A4E1
  8
MAGNET
 10
0.4762317338711455
 20
-0.3367039165011647
 30
0.0
  0
VERTEX
  5
A4E2
  8
MAGNET
 10
0.4388223219988845
 20
-0.383613786500689
 30
0.0
  0
VERTEX
  5
A4E3
  8
MAGNET
 10
0.3964387827602991
 20
-0.4260830177345838
 30
0.0
  0
VERTEX
  5
A4E4
  8
MAGNET
 10
0.3497092225923666
 20
-0.4637174196366232
 30
0.0
  0
VERTEX
  5
A4E5
  8
MAGNET
 10
0.2993806581048375
 20
-0.4963829304488172
 30
0.0
  0
VERTEX
  5
A4E6
  8
MAGNET
 10
0.2461142550935165
 20
-0.5239997787526818
 30
0.0
  0
VERTEX
  5
A4E7
  8
MAGNET
 10
0.1903108495224046
 20
-0.5460447311605208
 30
0.0
  0
VERTEX
  5
A4E8
  8
MAGNET
 10
0.1323141408998367
 20
-0.5614194438068126
 30
0.0
  0
VERTEX
  5
A4E9
  8
MAGNET
 10
0.0731700484320186
 20
-0.5715177766464877
 30
0.0
  0
VERTEX
  5
A4EA
  8
MAGNET
 10
0.0100143561843993
 20
-0.5749990799984062
 30
0.0
  0
VERTEX
  5
A4EB
  8
MAGNET
 10
0.0099811527058478
 20
-0.524999079998338
 30
0.0
  0
VERTEX
  5
A4EC
  8
MAGNET
 10
0.0698813707121531
 20
-0.5215401953792025
 30
0.0
  0
VERTEX
  5
A4ED
  8
MAGNET
 10
0.129072688963447
 20
-0.5117224642947919
 30
0.0
  0
VERTEX
  5
A4EE
  8
MAGNET
 10
0.1865923433108492
 20
-0.4946494047046031
 30
0.0
  0
VERTEX
  5
A4EF
  8
MAGNET
 10
0.2418863023183349
 20
-0.4713560988571999
 30
0.0
  0
VERTEX
  5
A4F0
  8
MAGNET
 10
0.2941509893711327
 20
-0.4418874292696274
 30
0.0
  0
VERTEX
  5
A4F1
  8
MAGNET
 10
0.3424537884625352
 20
-0.4062947390096952
 30
0.0
  0
VERTEX
  5
A4F2
  8
MAGNET
 10
0.3866693428431631
 20
-0.3657363274182899
 30
0.0
  0
VERTEX
  5
A4F3
  8
MAGNET
 10
0.4260449635303303
 20
-0.3204642555031683
 30
0.0
  0
VERTEX
  5
A4F4
  8
MAGNET
 10
0.459954470850505
 20
-0.2709653129557523
 30
0.0
  0
VERTEX
  5
A4F5
  8
MAGNET
 10
0.4873359122647117
 20
-0.2175775178516233
 30
0.0
  0
VERTEX
  5
A4F6
  8
MAGNET
 10
0.5091845550713288
 20
-0.1616969594480224
 30
0.0
  0
VERTEX
  5
A4F7
  8
MAGNET
 10
0.5240209232890152
 20
-0.1035602053408979
 30
0.0
  0
VERTEX
  5
A4F8
  8
MAGNET
 10
0.5334399290543388
 20
-0.0443041311340835
 30
0.0
  0
VERTEX
  5
A4F9
  8
MAGNET
 10
0.5350142469739012
 20
0.000339551179934
 30
0.0
  0
SEQEND
  5
A4FA
  8
MAGNET
  0
POLYLINE
  5
A2B2
  8
MAGNET
 66
     1
 10
0.0
 20
0.0
 30
0.0
 70
     1
  0
VERTEX
  5
A4FB
  8
MAGNET
 10
0.0096757250061614
 20
0.5250008107910844
 30
0.0
  0
VERTEX
  5
A4FC
  8
MAGNET
 10
0.0096757250061614
 20
0.5750008202877553
 30
0.0
  0
VERTEX
  5
A4FD
  8
MAGNET
 10
0.0696090329661843
 20
0.5721726411969712
 30
0.0
  0
VERTEX
  5
A4FE
  8
MAGNET
 10
0.1289826542618471
 20
0.5635254974923214
 30
0.0
  0
VERTEX
  5
A4FF
  8
MAGNET
 10
0.1867389370581236
 20
0.5472709043706346
 30
0.0
  0
VERTEX
  5
A500
  8
MAGNET
 10
0.242606806591823
 20
0.5253898359835035
 30
0.0
  0
VERTEX
  5
A501
  8
MAGNET
 10
0.2965661473488126
 20
0.4991526573038528
 30
0.0
  0
VERTEX
  5
A502
  8
MAGNET
 10
0.3467191926872033
 20
0.4662182976882719
 30
0.0
  0
VERTEX
  5
A503
  8
MAGNET
 10
0.3936290626866707
 20
0.428808885815954
 30
0.0
  0
VERTEX
  5
A504
  8
MAGNET
 10
0.4360982939209066
 20
0.3864253465775391
 30
0.0
  0
VERTEX
  5
A505
  8
MAGNET
 10
0.4737326958226618
 20
0.3396957864095498
 30
0.0
  0
VERTEX
  5
A506
  8
MAGNET
 10
0.5063982066349128
 20
0.2893672219220207
 30
0.0
  0
VERTEX
  5
A507
  8
MAGNET
 10
0.5340150549389479
 20
0.2361008189106997
 30
0.0
  0
VERTEX
  5
A508
  8
MAGNET
 10
0.5560600073467299
 20
0.1802974133395878
 30
0.0
  0
VERTEX
  5
A509
  8
MAGNET
 10
0.5714347199929648
 20
0.1223007047170199
 30
0.0
  0
VERTEX
  5
A50A
  8
MAGNET
 10
0.5815330528326399
 20
0.0631566122492018
 30
0.0
  0
VERTEX
  5
A50B
  8
MAGNET
 10
0.5850143561844448
 20
0.0000009200016962
 30
0.0
  0
VERTEX
  5
A50C
  8
MAGNET
 10
0.5350143561843767
 20
-0.0000322834768554
 30
0.0
  0
VERTEX
  5
A50D
  8
MAGNET
 10
0.5315554715654685
 20
0.0598679345293363
 30
0.0
  0
VERTEX
  5
A50E
  8
MAGNET
 10
0.5217377404810577
 20
0.1190592527808576
 30
0.0
  0
VERTEX
  5
A50F
  8
MAGNET
 10
0.5046646808906417
 20
0.1765789071279755
 30
0.0
  0
VERTEX
  5
A510
  8
MAGNET
 10
0.4813713750434659
 20
0.2318728661354044
 30
0.0
  0
VERTEX
  5
A511
  8
MAGNET
 10
0.4519027054557228
 20
0.2841375531881454
 30
0.0
  0
VERTEX
  5
A512
  8
MAGNET
 10
0.4163100151956769
 20
0.3324403522796615
 30
0.0
  0
VERTEX
  5
A513
  8
MAGNET
 10
0.3757516036046695
 20
0.3766559066604032
 30
0.0
  0
VERTEX
  5
A514
  8
MAGNET
 10
0.3304795316893774
 20
0.4160315273477409
 30
0.0
  0
VERTEX
  5
A515
  8
MAGNET
 10
0.280980589142132
 20
0.4499410346676882
 30
0.0
  0
VERTEX
  5
A516
  8
MAGNET
 10
0.2275927940378324
 20
0.477322476081838
 30
0.0
  0
VERTEX
  5
A517
  8
MAGNET
 10
0.1717122356341747
 20
0.4991711188883983
 30
0.0
  0
VERTEX
  5
A518
  8
MAGNET
 10
0.1135754815271071
 20
0.5140074871061984
 30
0.0
  0
VERTEX
  5
A519
  8
MAGNET
 10
0.0543194073204063
 20
0.5234264928714653
 30
0.0
  0
VERTEX
  5
A51A
  8
MAGNET
 10
0.0096757250061614
 20
0.5250008107910844
 30
0.0
  0
SEQEND
  5
A51B
  8
MAGNET
  0
POLYLINE
  5
A436
  8
MAGNET
 66
     1
 10
0.0
 20
0.0
 30
0.0
 70
     1
  0
VERTEX
  5
A51C
  8
MAGNET
 10
0.0934415715951787
 20
0.5172078579756203
 30
0.0
  0
VERTEX
  5
A51D
  8
MAGNET
 10
0.0
 20
0.0500000000001251
 30
0.0
  0
VERTEX
  5
A51E
  8
MAGNET
 10
-0.0928810321978517
 20
0.5144051609898384
 30
0.0
  0
VERTEX
  5
A51F
  8
MAGNET
 10
-0.0498526583431271
 20
0.5215420353825948
 30
0.0
  0
VERTEX
  5
A520
  8
MAGNET
 10
0.0100475596631782
 20
0.5250009200016735
 30
0.0
  0
VERTEX
  5
A521
  8
MAGNET
 10
0.0543194073204063
 20
0.5234264928714653
 30
0.0
  0
VERTEX
  5
A522
  8
MAGNET
 10
0.0934415715951787
 20
0.5172078579756203
 30
0.0
  0
SEQEND
  5
A523
  8
MAGNET
  0
POLYLINE
  5
A437
  8
MAGNET
 66
     1
 10
0.0
 20
0.0
 30
0.0
 70
     1
  0
VERTEX
  5
A524
  8
MAGNET
 10
-0.4852506399705021
 20
-0.1745062221361309
 30
0.0
  0
VERTEX
  5
A525
  8
MAGNET
 10
-0.0433012701892039
 20
-0.0249999999998636
 30
0.0
  0
VERTEX
  5
A526
  8
MAGNET
 10
-0.3948742634566429
 20
-0.333972423310172
 30
0.0
  0
VERTEX
  5
A527
  8
MAGNET
 10
-0.4318739983634714
 20
-0.2841357049783823
 30
0.0
  0
VERTEX
  5
A528
  8
MAGNET
 10
-0.4613426669806131
 20
-0.2318710173782961
 30
0.0
  0
VERTEX
  5
A529
  8
MAGNET
 10
-0.4852506399705021
 20
-0.1745062221361309
 30
0.0
  0
SEQEND
  5
A52A
  8
MAGNET
  0
VIEWPORT
  5
17BD
 67
     1
  8
0
 10
107.42106577723629
 20
96.747649856142374
 30
0.0
 40
0.2596745447064885
 41
0.1162094437668202
 68
     1
 69
     1
1001
ACAD
1000
MVIEW
1002
{
1070
    16
1010
0.0
1020
0.0
1030
0.0
1010
0.0
1020
0.0
1030
1.0
1040
0.0
1040
0.1162094437668202
1040
107.42106577723629
1040
96.747649856142374
1040
50.0
1040
0.0
1040
0.0
1070
     0
1070
  1000
1070
     1
1070
     1
1070
     0
1070
     0
1070
     0
1070
     0
1040
0.0
1040
0.0
1040
0.0
1040
10.0
1040
10.0
1040
10.0
1040
10.0
1070
     0
1002
{
1002
}
1002
}
  0
VIEWPORT
  5
17C1
 67
     1
  8
0
 10
128.5
 20
97.5
 30
0.0
 40
205.59999999999999
 41
156.0
 68
     2
 69
     2
1001
ACAD
1000
MVIEW
1002
{
1070
    16
1010
-10.0
1020
-10.0
1030
0.0
1010
0.0
1020
0.0
1030
5967.6020490148394
1040
0.0
1040
3030.0
1040
0.0
1040
0.0
1040
50.0
1040
0.0
1040
0.0
1070
     0
1070
  1000
1070
     1
1070
     3
1070
     0
1070
     1
1070
     0
1070
     0
1040
0.0
1040
0.0
1040
0.0
1040
10.0
1040
10.0
1040
10.0
1040
10.0
1070
     0
1002
{
1002
}
1002
}
  0
ENDSEC
  0
EOF
