  0
SECTION
  2
HEADER
  9
$ACADVER
  1
AC1009
  9
$INSBASE
 10
0.0
 20
0.0
 30
0.0
  9
$EXTMIN
 10
-470.99973992249852
 20
-470.57780053585509
 30
0.0
  9
$EXTMAX
 10
1.0002600775015931
 20
1.154200207437668
 30
0.0
  9
$LIMMIN
 10
0.0
 20
0.0
  9
$LIMMAX
 10
420.0
 20
297.0
  9
$ORTHOMODE
 70
     0
  9
$REGENMODE
 70
     1
  9
$FILLMODE
 70
     1
  9
$QTEXTMODE
 70
     0
  9
$MIRRTEXT
 70
     0
  9
$DRAGMODE
 70
     2
  9
$LTSCALE
 40
1.0
  9
$OSMODE
 70
    37
  9
$ATTMODE
 70
     1
  9
$TEXTSIZE
 40
5.0
  9
$TRACEWID
 40
1.0
  9
$TEXTSTYLE
  7
STANDARD
  9
$CLAYER
  8
MAGNET
  9
$CELTYPE
  6
BYLAYER
  9
$CECOLOR
 62
   256
  9
$DIMSCALE
 40
1.0
  9
$DIMASZ
 40
2.5
  9
$DIMEXO
 40
0.625
  9
$DIMDLI
 40
3.75
  9
$DIMRND
 40
0.0
  9
$DIMDLE
 40
0.0
  9
$DIMEXE
 40
1.25
  9
$DIMTP
 40
0.0
  9
$DIMTM
 40
0.0
  9
$DIMTXT
 40
2.5
  9
$DIMCEN
 40
2.5
  9
$DIMTSZ
 40
0.0
  9
$DIMTOL
 70
     0
  9
$DIMLIM
 70
     0
  9
$DIMTIH
 70
     0
  9
$DIMTOH
 70
     0
  9
$DIMSE1
 70
     0
  9
$DIMSE2
 70
     0
  9
$DIMTAD
 70
     1
  9
$DIMZIN
 70
     8
  9
$DIMBLK
  1

  9
$DIMASO
 70
     1
  9
$DIMSHO
 70
     1
  9
$DIMPOST
  1

  9
$DIMAPOST
  1

  9
$DIMALT
 70
     0
  9
$DIMALTD
 70
     3
  9
$DIMALTF
 40
0.03937007874016
  9
$DIMLFAC
 40
1.0
  9
$DIMTOFL
 70
     1
  9
$DIMTVP
 40
0.0
  9
$DIMTIX
 70
     0
  9
$DIMSOXD
 70
     0
  9
$DIMSAH
 70
     0
  9
$DIMBLK1
  1

  9
$DIMBLK2
  1

  9
$DIMSTYLE
  2
ISO-25
  9
$DIMCLRD
 70
     0
  9
$DIMCLRE
 70
     0
  9
$DIMCLRT
 70
     0
  9
$DIMTFAC
 40
1.0
  9
$DIMGAP
 40
0.625
  9
$LUNITS
 70
     2
  9
$LUPREC
 70
     4
  9
$SKETCHINC
 40
1.0
  9
$FILLETRAD
 40
0.0
  9
$AUNITS
 70
     0
  9
$AUPREC
 70
     0
  9
$MENU
  1
.
  9
$ELEVATION
 40
0.0
  9
$PELEVATION
 40
0.0
  9
$THICKNESS
 40
0.0
  9
$LIMCHECK
 70
     0
  9
$BLIPMODE
 70
     0
  9
$CHAMFERA
 40
0.0
  9
$CHAMFERB
 40
0.0
  9
$SKPOLY
 70
     0
  9
$TDCREATE
 40
2457490.4822232178
  9
$TDUPDATE
 40
2458155.6062353589
  9
$TDINDWG
 40
54.201795381899998
  9
$TDUSRTIMER
 40
54.201789907399998
  9
$USRTIMER
 70
     1
  9
$ANGBASE
 50
0.0
  9
$ANGDIR
 70
     0
  9
$PDMODE
 70
     0
  9
$PDSIZE
 40
0.0
  9
$PLINEWID
 40
0.0
  9
$COORDS
 70
     1
  9
$SPLFRAME
 70
     0
  9
$SPLINETYPE
 70
     6
  9
$SPLINESEGS
 70
     8
  9
$ATTDIA
 70
     0
  9
$ATTREQ
 70
     1
  9
$HANDLING
 70
     1
  9
$HANDSEED
  5
A4C9
  9
$SURFTAB1
 70
     6
  9
$SURFTAB2
 70
     6
  9
$SURFTYPE
 70
     6
  9
$SURFU
 70
     6
  9
$SURFV
 70
     6
  9
$UCSNAME
  2

  9
$UCSORG
 10
-470.0
 20
-470.0
 30
0.0
  9
$UCSXDIR
 10
1.0
 20
0.0
 30
0.0
  9
$UCSYDIR
 10
0.0
 20
1.0
 30
0.0
  9
$PUCSNAME
  2

  9
$PUCSORG
 10
0.0
 20
0.0
 30
0.0
  9
$PUCSXDIR
 10
1.0
 20
0.0
 30
0.0
  9
$PUCSYDIR
 10
0.0
 20
1.0
 30
0.0
  9
$USERI1
 70
     0
  9
$USERI2
 70
     0
  9
$USERI3
 70
     0
  9
$USERI4
 70
     0
  9
$USERI5
 70
     0
  9
$USERR1
 40
0.0
  9
$USERR2
 40
0.0
  9
$USERR3
 40
0.0
  9
$USERR4
 40
0.0
  9
$USERR5
 40
0.0
  9
$WORLDVIEW
 70
     1
  9
$SHADEDGE
 70
     3
  9
$SHADEDIF
 70
    70
  9
$TILEMODE
 70
     1
  9
$MAXACTVP
 70
    64
  9
$PLIMCHECK
 70
     0
  9
$PEXTMIN
 10
25.699999999999999
 20
19.5
 30
0.0
  9
$PEXTMAX
 10
231.30000000000001
 20
175.5
 30
0.0
  9
$PLIMMIN
 10
-20.0
 20
-7.5
  9
$PLIMMAX
 10
277.0
 20
202.5
  9
$UNITMODE
 70
     0
  9
$VISRETAIN
 70
     1
  9
$PLINEGEN
 70
     0
  9
$PSLTSCALE
 70
     1
  0
ENDSEC
  0
SECTION
  2
TABLES
  0
TABLE
  2
VPORT
 70
     1
  0
VPORT
  2
*ACTIVE
 70
     0
 10
0.0
 20
0.0
 11
1.0
 21
1.0
 12
-470.86736075854651
 22
-469.87675127498949
 13
0.0
 23
0.0
 14
10.0
 24
10.0
 15
10.0
 25
10.0
 16
0.0
 26
0.0
 36
1.0
 17
0.0
 27
0.0
 37
0.0
 40
2.440677952897405
 41
2.8263305322128849
 42
50.0
 43
0.0
 44
0.0
 50
0.0
 51
0.0
 71
     0
 72
  1000
 73
     1
 74
     3
 75
     0
 76
     1
 77
     0
 78
     0
  0
ENDTAB
  0
TABLE
  2
LTYPE
 70
     2
  0
LTYPE
  2
CONTINUOUS
 70
     0
  3
Solid line
 72
    65
 73
     0
 40
0.0
  0
ENDTAB
  0
TABLE
  2
LAYER
 70
     3
  0
LAYER
  2
0
 70
     0
 62
     7
  6
CONTINUOUS
  0
LAYER
  2
MAGNET
 70
     0
 62
     3
  6
CONTINUOUS
  0
ENDTAB
  0
TABLE
  2
STYLE
 70
     1
  0
STYLE
  2
STANDARD
 70
     0
 40
0.0
 41
1.0
 50
0.0
 71
     0
 42
5.0
  3
txt
  4

  0
ENDTAB
  0
TABLE
  2
VIEW
 70
     0
  0
ENDTAB
  0
TABLE
  2
UCS
 70
     0
  0
ENDTAB
  0
TABLE
  2
APPID
 70
    11
  0
APPID
  2
ACAD
 70
     0
  0
APPID
  2
ACAD_PSEXT
 70
     0
  0
APPID
  2
ACADANNOPO
 70
     0
  0
APPID
  2
ACADANNOTATIVE
 70
     0
  0
APPID
  2
ACAD_DSTYLE_DIMJAG
 70
     0
  0
APPID
  2
ACAD_DSTYLE_DIMTALN
 70
     0
  0
APPID
  2
ACAD_MLEADERVER
 70
     0
  0
APPID
  2
ACAECLAYERSTANDARD
 70
     0
  0
APPID
  2
ACCMTRANSPARENCY
 70
     0
  0
APPID
  2
ACAD_EXEMPT_FROM_CAD_STANDARDS
 70
     0
  0
APPID
  2
ACAD_NAV_VCDISPLAY
 70
     0
  0
ENDTAB
  0
TABLE
  2
DIMSTYLE
 70
     3
  0
DIMSTYLE
  2
STANDARD
 70
     0
  3

  4

  5

  6

  7

 40
1.0
 41
0.18
 42
0.0625
 43
0.38
 44
0.18
 45
0.0
 46
0.0
 47
0.0
 48
0.0
140
0.18
141
0.09
142
0.0
143
25.399999999999999
144
1.0
145
0.0
146
1.0
147
0.09
 71
     0
 72
     0
 73
     1
 74
     1
 75
     0
 76
     0
 77
     0
 78
     0
170
     0
171
     2
172
     0
173
     0
174
     0
175
     0
176
     0
177
     0
178
     0
  0
DIMSTYLE
  2
ISO-25
 70
     0
  3

  4

  5

  6

  7

 40
1.0
 41
2.5
 42
0.625
 43
3.75
 44
1.25
 45
0.0
 46
0.0
 47
0.0
 48
0.0
140
2.5
141
2.5
142
0.0
143
0.03937007874016
144
1.0
145
0.0
146
1.0
147
0.625
 71
     0
 72
     0
 73
     0
 74
     0
 75
     0
 76
     0
 77
     1
 78
     8
170
     0
171
     3
172
     1
173
     0
174
     0
175
     0
176
     0
177
     0
178
     0
  0
ENDTAB
  0
ENDSEC
  0
SECTION
  2
BLOCKS
  0
BLOCK
  8
0
  2
$MODEL_SPACE
 70
     0
 10
0.0
 20
0.0
 30
0.0
  3
$MODEL_SPACE
  1

  0
ENDBLK
  5
21
  8
0
  0
BLOCK
 67
     1
  8
0
  2
$PAPER_SPACE
 70
     0
 10
0.0
 20
0.0
 30
0.0
  3
$PAPER_SPACE
  1

  0
ENDBLK
  5
D9
 67
     1
  8
0
  0
ENDSEC
  0
SECTION
  2
ENTITIES
  0
POLYLINE
  5
A32D
  8
MAGNET
 66
     1
 10
0.0
 20
0.0
 30
0.0
 70
     1
  0
VERTEX
  5
A49F
  8
MAGNET
 10
-0.0862774435015013
 20
-0.0505622407029591
 30
0.0
  0
VERTEX
  5
A4A0
  8
MAGNET
 10
-0.0744871385040256
 20
-0.0667173856441536
 30
0.0
  0
VERTEX
  5
A4A1
  8
MAGNET
 10
-0.0598544389278573
 20
-0.0803513176928732
 30
0.0
  0
VERTEX
  5
A4A2
  8
MAGNET
 10
-0.0427137340950026
 20
-0.090656473578747
 30
0.0
  0
VERTEX
  5
A4A3
  8
MAGNET
 10
-0.0239431467858253
 20
-0.0975604617068484
 30
0.0
  0
VERTEX
  5
A4A4
  8
MAGNET
 10
-0.0041173293598717
 20
-0.1001942732779639
 30
0.0
  0
VERTEX
  5
A4A5
  8
MAGNET
 10
0.0158593117089936
 20
-0.0992279339973266
 30
0.0
  0
VERTEX
  5
A4A6
  8
MAGNET
 10
0.035203400823491
 20
-0.0941479520753319
 30
0.0
  0
VERTEX
  5
A4A7
  8
MAGNET
 10
0.0530865103766018
 20
-0.0851928198758856
 30
0.0
  0
VERTEX
  5
A4A8
  8
MAGNET
 10
0.0690302034262231
 20
-0.0731181086188713
 30
0.0
  0
VERTEX
  5
A4A9
  8
MAGNET
 10
0.0819680300935488
 20
-0.0578664647360938
 30
0.0
  0
VERTEX
  5
A4AA
  8
MAGNET
 10
0.0917940142563794
 20
-0.0404466474228116
 30
0.0
  0
VERTEX
  5
A4AB
  8
MAGNET
 10
0.097684448204177
 20
-0.0213337515692729
 30
0.0
  0
VERTEX
  5
A4AC
  8
MAGNET
 10
0.100129405787527
 20
-0.0014837595687709
 30
0.0
  0
VERTEX
  5
A4AD
  8
MAGNET
 10
0.0981739203218126
 20
0.0184204127725138
 30
0.0
  0
VERTEX
  5
A4AE
  8
MAGNET
 10
0.0927661197720227
 20
0.0376754301241817
 30
0.0
  0
VERTEX
  5
A4AF
  8
MAGNET
 10
0.0831249645693788
 20
0.0551982188966349
 30
0.0
  0
VERTEX
  5
A4B0
  8
MAGNET
 10
0.0704859384532028
 20
0.0706983807935444
 30
0.0
  0
VERTEX
  5
A4B1
  8
MAGNET
 10
0.0548237563611451
 20
0.0831360675606448
 30
0.0
  0
VERTEX
  5
A4B2
  8
MAGNET
 10
0.0371225436880991
 20
0.0924455825803534
 30
0.0
  0
VERTEX
  5
A4B3
  8
MAGNET
 10
0.0178562345172964
 20
0.0978130150141965
 30
0.0
  0
VERTEX
  5
A4B4
  8
MAGNET
 10
-0.0020915665208463
 20
0.0992570488587035
 30
0.0
  0
VERTEX
  5
A4B5
  8
MAGNET
 10
-0.0219506186084573
 20
0.0968868062162187
 30
0.0
  0
VERTEX
  5
A4B6
  8
MAGNET
 10
-0.0409041952783014
 20
0.0905022990763769
 30
0.0
  0
VERTEX
  5
A4B7
  8
MAGNET
 10
-0.0582654903823823
 20
0.0805732793708671
 30
0.0
  0
VERTEX
  5
A4B8
  8
MAGNET
 10
-0.0731941762868473
 20
0.0672640969330019
 30
0.0
  0
VERTEX
  5
A4B9
  8
MAGNET
 10
-0.0853457181483464
 20
0.0513788827263397
 30
0.0
  0
VERTEX
  5
A4BA
  8
MAGNET
 10
-0.0934266280526686
 20
0.0330841049163837
 30
0.0
  0
VERTEX
  5
A4BB
  8
MAGNET
 10
-0.0986419166670771
 20
0.0137760556967237
 30
0.0
  0
VERTEX
  5
A4BC
  8
MAGNET
 10
-0.0992858343644798
 20
-0.0062135758655018
 30
0.0
  0
VERTEX
  5
A4BD
  8
MAGNET
 10
-0.0965335414492188
 20
-0.0260232927668653
 30
0.0
  0
VERTEX
  5
A4BE
  8
MAGNET
 10
-0.089213906209352
 20
-0.0446357332289722
 30
0.0
  0
VERTEX
  5
A4BF
  8
MAGNET
 10
-0.086284769765598
 20
-0.0505501359622827
 30
0.0
  0
VERTEX
  5
A4C0
  8
MAGNET
 10
-0.9997399224984633
 20
-0.5777997925624164
 30
0.0
  0
VERTEX
  5
A4C1
  8
MAGNET
 10
0.0002600775015935
 20
1.154200207437668
 30
0.0
  0
VERTEX
  5
A4C2
  8
MAGNET
 10
1.0002600775015931
 20
-0.5777997925624164
 30
0.0
  0
VERTEX
  5
A4C3
  8
MAGNET
 10
-0.9997199224983432
 20
-0.57780053585509
 30
0.0
  0
VERTEX
  5
A4C4
  8
MAGNET
 10
-0.0862774435015013
 20
-0.0505622407029591
 30
0.0
  0
SEQEND
  5
A4C5
  8
MAGNET
  0
VIEWPORT
  5
17BD
 67
     1
  8
0
 10
107.42106577723629
 20
96.747649856142374
 30
0.0
 40
0.2596745447064885
 41
0.1162094437668202
 68
     1
 69
     1
1001
ACAD
1000
MVIEW
1002
{
1070
    16
1010
0.0
1020
0.0
1030
0.0
1010
0.0
1020
0.0
1030
1.0
1040
0.0
1040
0.1162094437668202
1040
107.42106577723629
1040
96.747649856142374
1040
50.0
1040
0.0
1040
0.0
1070
     0
1070
  1000
1070
     1
1070
     1
1070
     0
1070
     0
1070
     0
1070
     0
1040
0.0
1040
0.0
1040
0.0
1040
10.0
1040
10.0
1040
10.0
1040
10.0
1070
     0
1002
{
1002
}
1002
}
  0
VIEWPORT
  5
17C1
 67
     1
  8
0
 10
128.5
 20
97.5
 30
0.0
 40
205.59999999999999
 41
156.0
 68
     2
 69
     2
1001
ACAD
1000
MVIEW
1002
{
1070
    16
1010
-10.0
1020
-10.0
1030
0.0
1010
0.0
1020
0.0
1030
5967.6020490148394
1040
0.0
1040
3030.0
1040
0.0
1040
0.0
1040
50.0
1040
0.0
1040
0.0
1070
     0
1070
  1000
1070
     1
1070
     3
1070
     0
1070
     1
1070
     0
1070
     0
1040
0.0
1040
0.0
1040
0.0
1040
10.0
1040
10.0
1040
10.0
1040
10.0
1070
     0
1002
{
1002
}
1002
}
  0
ENDSEC
  0
EOF
