  0
SECTION
  2
HEADER
  9
$ACADVER
  1
AC1009
  9
$INSBASE
 10
0.0
 20
0.0
 30
0.0
  9
$EXTMIN
 10
-2.3000000000000109
 20
-2.29999999999984
 30
0.0
  9
$EXTMAX
 10
2.3000000000000109
 20
2.3000000000001251
 30
0.0
  9
$LIMMIN
 10
0.0
 20
0.0
  9
$LIMMAX
 10
420.0
 20
297.0
  9
$ORTHOMODE
 70
     0
  9
$REGENMODE
 70
     1
  9
$FILLMODE
 70
     1
  9
$QTEXTMODE
 70
     0
  9
$MIRRTEXT
 70
     0
  9
$DRAGMODE
 70
     2
  9
$LTSCALE
 40
1.0
  9
$OSMODE
 70
    37
  9
$ATTMODE
 70
     1
  9
$TEXTSIZE
 40
5.0
  9
$TRACEWID
 40
1.0
  9
$TEXTSTYLE
  7
STANDARD
  9
$CLAYER
  8
MAGNET
  9
$CELTYPE
  6
BYLAYER
  9
$CECOLOR
 62
   256
  9
$DIMSCALE
 40
1.0
  9
$DIMASZ
 40
2.5
  9
$DIMEXO
 40
0.625
  9
$DIMDLI
 40
3.75
  9
$DIMRND
 40
0.0
  9
$DIMDLE
 40
0.0
  9
$DIMEXE
 40
1.25
  9
$DIMTP
 40
0.0
  9
$DIMTM
 40
0.0
  9
$DIMTXT
 40
2.5
  9
$DIMCEN
 40
2.5
  9
$DIMTSZ
 40
0.0
  9
$DIMTOL
 70
     0
  9
$DIMLIM
 70
     0
  9
$DIMTIH
 70
     0
  9
$DIMTOH
 70
     0
  9
$DIMSE1
 70
     0
  9
$DIMSE2
 70
     0
  9
$DIMTAD
 70
     1
  9
$DIMZIN
 70
     8
  9
$DIMBLK
  1

  9
$DIMASO
 70
     1
  9
$DIMSHO
 70
     1
  9
$DIMPOST
  1

  9
$DIMAPOST
  1

  9
$DIMALT
 70
     0
  9
$DIMALTD
 70
     3
  9
$DIMALTF
 40
0.03937007874016
  9
$DIMLFAC
 40
1.0
  9
$DIMTOFL
 70
     1
  9
$DIMTVP
 40
0.0
  9
$DIMTIX
 70
     0
  9
$DIMSOXD
 70
     0
  9
$DIMSAH
 70
     0
  9
$DIMBLK1
  1

  9
$DIMBLK2
  1

  9
$DIMSTYLE
  2
ISO-25
  9
$DIMCLRD
 70
     0
  9
$DIMCLRE
 70
     0
  9
$DIMCLRT
 70
     0
  9
$DIMTFAC
 40
1.0
  9
$DIMGAP
 40
0.625
  9
$LUNITS
 70
     2
  9
$LUPREC
 70
     4
  9
$SKETCHINC
 40
1.0
  9
$FILLETRAD
 40
0.0
  9
$AUNITS
 70
     0
  9
$AUPREC
 70
     0
  9
$MENU
  1
.
  9
$ELEVATION
 40
0.0
  9
$PELEVATION
 40
0.0
  9
$THICKNESS
 40
0.0
  9
$LIMCHECK
 70
     0
  9
$BLIPMODE
 70
     0
  9
$CHAMFERA
 40
0.0
  9
$CHAMFERB
 40
0.0
  9
$SKPOLY
 70
     0
  9
$TDCREATE
 40
2457490.4822232178
  9
$TDUPDATE
 40
2458155.6072755088
  9
$TDINDWG
 40
54.1876288773
  9
$TDUSRTIMER
 40
54.187623217599999
  9
$USRTIMER
 70
     1
  9
$ANGBASE
 50
0.0
  9
$ANGDIR
 70
     0
  9
$PDMODE
 70
     0
  9
$PDSIZE
 40
0.0
  9
$PLINEWID
 40
0.0
  9
$COORDS
 70
     1
  9
$SPLFRAME
 70
     0
  9
$SPLINETYPE
 70
     6
  9
$SPLINESEGS
 70
     8
  9
$ATTDIA
 70
     0
  9
$ATTREQ
 70
     1
  9
$HANDLING
 70
     1
  9
$HANDSEED
  5
A4FC
  9
$SURFTAB1
 70
     6
  9
$SURFTAB2
 70
     6
  9
$SURFTYPE
 70
     6
  9
$SURFU
 70
     6
  9
$SURFV
 70
     6
  9
$UCSNAME
  2

  9
$UCSORG
 10
-470.0
 20
-470.0
 30
0.0
  9
$UCSXDIR
 10
1.0
 20
0.0
 30
0.0
  9
$UCSYDIR
 10
0.0
 20
1.0
 30
0.0
  9
$PUCSNAME
  2

  9
$PUCSORG
 10
0.0
 20
0.0
 30
0.0
  9
$PUCSXDIR
 10
1.0
 20
0.0
 30
0.0
  9
$PUCSYDIR
 10
0.0
 20
1.0
 30
0.0
  9
$USERI1
 70
     0
  9
$USERI2
 70
     0
  9
$USERI3
 70
     0
  9
$USERI4
 70
     0
  9
$USERI5
 70
     0
  9
$USERR1
 40
0.0
  9
$USERR2
 40
0.0
  9
$USERR3
 40
0.0
  9
$USERR4
 40
0.0
  9
$USERR5
 40
0.0
  9
$WORLDVIEW
 70
     1
  9
$SHADEDGE
 70
     3
  9
$SHADEDIF
 70
    70
  9
$TILEMODE
 70
     1
  9
$MAXACTVP
 70
    64
  9
$PLIMCHECK
 70
     0
  9
$PEXTMIN
 10
25.699999999999999
 20
19.5
 30
0.0
  9
$PEXTMAX
 10
231.30000000000001
 20
175.5
 30
0.0
  9
$PLIMMIN
 10
-20.0
 20
-7.5
  9
$PLIMMAX
 10
277.0
 20
202.5
  9
$UNITMODE
 70
     0
  9
$VISRETAIN
 70
     1
  9
$PLINEGEN
 70
     0
  9
$PSLTSCALE
 70
     1
  0
ENDSEC
  0
SECTION
  2
TABLES
  0
TABLE
  2
VPORT
 70
     1
  0
VPORT
  2
*ACTIVE
 70
     0
 10
0.0
 20
0.0
 11
1.0
 21
1.0
 12
0.0
 22
0.0
 13
0.0
 23
0.0
 14
10.0
 24
10.0
 15
10.0
 25
10.0
 16
-0.0000000000000052
 26
0.0
 36
23.444932156944301
 17
0.0
 27
0.0000000000001421
 37
0.0
 40
6.5053823869162279
 41
2.826330532212884
 42
50.0
 43
0.0
 44
0.0
 50
0.0
 51
0.0
 71
     0
 72
  1000
 73
     1
 74
     3
 75
     0
 76
     1
 77
     0
 78
     0
  0
ENDTAB
  0
TABLE
  2
LTYPE
 70
     1
  0
LTYPE
  2
CONTINUOUS
 70
     0
  3
Solid line
 72
    65
 73
     0
 40
0.0
  0
ENDTAB
  0
TABLE
  2
LAYER
 70
     3
  0
LAYER
  2
0
 70
     0
 62
     7
  6
CONTINUOUS
  0
LAYER
  2
MAGNET
 70
     0
 62
     3
  6
CONTINUOUS
  0
ENDTAB
  0
TABLE
  2
STYLE
 70
     1
  0
STYLE
  2
STANDARD
 70
     0
 40
0.0
 41
1.0
 50
0.0
 71
     0
 42
5.0
  3
txt
  4

  0
ENDTAB
  0
TABLE
  2
VIEW
 70
     0
  0
ENDTAB
  0
TABLE
  2
UCS
 70
     0
  0
ENDTAB
  0
TABLE
  2
APPID
 70
    11
  0
APPID
  2
ACAD
 70
     0
  0
APPID
  2
ACAD_PSEXT
 70
     0
  0
APPID
  2
ACADANNOPO
 70
     0
  0
APPID
  2
ACADANNOTATIVE
 70
     0
  0
APPID
  2
ACAD_DSTYLE_DIMJAG
 70
     0
  0
APPID
  2
ACAD_DSTYLE_DIMTALN
 70
     0
  0
APPID
  2
ACAD_MLEADERVER
 70
     0
  0
APPID
  2
ACAECLAYERSTANDARD
 70
     0
  0
APPID
  2
ACCMTRANSPARENCY
 70
     0
  0
APPID
  2
ACAD_EXEMPT_FROM_CAD_STANDARDS
 70
     0
  0
APPID
  2
ACAD_NAV_VCDISPLAY
 70
     0
  0
ENDTAB
  0
TABLE
  2
DIMSTYLE
 70
     2
  0
DIMSTYLE
  2
STANDARD
 70
     0
  3

  4

  5

  6

  7

 40
1.0
 41
0.18
 42
0.0625
 43
0.38
 44
0.18
 45
0.0
 46
0.0
 47
0.0
 48
0.0
140
0.18
141
0.09
142
0.0
143
25.399999999999999
144
1.0
145
0.0
146
1.0
147
0.09
 71
     0
 72
     0
 73
     1
 74
     1
 75
     0
 76
     0
 77
     0
 78
     0
170
     0
171
     2
172
     0
173
     0
174
     0
175
     0
176
     0
177
     0
178
     0
  0
DIMSTYLE
  2
ISO-25
 70
     0
  3

  4

  5

  6

  7

 40
1.0
 41
2.5
 42
0.625
 43
3.75
 44
1.25
 45
0.0
 46
0.0
 47
0.0
 48
0.0
140
2.5
141
2.5
142
0.0
143
0.03937007874016
144
1.0
145
0.0
146
1.0
147
0.625
 71
     0
 72
     0
 73
     0
 74
     0
 75
     0
 76
     0
 77
     1
 78
     8
170
     0
171
     3
172
     1
173
     0
174
     0
175
     0
176
     0
177
     0
178
     0
  0
ENDTAB
  0
ENDSEC
  0
SECTION
  2
BLOCKS
  0
BLOCK
  8
0
  2
$MODEL_SPACE
 70
     0
 10
0.0
 20
0.0
 30
0.0
  3
$MODEL_SPACE
  1

  0
ENDBLK
  5
21
  8
0
  0
BLOCK
 67
     1
  8
0
  2
$PAPER_SPACE
 70
     0
 10
0.0
 20
0.0
 30
0.0
  3
$PAPER_SPACE
  1

  0
ENDBLK
  5
D9
 67
     1
  8
0
  0
ENDSEC
  0
SECTION
  2
ENTITIES
  0
POLYLINE
  5
9A4E
  8
MAGNET
 66
     1
 10
0.0
 20
0.0
 30
0.0
 70
     1
  0
VERTEX
  5
A469
  8
MAGNET
 10
-0.1000000000000227
 20
0.1000000000001364
 30
0.0
  0
VERTEX
  5
A46A
  8
MAGNET
 10
0.1000000000000227
 20
0.1000000000001364
 30
0.0
  0
VERTEX
  5
A46B
  8
MAGNET
 10
0.1000000000000227
 20
2.1000000000000218
 30
0.0
  0
VERTEX
  5
A46C
  8
MAGNET
 10
-0.1000000000000227
 20
2.1000000000000218
 30
0.0
  0
SEQEND
  5
A46D
  8
MAGNET
  0
POLYLINE
  5
9A4F
  8
MAGNET
 66
     1
 10
0.0
 20
0.0
 30
0.0
 70
     1
  0
VERTEX
  5
A46E
  8
MAGNET
 10
0.1366025403784761
 20
0.0366025403785102
 30
0.0
  0
VERTEX
  5
A46F
  8
MAGNET
 10
0.0366025403783397
 20
-0.1366025403783624
 30
0.0
  0
VERTEX
  5
A470
  8
MAGNET
 10
1.768653347947406
 20
-1.1366025403783619
 30
0.0
  0
VERTEX
  5
A471
  8
MAGNET
 10
1.8686533479473151
 20
-0.9633974596214898
 30
0.0
  0
SEQEND
  5
A472
  8
MAGNET
  0
POLYLINE
  5
9A50
  8
MAGNET
 66
     1
 10
0.0
 20
0.0
 30
0.0
 70
     1
  0
VERTEX
  5
A473
  8
MAGNET
 10
-0.0366025403785102
 20
-0.1366025403783624
 30
0.0
  0
VERTEX
  5
A474
  8
MAGNET
 10
-0.1366025403784761
 20
0.0366025403785102
 30
0.0
  0
VERTEX
  5
A475
  8
MAGNET
 10
-1.8686533479471441
 20
-0.9633974596214898
 30
0.0
  0
VERTEX
  5
A476
  8
MAGNET
 10
-1.7686533479472919
 20
-1.1366025403783619
 30
0.0
  0
SEQEND
  5
A477
  8
MAGNET
  0
POLYLINE
  5
A279
  8
MAGNET
 66
     1
 10
0.0
 20
0.0
 30
0.0
 70
     1
  0
VERTEX
  5
A478
  8
MAGNET
 10
-2.0999995631577799
 20
-0.0013545247128945
 30
0.0
  0
VERTEX
  5
A479
  8
MAGNET
 10
-2.2999996011441222
 20
-0.0013545247128945
 30
0.0
  0
VERTEX
  5
A47A
  8
MAGNET
 10
-2.288686884781725
 20
0.2383787071271399
 30
0.0
  0
VERTEX
  5
A47B
  8
MAGNET
 10
-2.2540983099628411
 20
0.475873192309507
 30
0.0
  0
VERTEX
  5
A47C
  8
MAGNET
 10
-2.1890799374753551
 20
0.70689832349467
 30
0.0
  0
VERTEX
  5
A47D
  8
MAGNET
 10
-2.101555663927626
 20
0.9303698016298085
 30
0.0
  0
VERTEX
  5
A47E
  8
MAGNET
 10
-1.996606949208626
 20
1.146207164657596
 30
0.0
  0
VERTEX
  5
A47F
  8
MAGNET
 10
-1.8648695107465301
 20
1.3468193460112721
 30
0.0
  0
VERTEX
  5
A480
  8
MAGNET
 10
-1.715231863257372
 20
1.5344588260091989
 30
0.0
  0
VERTEX
  5
A481
  8
MAGNET
 10
-1.545697706303087
 20
1.704335750945517
 30
0.0
  0
VERTEX
  5
A482
  8
MAGNET
 10
-1.3587794656314141
 20
1.8548733585531629
 30
0.0
  0
VERTEX
  5
A483
  8
MAGNET
 10
-1.1574652076812979
 20
1.9855354018019959
 30
0.0
  0
VERTEX
  5
A484
  8
MAGNET
 10
-0.9443995956362982
 20
2.0960027950177951
 30
0.0
  0
VERTEX
  5
A485
  8
MAGNET
 10
-0.7211859733516804
 20
2.184182604648981
 30
0.0
  0
VERTEX
  5
A486
  8
MAGNET
 10
-0.489199138861693
 20
2.245681455234148
 30
0.0
  0
VERTEX
  5
A487
  8
MAGNET
 10
-0.2526227689897951
 20
2.2860747865927351
 30
0.0
  0
VERTEX
  5
A488
  8
MAGNET
 10
0.0
 20
2.3000000000001251
 30
0.0
  0
VERTEX
  5
A489
  8
MAGNET
 10
0.0001328139143197
 20
2.1000000000000218
 30
0.0
  0
VERTEX
  5
A48A
  8
MAGNET
 10
-0.2394680581106741
 20
2.0861644615238779
 30
0.0
  0
VERTEX
  5
A48B
  8
MAGNET
 10
-0.4762333311164753
 20
2.0468935371858938
 30
0.0
  0
VERTEX
  5
A48C
  8
MAGNET
 10
-0.7063119485056291
 20
1.978601298824969
 30
0.0
  0
VERTEX
  5
A48D
  8
MAGNET
 10
-0.9274877845348896
 20
1.8854280754356969
 30
0.0
  0
VERTEX
  5
A48E
  8
MAGNET
 10
-1.1365465327462509
 20
1.767553397085009
 30
0.0
  0
VERTEX
  5
A48F
  8
MAGNET
 10
-1.329757729111634
 20
1.625182636045281
 30
0.0
  0
VERTEX
  5
A490
  8
MAGNET
 10
-1.506619946634657
 20
1.462948989680342
 30
0.0
  0
VERTEX
  5
A491
  8
MAGNET
 10
-1.664122429383837
 20
1.281860702019628
 30
0.0
  0
VERTEX
  5
A492
  8
MAGNET
 10
-1.799760458664309
 20
1.0838649318301341
 30
0.0
  0
VERTEX
  5
A493
  8
MAGNET
 10
-1.90928622432051
 20
0.8703137514133345
 30
0.0
  0
VERTEX
  5
A494
  8
MAGNET
 10
-1.9966807955468651
 20
0.6467915177985902
 30
0.0
  0
VERTEX
  5
A495
  8
MAGNET
 10
-2.0560262684179511
 20
0.4142445013703196
 30
0.0
  0
VERTEX
  5
A496
  8
MAGNET
 10
-2.0937022914791319
 20
0.1772202045432891
 30
0.0
  0
VERTEX
  5
A497
  8
MAGNET
 10
-2.0999995631577799
 20
-0.0013545247128945
 30
0.0
  0
SEQEND
  5
A498
  8
MAGNET
  0
POLYLINE
  5
A27A
  8
MAGNET
 66
     1
 10
0.0
 20
0.0
 30
0.0
 70
     1
  0
VERTEX
  5
A499
  8
MAGNET
 10
0.001354485713648
 20
-2.0999995631829051
 30
0.0
  0
VERTEX
  5
A49A
  8
MAGNET
 10
0.0013544819993854
 20
-2.2999996011691901
 30
0.0
  0
VERTEX
  5
A49B
  8
MAGNET
 10
-0.2383787496306695
 20
-2.2886868803547031
 30
0.0
  0
VERTEX
  5
A49C
  8
MAGNET
 10
-0.4758732341705923
 20
-2.2540983011253379
 30
0.0
  0
VERTEX
  5
A49D
  8
MAGNET
 10
-0.7068983641484011
 20
-2.1890799243475381
 30
0.0
  0
VERTEX
  5
A49E
  8
MAGNET
 10
-0.9303698406580451
 20
-2.1015556466495009
 30
0.0
  0
VERTEX
  5
A49F
  8
MAGNET
 10
-1.1462072017368421
 20
-1.9966069279221299
 30
0.0
  0
VERTEX
  5
A4A0
  8
MAGNET
 10
-1.3468193806439781
 20
-1.864869485734459
 30
0.0
  0
VERTEX
  5
A4A1
  8
MAGNET
 10
-1.5344588578630001
 20
-1.7152318347606861
 30
0.0
  0
VERTEX
  5
A4A2
  8
MAGNET
 10
-1.7043357796508749
 20
-1.545697674651648
 30
0.0
  0
VERTEX
  5
A4A3
  8
MAGNET
 10
-1.85487338378698
 20
-1.358779431184302
 30
0.0
  0
VERTEX
  5
A4A4
  8
MAGNET
 10
-1.985535423297335
 20
-1.157465170807654
 30
0.0
  0
VERTEX
  5
A4A5
  8
MAGNET
 10
-2.0960028125563208
 20
-0.9443995567111188
 30
0.0
  0
VERTEX
  5
A4A6
  8
MAGNET
 10
-2.1841826180421999
 20
-0.7211859327888419
 30
0.0
  0
VERTEX
  5
A4A7
  8
MAGNET
 10
-2.2456814643189769
 20
-0.4891990971566998
 30
0.0
  0
VERTEX
  5
A4A8
  8
MAGNET
 10
-2.2860747912841921
 20
-0.2526227265346392
 30
0.0
  0
VERTEX
  5
A4A9
  8
MAGNET
 10
-2.3000000000000109
 20
0.0000000427136797
 30
0.0
  0
VERTEX
  5
A4AA
  8
MAGNET
 10
-2.0999999999974639
 20
0.0001328529139073
 30
0.0
  0
VERTEX
  5
A4AB
  8
MAGNET
 10
-2.0861644659709659
 20
-0.2394680193679619
 30
0.0
  0
VERTEX
  5
A4AC
  8
MAGNET
 10
-2.046893546030105
 20
-0.4762332931034053
 30
0.0
  0
VERTEX
  5
A4AD
  8
MAGNET
 10
-1.978601311941929
 20
-0.7063119117607357
 30
0.0
  0
VERTEX
  5
A4AE
  8
MAGNET
 10
-1.885428092660163
 20
-0.9274877495203668
 30
0.0
  0
VERTEX
  5
A4AF
  8
MAGNET
 10
-1.767553418191937
 20
-1.1365464999206549
 30
0.0
  0
VERTEX
  5
A4B0
  8
MAGNET
 10
-1.6251826607402791
 20
-1.329757698930222
 30
0.0
  0
VERTEX
  5
A4B1
  8
MAGNET
 10
-1.46294901765998
 20
-1.5066199194660039
 30
0.0
  0
VERTEX
  5
A4B2
  8
MAGNET
 10
-1.281860732924371
 20
-1.6641224055781541
 30
0.0
  0
VERTEX
  5
A4B3
  8
MAGNET
 10
-1.083864965253837
 20
-1.799760438535599
 30
0.0
  0
VERTEX
  5
A4B4
  8
MAGNET
 10
-0.8703137868710086
 20
-1.909286208157652
 30
0.0
  0
VERTEX
  5
A4B5
  8
MAGNET
 10
-0.6467915548791439
 20
-1.9966807835351681
 30
0.0
  0
VERTEX
  5
A4B6
  8
MAGNET
 10
-0.4142445395530104
 20
-2.0560262607251039
 30
0.0
  0
VERTEX
  5
A4B7
  8
MAGNET
 10
-0.1772202434256087
 20
-2.0937022881877851
 30
0.0
  0
VERTEX
  5
A4B8
  8
MAGNET
 10
0.001354485713648
 20
-2.0999995631829051
 30
0.0
  0
SEQEND
  5
A4B9
  8
MAGNET
  0
POLYLINE
  5
A27B
  8
MAGNET
 66
     1
 10
0.0
 20
0.0
 30
0.0
 70
     1
  0
VERTEX
  5
A4BA
  8
MAGNET
 10
2.0999995631577799
 20
0.0013545247130082
 30
0.0
  0
VERTEX
  5
A4BB
  8
MAGNET
 10
2.2999996011441222
 20
0.0013545247130082
 30
0.0
  0
VERTEX
  5
A4BC
  8
MAGNET
 10
2.288686884781725
 20
-0.2383787071271399
 30
0.0
  0
VERTEX
  5
A4BD
  8
MAGNET
 10
2.2540983099628411
 20
-0.4758731923093365
 30
0.0
  0
VERTEX
  5
A4BE
  8
MAGNET
 10
2.1890799374755261
 20
-0.7068983234944996
 30
0.0
  0
VERTEX
  5
A4BF
  8
MAGNET
 10
2.1015556639275128
 20
-0.9303698016296949
 30
0.0
  0
VERTEX
  5
A4C0
  8
MAGNET
 10
1.996606949208626
 20
-1.1462071646575389
 30
0.0
  0
VERTEX
  5
A4C1
  8
MAGNET
 10
1.8648695107465301
 20
-1.3468193460112159
 30
0.0
  0
VERTEX
  5
A4C2
  8
MAGNET
 10
1.715231863257372
 20
-1.5344588260091989
 30
0.0
  0
VERTEX
  5
A4C3
  8
MAGNET
 10
1.5456977063030299
 20
-1.704335750945347
 30
0.0
  0
VERTEX
  5
A4C4
  8
MAGNET
 10
1.3587794656314709
 20
-1.8548733585529931
 30
0.0
  0
VERTEX
  5
A4C5
  8
MAGNET
 10
1.1574652076813541
 20
-1.9855354018019959
 30
0.0
  0
VERTEX
  5
A4C6
  8
MAGNET
 10
0.9443995956362982
 20
-2.0960027950176818
 30
0.0
  0
VERTEX
  5
A4C7
  8
MAGNET
 10
0.7211859733516804
 20
-2.1841826046488668
 30
0.0
  0
VERTEX
  5
A4C8
  8
MAGNET
 10
0.4891991388616362
 20
-2.2456814552338642
 30
0.0
  0
VERTEX
  5
A4C9
  8
MAGNET
 10
0.2526227689897951
 20
-2.2860747865927351
 30
0.0
  0
VERTEX
  5
A4CA
  8
MAGNET
 10
0.0
 20
-2.29999999999984
 30
0.0
  0
VERTEX
  5
A4CB
  8
MAGNET
 10
-0.0001328139143197
 20
-2.1000000000000218
 30
0.0
  0
VERTEX
  5
A4CC
  8
MAGNET
 10
0.239468058110333
 20
-2.0861644615238211
 30
0.0
  0
VERTEX
  5
A4CD
  8
MAGNET
 10
0.4762333311166458
 20
-2.046893537185837
 30
0.0
  0
VERTEX
  5
A4CE
  8
MAGNET
 10
0.7063119485056291
 20
-1.9786012988248549
 30
0.0
  0
VERTEX
  5
A4CF
  8
MAGNET
 10
0.9274877845348896
 20
-1.8854280754356401
 30
0.0
  0
VERTEX
  5
A4D0
  8
MAGNET
 10
1.1365465327462509
 20
-1.767553397084896
 30
0.0
  0
VERTEX
  5
A4D1
  8
MAGNET
 10
1.3297577291118039
 20
-1.6251826360451671
 30
0.0
  0
VERTEX
  5
A4D2
  8
MAGNET
 10
1.5066199466346
 20
-1.4629489896801711
 30
0.0
  0
VERTEX
  5
A4D3
  8
MAGNET
 10
1.664122429383837
 20
-1.2818607020195141
 30
0.0
  0
VERTEX
  5
A4D4
  8
MAGNET
 10
1.799760458664422
 20
-1.0838649318301341
 30
0.0
  0
VERTEX
  5
A4D5
  8
MAGNET
 10
1.90928622432051
 20
-0.8703137514133345
 30
0.0
  0
VERTEX
  5
A4D6
  8
MAGNET
 10
1.9966807955468651
 20
-0.6467915177984766
 30
0.0
  0
VERTEX
  5
A4D7
  8
MAGNET
 10
2.0560262684181221
 20
-0.414244501370149
 30
0.0
  0
VERTEX
  5
A4D8
  8
MAGNET
 10
2.0937022914791319
 20
-0.1772202045431754
 30
0.0
  0
VERTEX
  5
A4D9
  8
MAGNET
 10
2.0999995631577799
 20
0.0013545247130082
 30
0.0
  0
SEQEND
  5
A4DA
  8
MAGNET
  0
POLYLINE
  5
A27C
  8
MAGNET
 66
     1
 10
0.0
 20
0.0
 30
0.0
 70
     1
  0
VERTEX
  5
A4DB
  8
MAGNET
 10
-0.0013545247128945
 20
2.0999995631577799
 30
0.0
  0
VERTEX
  5
A4DC
  8
MAGNET
 10
-0.0013545247128945
 20
2.2999996011441222
 30
0.0
  0
VERTEX
  5
A4DD
  8
MAGNET
 10
0.2383787071271399
 20
2.288686884781725
 30
0.0
  0
VERTEX
  5
A4DE
  8
MAGNET
 10
0.475873192309507
 20
2.2540983099628411
 30
0.0
  0
VERTEX
  5
A4DF
  8
MAGNET
 10
0.70689832349467
 20
2.1890799374755261
 30
0.0
  0
VERTEX
  5
A4E0
  8
MAGNET
 10
0.9303698016296949
 20
2.101555663927626
 30
0.0
  0
VERTEX
  5
A4E1
  8
MAGNET
 10
1.146207164657596
 20
1.996606949208626
 30
0.0
  0
VERTEX
  5
A4E2
  8
MAGNET
 10
1.3468193460112159
 20
1.864869510746586
 30
0.0
  0
VERTEX
  5
A4E3
  8
MAGNET
 10
1.5344588260091421
 20
1.715231863257372
 30
0.0
  0
VERTEX
  5
A4E4
  8
MAGNET
 10
1.704335750945517
 20
1.545697706303087
 30
0.0
  0
VERTEX
  5
A4E5
  8
MAGNET
 10
1.8548733585529931
 20
1.3587794656314709
 30
0.0
  0
VERTEX
  5
A4E6
  8
MAGNET
 10
1.985535401801882
 20
1.1574652076813541
 30
0.0
  0
VERTEX
  5
A4E7
  8
MAGNET
 10
2.0960027950177951
 20
0.9443995956362982
 30
0.0
  0
VERTEX
  5
A4E8
  8
MAGNET
 10
2.1841826046488668
 20
0.7211859733516804
 30
0.0
  0
VERTEX
  5
A4E9
  8
MAGNET
 10
2.245681455234148
 20
0.489199138861693
 30
0.0
  0
VERTEX
  5
A4EA
  8
MAGNET
 10
2.2860747865927351
 20
0.2526227689897951
 30
0.0
  0
VERTEX
  5
A4EB
  8
MAGNET
 10
2.3000000000000109
 20
0.0
 30
0.0
  0
VERTEX
  5
A4EC
  8
MAGNET
 10
2.1000000000000218
 20
-0.0001328139143197
 30
0.0
  0
VERTEX
  5
A4ED
  8
MAGNET
 10
2.0861644615238779
 20
0.2394680581105035
 30
0.0
  0
VERTEX
  5
A4EE
  8
MAGNET
 10
2.0468935371858938
 20
0.4762333311166458
 30
0.0
  0
VERTEX
  5
A4EF
  8
MAGNET
 10
1.9786012988248549
 20
0.7063119485056291
 30
0.0
  0
VERTEX
  5
A4F0
  8
MAGNET
 10
1.8854280754356401
 20
0.9274877845348896
 30
0.0
  0
VERTEX
  5
A4F1
  8
MAGNET
 10
1.767553397085009
 20
1.1365465327462509
 30
0.0
  0
VERTEX
  5
A4F2
  8
MAGNET
 10
1.6251826360451671
 20
1.3297577291118039
 30
0.0
  0
VERTEX
  5
A4F3
  8
MAGNET
 10
1.4629489896801711
 20
1.506619946634657
 30
0.0
  0
VERTEX
  5
A4F4
  8
MAGNET
 10
1.281860702019628
 20
1.664122429383837
 30
0.0
  0
VERTEX
  5
A4F5
  8
MAGNET
 10
1.0838649318301341
 20
1.799760458664309
 30
0.0
  0
VERTEX
  5
A4F6
  8
MAGNET
 10
0.8703137514133345
 20
1.9092862243206239
 30
0.0
  0
VERTEX
  5
A4F7
  8
MAGNET
 10
0.6467915177984766
 20
1.9966807955468651
 30
0.0
  0
VERTEX
  5
A4F8
  8
MAGNET
 10
0.4142445013703196
 20
2.0560262684181789
 30
0.0
  0
VERTEX
  5
A4F9
  8
MAGNET
 10
0.1772202045432891
 20
2.0937022914791892
 30
0.0
  0
VERTEX
  5
A4FA
  8
MAGNET
 10
-0.0013545247128945
 20
2.0999995631577799
 30
0.0
  0
SEQEND
  5
A4FB
  8
MAGNET
  0
VIEWPORT
  5
17BD
 67
     1
  8
0
 10
107.42106577723629
 20
96.747649856142374
 30
0.0
 40
0.2596745447064885
 41
0.1162094437668202
 68
     1
 69
     1
1001
ACAD
1000
MVIEW
1002
{
1070
    16
1010
0.0
1020
0.0
1030
0.0
1010
0.0
1020
0.0
1030
1.0
1040
0.0
1040
0.1162094437668202
1040
107.42106577723629
1040
96.747649856142374
1040
50.0
1040
0.0
1040
0.0
1070
     0
1070
  1000
1070
     1
1070
     1
1070
     0
1070
     0
1070
     0
1070
     0
1040
0.0
1040
0.0
1040
0.0
1040
10.0
1040
10.0
1040
10.0
1040
10.0
1070
     0
1002
{
1002
}
1002
}
  0
VIEWPORT
  5
17C1
 67
     1
  8
0
 10
128.5
 20
97.5
 30
0.0
 40
205.59999999999999
 41
156.0
 68
     2
 69
     2
1001
ACAD
1000
MVIEW
1002
{
1070
    16
1010
-10.0
1020
-10.0
1030
0.0
1010
0.0
1020
0.0
1030
5967.6020490148394
1040
0.0
1040
3030.0
1040
0.0
1040
0.0
1040
50.0
1040
0.0
1040
0.0
1070
     0
1070
  1000
1070
     1
1070
     3
1070
     0
1070
     1
1070
     0
1070
     0
1040
0.0
1040
0.0
1040
0.0
1040
10.0
1040
10.0
1040
10.0
1040
10.0
1070
     0
1002
{
1002
}
1002
}
  0
ENDSEC
  0
EOF
