  0
SECTION
  2
HEADER
  9
$ACADVER
  1
AC1009
  9
$INSBASE
 10
0.0
 20
0.0
 30
0.0
  9
$EXTMIN
 10
-1.149999999999977
 20
-1.149999999999977
 30
0.0
  9
$EXTMAX
 10
1.149999999999977
 20
1.149999999999977
 30
0.0
  9
$LIMMIN
 10
0.0
 20
0.0
  9
$LIMMAX
 10
420.0
 20
297.0
  9
$ORTHOMODE
 70
     0
  9
$REGENMODE
 70
     1
  9
$FILLMODE
 70
     1
  9
$QTEXTMODE
 70
     0
  9
$MIRRTEXT
 70
     0
  9
$DRAGMODE
 70
     2
  9
$LTSCALE
 40
1.0
  9
$OSMODE
 70
    37
  9
$ATTMODE
 70
     1
  9
$TEXTSIZE
 40
5.0
  9
$TRACEWID
 40
1.0
  9
$TEXTSTYLE
  7
STANDARD
  9
$CLAYER
  8
MAGNET
  9
$CELTYPE
  6
BYLAYER
  9
$CECOLOR
 62
   256
  9
$DIMSCALE
 40
1.0
  9
$DIMASZ
 40
2.5
  9
$DIMEXO
 40
0.625
  9
$DIMDLI
 40
3.75
  9
$DIMRND
 40
0.0
  9
$DIMDLE
 40
0.0
  9
$DIMEXE
 40
1.25
  9
$DIMTP
 40
0.0
  9
$DIMTM
 40
0.0
  9
$DIMTXT
 40
2.5
  9
$DIMCEN
 40
2.5
  9
$DIMTSZ
 40
0.0
  9
$DIMTOL
 70
     0
  9
$DIMLIM
 70
     0
  9
$DIMTIH
 70
     0
  9
$DIMTOH
 70
     0
  9
$DIMSE1
 70
     0
  9
$DIMSE2
 70
     0
  9
$DIMTAD
 70
     1
  9
$DIMZIN
 70
     8
  9
$DIMBLK
  1

  9
$DIMASO
 70
     1
  9
$DIMSHO
 70
     1
  9
$DIMPOST
  1

  9
$DIMAPOST
  1

  9
$DIMALT
 70
     0
  9
$DIMALTD
 70
     3
  9
$DIMALTF
 40
0.03937007874016
  9
$DIMLFAC
 40
1.0
  9
$DIMTOFL
 70
     1
  9
$DIMTVP
 40
0.0
  9
$DIMTIX
 70
     0
  9
$DIMSOXD
 70
     0
  9
$DIMSAH
 70
     0
  9
$DIMBLK1
  1

  9
$DIMBLK2
  1

  9
$DIMSTYLE
  2
ISO-25
  9
$DIMCLRD
 70
     0
  9
$DIMCLRE
 70
     0
  9
$DIMCLRT
 70
     0
  9
$DIMTFAC
 40
1.0
  9
$DIMGAP
 40
0.625
  9
$LUNITS
 70
     2
  9
$LUPREC
 70
     4
  9
$SKETCHINC
 40
1.0
  9
$FILLETRAD
 40
0.0
  9
$AUNITS
 70
     0
  9
$AUPREC
 70
     0
  9
$MENU
  1
.
  9
$ELEVATION
 40
0.0
  9
$PELEVATION
 40
0.0
  9
$THICKNESS
 40
0.0
  9
$LIMCHECK
 70
     0
  9
$BLIPMODE
 70
     0
  9
$CHAMFERA
 40
0.0
  9
$CHAMFERB
 40
0.0
  9
$SKPOLY
 70
     0
  9
$TDCREATE
 40
2457490.4822232178
  9
$TDUPDATE
 40
2458155.6078358679
  9
$TDINDWG
 40
54.1873184954
  9
$TDUSRTIMER
 40
54.187312928200001
  9
$USRTIMER
 70
     1
  9
$ANGBASE
 50
0.0
  9
$ANGDIR
 70
     0
  9
$PDMODE
 70
     0
  9
$PDSIZE
 40
0.0
  9
$PLINEWID
 40
0.0
  9
$COORDS
 70
     1
  9
$SPLFRAME
 70
     0
  9
$SPLINETYPE
 70
     6
  9
$SPLINESEGS
 70
     8
  9
$ATTDIA
 70
     0
  9
$ATTREQ
 70
     1
  9
$HANDLING
 70
     1
  9
$HANDSEED
  5
A4F5
  9
$SURFTAB1
 70
     6
  9
$SURFTAB2
 70
     6
  9
$SURFTYPE
 70
     6
  9
$SURFU
 70
     6
  9
$SURFV
 70
     6
  9
$UCSNAME
  2

  9
$UCSORG
 10
-470.0
 20
-470.0
 30
0.0
  9
$UCSXDIR
 10
1.0
 20
0.0
 30
0.0
  9
$UCSYDIR
 10
0.0
 20
1.0
 30
0.0
  9
$PUCSNAME
  2

  9
$PUCSORG
 10
0.0
 20
0.0
 30
0.0
  9
$PUCSXDIR
 10
1.0
 20
0.0
 30
0.0
  9
$PUCSYDIR
 10
0.0
 20
1.0
 30
0.0
  9
$USERI1
 70
     0
  9
$USERI2
 70
     0
  9
$USERI3
 70
     0
  9
$USERI4
 70
     0
  9
$USERI5
 70
     0
  9
$USERR1
 40
0.0
  9
$USERR2
 40
0.0
  9
$USERR3
 40
0.0
  9
$USERR4
 40
0.0
  9
$USERR5
 40
0.0
  9
$WORLDVIEW
 70
     1
  9
$SHADEDGE
 70
     3
  9
$SHADEDIF
 70
    70
  9
$TILEMODE
 70
     1
  9
$MAXACTVP
 70
    64
  9
$PLIMCHECK
 70
     0
  9
$PEXTMIN
 10
25.699999999999999
 20
19.5
 30
0.0
  9
$PEXTMAX
 10
231.30000000000001
 20
175.5
 30
0.0
  9
$PLIMMIN
 10
-20.0
 20
-7.5
  9
$PLIMMAX
 10
277.0
 20
202.5
  9
$UNITMODE
 70
     0
  9
$VISRETAIN
 70
     1
  9
$PLINEGEN
 70
     0
  9
$PSLTSCALE
 70
     1
  0
ENDSEC
  0
SECTION
  2
TABLES
  0
TABLE
  2
VPORT
 70
     1
  0
VPORT
  2
*ACTIVE
 70
     0
 10
0.0
 20
0.0
 11
1.0
 21
1.0
 12
0.0
 22
0.0
 13
0.0
 23
0.0
 14
10.0
 24
10.0
 15
10.0
 25
10.0
 16
0.0000000000000026
 26
0.0
 36
11.72246607847193
 17
0.0
 27
0.0
 37
0.0
 40
3.252691193458054
 41
2.8263305322128849
 42
50.0
 43
0.0
 44
0.0
 50
0.0
 51
0.000000000000009
 71
     0
 72
  1000
 73
     1
 74
     3
 75
     0
 76
     1
 77
     0
 78
     0
  0
ENDTAB
  0
TABLE
  2
LTYPE
 70
     1
  0
LTYPE
  2
CONTINUOUS
 70
     0
  3
Solid line
 72
    65
 73
     0
 40
0.0
  0
ENDTAB
  0
TABLE
  2
LAYER
 70
     3
  0
LAYER
  2
0
 70
     0
 62
     7
  6
CONTINUOUS
  0
LAYER
  2
MAGNET
 70
     0
 62
     3
  6
CONTINUOUS
  0
ENDTAB
  0
TABLE
  2
STYLE
 70
     1
  0
STYLE
  2
STANDARD
 70
     0
 40
0.0
 41
1.0
 50
0.0
 71
     0
 42
5.0
  3
txt
  4

  0
ENDTAB
  0
TABLE
  2
VIEW
 70
     0
  0
ENDTAB
  0
TABLE
  2
UCS
 70
     0
  0
ENDTAB
  0
TABLE
  2
APPID
 70
    11
  0
APPID
  2
ACAD
 70
     0
  0
APPID
  2
ACAD_PSEXT
 70
     0
  0
APPID
  2
ACADANNOPO
 70
     0
  0
APPID
  2
ACADANNOTATIVE
 70
     0
  0
APPID
  2
ACAD_DSTYLE_DIMJAG
 70
     0
  0
APPID
  2
ACAD_DSTYLE_DIMTALN
 70
     0
  0
APPID
  2
ACAD_MLEADERVER
 70
     0
  0
APPID
  2
ACAECLAYERSTANDARD
 70
     0
  0
APPID
  2
ACCMTRANSPARENCY
 70
     0
  0
APPID
  2
ACAD_EXEMPT_FROM_CAD_STANDARDS
 70
     0
  0
APPID
  2
ACAD_NAV_VCDISPLAY
 70
     0
  0
ENDTAB
  0
TABLE
  2
DIMSTYLE
 70
     2
  0
DIMSTYLE
  2
STANDARD
 70
     0
  3

  4

  5

  6

  7

 40
1.0
 41
0.18
 42
0.0625
 43
0.38
 44
0.18
 45
0.0
 46
0.0
 47
0.0
 48
0.0
140
0.18
141
0.09
142
0.0
143
25.399999999999999
144
1.0
145
0.0
146
1.0
147
0.09
 71
     0
 72
     0
 73
     1
 74
     1
 75
     0
 76
     0
 77
     0
 78
     0
170
     0
171
     2
172
     0
173
     0
174
     0
175
     0
176
     0
177
     0
178
     0
  0
DIMSTYLE
  2
ISO-25
 70
     0
  3

  4

  5

  6

  7

 40
1.0
 41
2.5
 42
0.625
 43
3.75
 44
1.25
 45
0.0
 46
0.0
 47
0.0
 48
0.0
140
2.5
141
2.5
142
0.0
143
0.03937007874016
144
1.0
145
0.0
146
1.0
147
0.625
 71
     0
 72
     0
 73
     0
 74
     0
 75
     0
 76
     0
 77
     1
 78
     8
170
     0
171
     3
172
     1
173
     0
174
     0
175
     0
176
     0
177
     0
178
     0
  0
ENDTAB
  0
ENDSEC
  0
SECTION
  2
BLOCKS
  0
BLOCK
  8
0
  2
$MODEL_SPACE
 70
     0
 10
0.0
 20
0.0
 30
0.0
  3
$MODEL_SPACE
  1

  0
ENDBLK
  5
21
  8
0
  0
BLOCK
 67
     1
  8
0
  2
$PAPER_SPACE
 70
     0
 10
0.0
 20
0.0
 30
0.0
  3
$PAPER_SPACE
  1

  0
ENDBLK
  5
D9
 67
     1
  8
0
  0
ENDSEC
  0
SECTION
  2
ENTITIES
  0
POLYLINE
  5
9A5A
  8
MAGNET
 66
     1
 10
0.0
 20
0.0
 30
0.0
 70
     1
  0
VERTEX
  5
A462
  8
MAGNET
 10
-0.0499999999998409
 20
0.0500000000001251
 30
0.0
  0
VERTEX
  5
A463
  8
MAGNET
 10
0.0500000000001251
 20
0.0500000000001251
 30
0.0
  0
VERTEX
  5
A464
  8
MAGNET
 10
0.0500000000001251
 20
1.0500000000001251
 30
0.0
  0
VERTEX
  5
A465
  8
MAGNET
 10
-0.0499999999998409
 20
1.0500000000001251
 30
0.0
  0
SEQEND
  5
A466
  8
MAGNET
  0
POLYLINE
  5
9A5B
  8
MAGNET
 66
     1
 10
0.0
 20
0.0
 30
0.0
 70
     1
  0
VERTEX
  5
A467
  8
MAGNET
 10
0.0683012701891812
 20
0.0183012701892835
 30
0.0
  0
VERTEX
  5
A468
  8
MAGNET
 10
0.0183012701892267
 20
-0.0683012701891812
 30
0.0
  0
VERTEX
  5
A469
  8
MAGNET
 10
0.8843266739737032
 20
-0.5683012701891812
 30
0.0
  0
VERTEX
  5
A46A
  8
MAGNET
 10
0.9343266739738282
 20
-0.4816987298107734
 30
0.0
  0
SEQEND
  5
A46B
  8
MAGNET
  0
POLYLINE
  5
9A5C
  8
MAGNET
 66
     1
 10
0.0
 20
0.0
 30
0.0
 70
     1
  0
VERTEX
  5
A46C
  8
MAGNET
 10
-0.018301270189113
 20
-0.0683012701891812
 30
0.0
  0
VERTEX
  5
A46D
  8
MAGNET
 10
-0.0683012701892949
 20
0.0183012701892835
 30
0.0
  0
VERTEX
  5
A46E
  8
MAGNET
 10
-0.9343266739737146
 20
-0.4816987298107734
 30
0.0
  0
VERTEX
  5
A46F
  8
MAGNET
 10
-0.8843266739734758
 20
-0.5683012701891812
 30
0.0
  0
SEQEND
  5
A470
  8
MAGNET
  0
POLYLINE
  5
A27D
  8
MAGNET
 66
     1
 10
0.0
 20
0.0
 30
0.0
 70
     1
  0
VERTEX
  5
A471
  8
MAGNET
 10
-1.0499997815788329
 20
-0.0006772623564757
 30
0.0
  0
VERTEX
  5
A472
  8
MAGNET
 10
-1.1499998005718901
 20
-0.0006772623564757
 30
0.0
  0
VERTEX
  5
A473
  8
MAGNET
 10
-1.1443434423908341
 20
0.1191893535636268
 30
0.0
  0
VERTEX
  5
A474
  8
MAGNET
 10
-1.1270491549813639
 20
0.2379365961547819
 30
0.0
  0
VERTEX
  5
A475
  8
MAGNET
 10
-1.094539968737819
 20
0.3534491617472781
 30
0.0
  0
VERTEX
  5
A476
  8
MAGNET
 10
-1.050777831963785
 20
0.4651849008149043
 30
0.0
  0
VERTEX
  5
A477
  8
MAGNET
 10
-0.9983034746043131
 20
0.5731035823287698
 30
0.0
  0
VERTEX
  5
A478
  8
MAGNET
 10
-0.9324347553731514
 20
0.6734096730056081
 30
0.0
  0
VERTEX
  5
A479
  8
MAGNET
 10
-0.8576159316287429
 20
0.7672294130045998
 30
0.0
  0
VERTEX
  5
A47A
  8
MAGNET
 10
-0.7728488531516291
 20
0.8521678754727304
 30
0.0
  0
VERTEX
  5
A47B
  8
MAGNET
 10
-0.6793897328156504
 20
0.9274366792766386
 30
0.0
  0
VERTEX
  5
A47C
  8
MAGNET
 10
-0.5787326038404786
 20
0.9927677009010267
 30
0.0
  0
VERTEX
  5
A47D
  8
MAGNET
 10
-0.4721997978182344
 20
1.0480013975088689
 30
0.0
  0
VERTEX
  5
A47E
  8
MAGNET
 10
-0.3605929866757833
 20
1.0920913023245471
 30
0.0
  0
VERTEX
  5
A47F
  8
MAGNET
 10
-0.2445995694308749
 20
1.1228407276170169
 30
0.0
  0
VERTEX
  5
A480
  8
MAGNET
 10
-0.1263113844948407
 20
1.1430373932963671
 30
0.0
  0
VERTEX
  5
A481
  8
MAGNET
 10
0.0
 20
1.149999999999977
 30
0.0
  0
VERTEX
  5
A482
  8
MAGNET
 10
0.0000664069571599
 20
1.0500000000001251
 30
0.0
  0
VERTEX
  5
A483
  8
MAGNET
 10
-0.119734029055337
 20
1.0430822307618539
 30
0.0
  0
VERTEX
  5
A484
  8
MAGNET
 10
-0.2381166655583229
 20
1.0234467685929749
 30
0.0
  0
VERTEX
  5
A485
  8
MAGNET
 10
-0.3531559742526724
 20
0.9893006494125415
 30
0.0
  0
VERTEX
  5
A486
  8
MAGNET
 10
-0.4637438922675301
 20
0.9427140377177921
 30
0.0
  0
VERTEX
  5
A487
  8
MAGNET
 10
-0.5682732663730122
 20
0.8837766985424764
 30
0.0
  0
VERTEX
  5
A488
  8
MAGNET
 10
-0.6648788645558739
 20
0.8125913180226689
 30
0.0
  0
VERTEX
  5
A489
  8
MAGNET
 10
-0.7533099733173572
 20
0.7314744948401426
 30
0.0
  0
VERTEX
  5
A48A
  8
MAGNET
 10
-0.832061214691862
 20
0.6409303510098426
 30
0.0
  0
VERTEX
  5
A48B
  8
MAGNET
 10
-0.8998802293320977
 20
0.5419324659151245
 30
0.0
  0
VERTEX
  5
A48C
  8
MAGNET
 10
-0.9546431121601131
 20
0.4351568757066389
 30
0.0
  0
VERTEX
  5
A48D
  8
MAGNET
 10
-0.9983403977733473
 20
0.3233957588993235
 30
0.0
  0
VERTEX
  5
A48E
  8
MAGNET
 10
-1.0280131342091181
 20
0.2071222506851313
 30
0.0
  0
VERTEX
  5
A48F
  8
MAGNET
 10
-1.0468511457395939
 20
0.088610102271673
 30
0.0
  0
VERTEX
  5
A490
  8
MAGNET
 10
-1.0499997815788329
 20
-0.0006772623564757
 30
0.0
  0
SEQEND
  5
A491
  8
MAGNET
  0
POLYLINE
  5
A27E
  8
MAGNET
 66
     1
 10
0.0
 20
0.0
 30
0.0
 70
     1
  0
VERTEX
  5
A492
  8
MAGNET
 10
0.0006772428568524
 20
-1.049999781591338
 30
0.0
  0
VERTEX
  5
A493
  8
MAGNET
 10
0.0006772409998348
 20
-1.149999800584623
 30
0.0
  0
VERTEX
  5
A494
  8
MAGNET
 10
-0.1191893748152779
 20
-1.1443434401772941
 30
0.0
  0
VERTEX
  5
A495
  8
MAGNET
 10
-0.2379366170853245
 20
-1.1270491505625839
 30
0.0
  0
VERTEX
  5
A496
  8
MAGNET
 10
-0.3534491820739731
 20
-1.0945399621738261
 30
0.0
  0
VERTEX
  5
A497
  8
MAGNET
 10
-0.4651849203289658
 20
-1.050777823324835
 30
0.0
  0
VERTEX
  5
A498
  8
MAGNET
 10
-0.5731036008683647
 20
-0.9983034639610082
 30
0.0
  0
VERTEX
  5
A499
  8
MAGNET
 10
-0.6734096903218756
 20
-0.9324347428672581
 30
0.0
  0
VERTEX
  5
A49A
  8
MAGNET
 10
-0.7672294289315005
 20
-0.8576159173803148
 30
0.0
  0
VERTEX
  5
A49B
  8
MAGNET
 10
-0.8521678898253526
 20
-0.7728488373256824
 30
0.0
  0
VERTEX
  5
A49C
  8
MAGNET
 10
-0.9274366918933765
 20
-0.6793897155920945
 30
0.0
  0
VERTEX
  5
A49D
  8
MAGNET
 10
-0.9927677116486393
 20
-0.5787325854038273
 30
0.0
  0
VERTEX
  5
A49E
  8
MAGNET
 10
-1.04800140627816
 20
-0.4721997783555026
 30
0.0
  0
VERTEX
  5
A49F
  8
MAGNET
 10
-1.092091309021157
 20
-0.3605929663943357
 30
0.0
  0
VERTEX
  5
A4A0
  8
MAGNET
 10
-1.122840732159488
 20
-0.2445995485783214
 30
0.0
  0
VERTEX
  5
A4A1
  8
MAGNET
 10
-1.143037395642011
 20
-0.1263113632672912
 30
0.0
  0
VERTEX
  5
A4A2
  8
MAGNET
 10
-1.149999999999977
 20
0.0000000213568114
 30
0.0
  0
VERTEX
  5
A4A3
  8
MAGNET
 10
-1.0499999999987599
 20
0.0000664264568968
 30
0.0
  0
VERTEX
  5
A4A4
  8
MAGNET
 10
-1.0430822329855109
 20
-0.1197340096840094
 30
0.0
  0
VERTEX
  5
A4A5
  8
MAGNET
 10
-1.023446773014995
 20
-0.2381166465515889
 30
0.0
  0
VERTEX
  5
A4A6
  8
MAGNET
 10
-0.989300655970851
 20
-0.3531559558802542
 30
0.0
  0
VERTEX
  5
A4A7
  8
MAGNET
 10
-0.9427140463300816
 20
-0.463743874760155
 30
0.0
  0
VERTEX
  5
A4A8
  8
MAGNET
 10
-0.883776709095855
 20
-0.5682732499603276
 30
0.0
  0
VERTEX
  5
A4A9
  8
MAGNET
 10
-0.8125913303700826
 20
-0.6648788494650831
 30
0.0
  0
VERTEX
  5
A4AA
  8
MAGNET
 10
-0.7314745088298765
 20
-0.7533099597329738
 30
0.0
  0
VERTEX
  5
A4AB
  8
MAGNET
 10
-0.6409303664621007
 20
-0.8320612027891343
 30
0.0
  0
VERTEX
  5
A4AC
  8
MAGNET
 10
-0.5419324826268621
 20
-0.8998802192676293
 30
0.0
  0
VERTEX
  5
A4AD
  8
MAGNET
 10
-0.4351568934355328
 20
-0.9546431040788547
 30
0.0
  0
VERTEX
  5
A4AE
  8
MAGNET
 10
-0.3233957774394867
 20
-0.9983403917676696
 30
0.0
  0
VERTEX
  5
A4AF
  8
MAGNET
 10
-0.207122269776562
 20
-1.0280131303624671
 30
0.0
  0
VERTEX
  5
A4B0
  8
MAGNET
 10
-0.0886101217128612
 20
-1.0468511440938639
 30
0.0
  0
VERTEX
  5
A4B1
  8
MAGNET
 10
0.0006772428568524
 20
-1.049999781591338
 30
0.0
  0
SEQEND
  5
A4B2
  8
MAGNET
  0
POLYLINE
  5
A27F
  8
MAGNET
 66
     1
 10
0.0
 20
0.0
 30
0.0
 70
     1
  0
VERTEX
  5
A4B3
  8
MAGNET
 10
1.049999781579003
 20
0.0006772623564757
 30
0.0
  0
VERTEX
  5
A4B4
  8
MAGNET
 10
1.1499998005721179
 20
0.0006772623564757
 30
0.0
  0
VERTEX
  5
A4B5
  8
MAGNET
 10
1.1443434423908909
 20
-0.1191893535635131
 30
0.0
  0
VERTEX
  5
A4B6
  8
MAGNET
 10
1.1270491549813639
 20
-0.2379365961546114
 30
0.0
  0
VERTEX
  5
A4B7
  8
MAGNET
 10
1.094539968737706
 20
-0.3534491617472781
 30
0.0
  0
VERTEX
  5
A4B8
  8
MAGNET
 10
1.0507778319638981
 20
-0.4651849008148475
 30
0.0
  0
VERTEX
  5
A4B9
  8
MAGNET
 10
0.9983034746043131
 20
-0.573103582328713
 30
0.0
  0
VERTEX
  5
A4BA
  8
MAGNET
 10
0.9324347553733218
 20
-0.6734096730055513
 30
0.0
  0
VERTEX
  5
A4BB
  8
MAGNET
 10
0.8576159316287429
 20
-0.7672294130045998
 30
0.0
  0
VERTEX
  5
A4BC
  8
MAGNET
 10
0.7728488531514586
 20
-0.8521678754727304
 30
0.0
  0
VERTEX
  5
A4BD
  8
MAGNET
 10
0.6793897328157073
 20
-0.9274366792765248
 30
0.0
  0
VERTEX
  5
A4BE
  8
MAGNET
 10
0.5787326038407059
 20
-0.9927677009010267
 30
0.0
  0
VERTEX
  5
A4BF
  8
MAGNET
 10
0.4721997978181208
 20
-1.0480013975088689
 30
0.0
  0
VERTEX
  5
A4C0
  8
MAGNET
 10
0.3605929866757833
 20
-1.0920913023245471
 30
0.0
  0
VERTEX
  5
A4C1
  8
MAGNET
 10
0.2445995694308749
 20
-1.1228407276170169
 30
0.0
  0
VERTEX
  5
A4C2
  8
MAGNET
 10
0.1263113844950112
 20
-1.143037393296253
 30
0.0
  0
VERTEX
  5
A4C3
  8
MAGNET
 10
0.0
 20
-1.149999999999977
 30
0.0
  0
VERTEX
  5
A4C4
  8
MAGNET
 10
-0.000066406957103
 20
-1.0500000000000109
 30
0.0
  0
VERTEX
  5
A4C5
  8
MAGNET
 10
0.1197340290551665
 20
-1.0430822307618539
 30
0.0
  0
VERTEX
  5
A4C6
  8
MAGNET
 10
0.2381166655583797
 20
-1.0234467685928621
 30
0.0
  0
VERTEX
  5
A4C7
  8
MAGNET
 10
0.3531559742527861
 20
-0.989300649412371
 30
0.0
  0
VERTEX
  5
A4C8
  8
MAGNET
 10
0.4637438922673596
 20
-0.9427140377177921
 30
0.0
  0
VERTEX
  5
A4C9
  8
MAGNET
 10
0.5682732663732395
 20
-0.8837766985424195
 30
0.0
  0
VERTEX
  5
A4CA
  8
MAGNET
 10
0.6648788645559876
 20
-0.812591318022612
 30
0.0
  0
VERTEX
  5
A4CB
  8
MAGNET
 10
0.7533099733173572
 20
-0.7314744948400858
 30
0.0
  0
VERTEX
  5
A4CC
  8
MAGNET
 10
0.8320612146919756
 20
-0.640930351009672
 30
0.0
  0
VERTEX
  5
A4CD
  8
MAGNET
 10
0.8998802293320977
 20
-0.5419324659151245
 30
0.0
  0
VERTEX
  5
A4CE
  8
MAGNET
 10
0.9546431121603404
 20
-0.4351568757066389
 30
0.0
  0
VERTEX
  5
A4CF
  8
MAGNET
 10
0.9983403977733473
 20
-0.3233957588991529
 30
0.0
  0
VERTEX
  5
A4D0
  8
MAGNET
 10
1.0280131342091181
 20
-0.2071222506851313
 30
0.0
  0
VERTEX
  5
A4D1
  8
MAGNET
 10
1.0468511457395371
 20
-0.088610102271673
 30
0.0
  0
VERTEX
  5
A4D2
  8
MAGNET
 10
1.049999781579003
 20
0.0006772623564757
 30
0.0
  0
SEQEND
  5
A4D3
  8
MAGNET
  0
POLYLINE
  5
A280
  8
MAGNET
 66
     1
 10
0.0
 20
0.0
 30
0.0
 70
     1
  0
VERTEX
  5
A4D4
  8
MAGNET
 10
-0.0006772623564757
 20
1.049999781579003
 30
0.0
  0
VERTEX
  5
A4D5
  8
MAGNET
 10
-0.0006772623564757
 20
1.1499998005721179
 30
0.0
  0
VERTEX
  5
A4D6
  8
MAGNET
 10
0.1191893535636268
 20
1.1443434423908909
 30
0.0
  0
VERTEX
  5
A4D7
  8
MAGNET
 10
0.2379365961547251
 20
1.1270491549813639
 30
0.0
  0
VERTEX
  5
A4D8
  8
MAGNET
 10
0.3534491617472781
 20
1.094539968737819
 30
0.0
  0
VERTEX
  5
A4D9
  8
MAGNET
 10
0.4651849008149043
 20
1.050777831963785
 30
0.0
  0
VERTEX
  5
A4DA
  8
MAGNET
 10
0.5731035823288835
 20
0.9983034746043131
 30
0.0
  0
VERTEX
  5
A4DB
  8
MAGNET
 10
0.6734096730056081
 20
0.9324347553733218
 30
0.0
  0
VERTEX
  5
A4DC
  8
MAGNET
 10
0.7672294130045998
 20
0.8576159316287429
 30
0.0
  0
VERTEX
  5
A4DD
  8
MAGNET
 10
0.8521678754727304
 20
0.7728488531516291
 30
0.0
  0
VERTEX
  5
A4DE
  8
MAGNET
 10
0.9274366792766386
 20
0.6793897328157073
 30
0.0
  0
VERTEX
  5
A4DF
  8
MAGNET
 10
0.9927677009010267
 20
0.5787326038407059
 30
0.0
  0
VERTEX
  5
A4E0
  8
MAGNET
 10
1.0480013975088689
 20
0.4721997978181208
 30
0.0
  0
VERTEX
  5
A4E1
  8
MAGNET
 10
1.092091302324377
 20
0.3605929866757833
 30
0.0
  0
VERTEX
  5
A4E2
  8
MAGNET
 10
1.1228407276170169
 20
0.2445995694308749
 30
0.0
  0
VERTEX
  5
A4E3
  8
MAGNET
 10
1.1430373932963671
 20
0.1263113844950112
 30
0.0
  0
VERTEX
  5
A4E4
  8
MAGNET
 10
1.149999999999977
 20
0.0
 30
0.0
  0
VERTEX
  5
A4E5
  8
MAGNET
 10
1.0500000000001251
 20
-0.000066406957103
 30
0.0
  0
VERTEX
  5
A4E6
  8
MAGNET
 10
1.0430822307618539
 20
0.119734029055337
 30
0.0
  0
VERTEX
  5
A4E7
  8
MAGNET
 10
1.0234467685929749
 20
0.2381166655583229
 30
0.0
  0
VERTEX
  5
A4E8
  8
MAGNET
 10
0.9893006494125415
 20
0.3531559742527861
 30
0.0
  0
VERTEX
  5
A4E9
  8
MAGNET
 10
0.9427140377177921
 20
0.4637438922673596
 30
0.0
  0
VERTEX
  5
A4EA
  8
MAGNET
 10
0.8837766985424764
 20
0.5682732663732395
 30
0.0
  0
VERTEX
  5
A4EB
  8
MAGNET
 10
0.812591318022612
 20
0.6648788645558739
 30
0.0
  0
VERTEX
  5
A4EC
  8
MAGNET
 10
0.7314744948400858
 20
0.7533099733173572
 30
0.0
  0
VERTEX
  5
A4ED
  8
MAGNET
 10
0.6409303510098994
 20
0.832061214691862
 30
0.0
  0
VERTEX
  5
A4EE
  8
MAGNET
 10
0.5419324659151245
 20
0.8998802293322114
 30
0.0
  0
VERTEX
  5
A4EF
  8
MAGNET
 10
0.4351568757066389
 20
0.9546431121603404
 30
0.0
  0
VERTEX
  5
A4F0
  8
MAGNET
 10
0.3233957588993803
 20
0.9983403977733473
 30
0.0
  0
VERTEX
  5
A4F1
  8
MAGNET
 10
0.2071222506851313
 20
1.0280131342091181
 30
0.0
  0
VERTEX
  5
A4F2
  8
MAGNET
 10
0.088610102271673
 20
1.0468511457395371
 30
0.0
  0
VERTEX
  5
A4F3
  8
MAGNET
 10
-0.0006772623564757
 20
1.049999781579003
 30
0.0
  0
SEQEND
  5
A4F4
  8
MAGNET
  0
VIEWPORT
  5
17BD
 67
     1
  8
0
 10
107.42106577723629
 20
96.747649856142374
 30
0.0
 40
0.2596745447064885
 41
0.1162094437668202
 68
     1
 69
     1
1001
ACAD
1000
MVIEW
1002
{
1070
    16
1010
0.0
1020
0.0
1030
0.0
1010
0.0
1020
0.0
1030
1.0
1040
0.0
1040
0.1162094437668202
1040
107.42106577723629
1040
96.747649856142374
1040
50.0
1040
0.0
1040
0.0
1070
     0
1070
  1000
1070
     1
1070
     1
1070
     0
1070
     0
1070
     0
1070
     0
1040
0.0
1040
0.0
1040
0.0
1040
10.0
1040
10.0
1040
10.0
1040
10.0
1070
     0
1002
{
1002
}
1002
}
  0
VIEWPORT
  5
17C1
 67
     1
  8
0
 10
128.5
 20
97.5
 30
0.0
 40
205.59999999999999
 41
156.0
 68
     2
 69
     2
1001
ACAD
1000
MVIEW
1002
{
1070
    16
1010
-10.0
1020
-10.0
1030
0.0
1010
0.0
1020
0.0
1030
5967.6020490148394
1040
0.0
1040
3030.0
1040
0.0
1040
0.0
1040
50.0
1040
0.0
1040
0.0
1070
     0
1070
  1000
1070
     1
1070
     3
1070
     0
1070
     1
1070
     0
1070
     0
1040
0.0
1040
0.0
1040
0.0
1040
10.0
1040
10.0
1040
10.0
1040
10.0
1070
     0
1002
{
1002
}
1002
}
  0
ENDSEC
  0
EOF
