  0
SECTION
  2
HEADER
  9
$ACADVER
  1
AC1009
  9
$INSBASE
 10
0.0
 20
0.0
 30
0.0
  9
$EXTMIN
 10
-6.4566412440996714
 20
-5.4999979716715179
 30
0.0
  9
$EXTMAX
 10
6.4566381975292302
 20
5.6832300709463652
 30
0.0
  9
$LIMMIN
 10
0.0
 20
0.0
  9
$LIMMAX
 10
420.0
 20
297.0
  9
$ORTHOMODE
 70
     0
  9
$REGENMODE
 70
     1
  9
$FILLMODE
 70
     1
  9
$QTEXTMODE
 70
     0
  9
$MIRRTEXT
 70
     0
  9
$DRAGMODE
 70
     2
  9
$LTSCALE
 40
1.0
  9
$OSMODE
 70
    37
  9
$ATTMODE
 70
     1
  9
$TEXTSIZE
 40
5.0
  9
$TRACEWID
 40
1.0
  9
$TEXTSTYLE
  7
STANDARD
  9
$CLAYER
  8
MAGNET
  9
$CELTYPE
  6
BYLAYER
  9
$CECOLOR
 62
   256
  9
$DIMSCALE
 40
1.0
  9
$DIMASZ
 40
2.5
  9
$DIMEXO
 40
0.625
  9
$DIMDLI
 40
3.75
  9
$DIMRND
 40
0.0
  9
$DIMDLE
 40
0.0
  9
$DIMEXE
 40
1.25
  9
$DIMTP
 40
0.0
  9
$DIMTM
 40
0.0
  9
$DIMTXT
 40
2.5
  9
$DIMCEN
 40
2.5
  9
$DIMTSZ
 40
0.0
  9
$DIMTOL
 70
     0
  9
$DIMLIM
 70
     0
  9
$DIMTIH
 70
     0
  9
$DIMTOH
 70
     0
  9
$DIMSE1
 70
     0
  9
$DIMSE2
 70
     0
  9
$DIMTAD
 70
     1
  9
$DIMZIN
 70
     8
  9
$DIMBLK
  1

  9
$DIMASO
 70
     1
  9
$DIMSHO
 70
     1
  9
$DIMPOST
  1

  9
$DIMAPOST
  1

  9
$DIMALT
 70
     0
  9
$DIMALTD
 70
     3
  9
$DIMALTF
 40
0.03937007874016
  9
$DIMLFAC
 40
1.0
  9
$DIMTOFL
 70
     1
  9
$DIMTVP
 40
0.0
  9
$DIMTIX
 70
     0
  9
$DIMSOXD
 70
     0
  9
$DIMSAH
 70
     0
  9
$DIMBLK1
  1

  9
$DIMBLK2
  1

  9
$DIMSTYLE
  2
ISO-25
  9
$DIMCLRD
 70
     0
  9
$DIMCLRE
 70
     0
  9
$DIMCLRT
 70
     0
  9
$DIMTFAC
 40
1.0
  9
$DIMGAP
 40
0.625
  9
$LUNITS
 70
     2
  9
$LUPREC
 70
     4
  9
$SKETCHINC
 40
1.0
  9
$FILLETRAD
 40
0.0
  9
$AUNITS
 70
     0
  9
$AUPREC
 70
     0
  9
$MENU
  1
.
  9
$ELEVATION
 40
0.0
  9
$PELEVATION
 40
0.0
  9
$THICKNESS
 40
0.0
  9
$LIMCHECK
 70
     0
  9
$BLIPMODE
 70
     0
  9
$CHAMFERA
 40
0.0
  9
$CHAMFERB
 40
0.0
  9
$SKPOLY
 70
     0
  9
$TDCREATE
 40
2457490.4822232178
  9
$TDUPDATE
 40
2458155.6255658101
  9
$TDINDWG
 40
54.190466261600001
  9
$TDUSRTIMER
 40
54.190460752299998
  9
$USRTIMER
 70
     1
  9
$ANGBASE
 50
0.0
  9
$ANGDIR
 70
     0
  9
$PDMODE
 70
     0
  9
$PDSIZE
 40
0.0
  9
$PLINEWID
 40
0.0
  9
$COORDS
 70
     1
  9
$SPLFRAME
 70
     0
  9
$SPLINETYPE
 70
     6
  9
$SPLINESEGS
 70
     8
  9
$ATTDIA
 70
     0
  9
$ATTREQ
 70
     1
  9
$HANDLING
 70
     1
  9
$HANDSEED
  5
A4CE
  9
$SURFTAB1
 70
     6
  9
$SURFTAB2
 70
     6
  9
$SURFTYPE
 70
     6
  9
$SURFU
 70
     6
  9
$SURFV
 70
     6
  9
$UCSNAME
  2

  9
$UCSORG
 10
-470.0
 20
-470.0
 30
0.0
  9
$UCSXDIR
 10
1.0
 20
0.0
 30
0.0
  9
$UCSYDIR
 10
0.0
 20
1.0
 30
0.0
  9
$PUCSNAME
  2

  9
$PUCSORG
 10
0.0
 20
0.0
 30
0.0
  9
$PUCSXDIR
 10
1.0
 20
0.0
 30
0.0
  9
$PUCSYDIR
 10
0.0
 20
1.0
 30
0.0
  9
$USERI1
 70
     0
  9
$USERI2
 70
     0
  9
$USERI3
 70
     0
  9
$USERI4
 70
     0
  9
$USERI5
 70
     0
  9
$USERR1
 40
0.0
  9
$USERR2
 40
0.0
  9
$USERR3
 40
0.0
  9
$USERR4
 40
0.0
  9
$USERR5
 40
0.0
  9
$WORLDVIEW
 70
     1
  9
$SHADEDGE
 70
     3
  9
$SHADEDIF
 70
    70
  9
$TILEMODE
 70
     1
  9
$MAXACTVP
 70
    64
  9
$PLIMCHECK
 70
     0
  9
$PEXTMIN
 10
25.699999999999999
 20
19.5
 30
0.0
  9
$PEXTMAX
 10
231.30000000000001
 20
175.5
 30
0.0
  9
$PLIMMIN
 10
-20.0
 20
-7.5
  9
$PLIMMAX
 10
277.0
 20
202.5
  9
$UNITMODE
 70
     0
  9
$VISRETAIN
 70
     1
  9
$PLINEGEN
 70
     0
  9
$PSLTSCALE
 70
     1
  0
ENDSEC
  0
SECTION
  2
TABLES
  0
TABLE
  2
VPORT
 70
     1
  0
VPORT
  2
*ACTIVE
 70
     0
 10
0.0
 20
0.0
 11
1.0
 21
1.0
 12
0.0
 22
0.0
 13
0.0
 23
0.0
 14
10.0
 24
10.0
 15
10.0
 25
10.0
 16
-0.0000000000000137
 26
0.0
 36
61.564693883464109
 17
-0.0000015232852206
 27
0.0916160496374232
 37
0.0
 40
17.082663006416489
 41
2.8263305322128849
 42
50.0
 43
0.0
 44
0.0
 50
0.0
 51
0.0
 71
     0
 72
  1000
 73
     1
 74
     3
 75
     0
 76
     1
 77
     0
 78
     0
  0
ENDTAB
  0
TABLE
  2
LTYPE
 70
     2
  0
LTYPE
  2
CONTINUOUS
 70
     0
  3
Solid line
 72
    65
 73
     0
 40
0.0
  0
ENDTAB
  0
TABLE
  2
LAYER
 70
     2
  0
LAYER
  2
0
 70
     0
 62
     7
  6
CONTINUOUS
  0
LAYER
  2
MAGNET
 70
     0
 62
     3
  6
CONTINUOUS
  0
ENDTAB
  0
TABLE
  2
STYLE
 70
     1
  0
STYLE
  2
STANDARD
 70
     0
 40
0.0
 41
1.0
 50
0.0
 71
     0
 42
5.0
  3
txt
  4

  0
ENDTAB
  0
TABLE
  2
VIEW
 70
     0
  0
ENDTAB
  0
TABLE
  2
UCS
 70
     0
  0
ENDTAB
  0
TABLE
  2
APPID
 70
    11
  0
APPID
  2
ACAD
 70
     0
  0
APPID
  2
ACAD_PSEXT
 70
     0
  0
APPID
  2
ACADANNOPO
 70
     0
  0
APPID
  2
ACADANNOTATIVE
 70
     0
  0
APPID
  2
ACAD_DSTYLE_DIMJAG
 70
     0
  0
APPID
  2
ACAD_DSTYLE_DIMTALN
 70
     0
  0
APPID
  2
ACAD_MLEADERVER
 70
     0
  0
APPID
  2
ACAECLAYERSTANDARD
 70
     0
  0
APPID
  2
ACCMTRANSPARENCY
 70
     0
  0
APPID
  2
ACAD_EXEMPT_FROM_CAD_STANDARDS
 70
     0
  0
APPID
  2
ACAD_NAV_VCDISPLAY
 70
     0
  0
ENDTAB
  0
TABLE
  2
DIMSTYLE
 70
     3
  0
DIMSTYLE
  2
STANDARD
 70
     0
  3

  4

  5

  6

  7

 40
1.0
 41
0.18
 42
0.0625
 43
0.38
 44
0.18
 45
0.0
 46
0.0
 47
0.0
 48
0.0
140
0.18
141
0.09
142
0.0
143
25.399999999999999
144
1.0
145
0.0
146
1.0
147
0.09
 71
     0
 72
     0
 73
     1
 74
     1
 75
     0
 76
     0
 77
     0
 78
     0
170
     0
171
     2
172
     0
173
     0
174
     0
175
     0
176
     0
177
     0
178
     0
  0
DIMSTYLE
  2
ISO-25
 70
     0
  3

  4

  5

  6

  7

 40
1.0
 41
2.5
 42
0.625
 43
3.75
 44
1.25
 45
0.0
 46
0.0
 47
0.0
 48
0.0
140
2.5
141
2.5
142
0.0
143
0.03937007874016
144
1.0
145
0.0
146
1.0
147
0.625
 71
     0
 72
     0
 73
     0
 74
     0
 75
     0
 76
     0
 77
     1
 78
     8
170
     0
171
     3
172
     1
173
     0
174
     0
175
     0
176
     0
177
     0
178
     0
  0
ENDTAB
  0
ENDSEC
  0
SECTION
  2
BLOCKS
  0
BLOCK
  8
0
  2
$MODEL_SPACE
 70
     0
 10
0.0
 20
0.0
 30
0.0
  3
$MODEL_SPACE
  1

  0
ENDBLK
  5
21
  8
0
  0
BLOCK
 67
     1
  8
0
  2
$PAPER_SPACE
 70
     0
 10
0.0
 20
0.0
 30
0.0
  3
$PAPER_SPACE
  1

  0
ENDBLK
  5
D9
 67
     1
  8
0
  0
ENDSEC
  0
SECTION
  2
ENTITIES
  0
POLYLINE
  5
A423
  8
MAGNET
 66
     1
 10
0.0
 20
0.0
 30
0.0
 70
     1
  0
VERTEX
  5
A4A2
  8
MAGNET
 10
-3.3870015232852211
 20
-5.4999979716715179
 30
0.0
  0
VERTEX
  5
A4A3
  8
MAGNET
 10
-0.4000015232851979
 20
-0.4999979716715189
 30
0.0
  0
VERTEX
  5
A4A4
  8
MAGNET
 10
0.3999984767147566
 20
-0.4999979716715189
 30
0.0
  0
VERTEX
  5
A4A5
  8
MAGNET
 10
3.3869984767147221
 20
-5.4999979716715179
 30
0.0
  0
VERTEX
  5
A4A6
  8
MAGNET
 10
1.8869984767147789
 20
-5.4999979716715179
 30
0.0
  0
VERTEX
  5
A4A7
  8
MAGNET
 10
0.2002484767147621
 20
-0.6999979716715075
 30
0.0
  0
VERTEX
  5
A4A8
  8
MAGNET
 10
-0.199751523285272
 20
-0.6999979716715075
 30
0.0
  0
VERTEX
  5
A4A9
  8
MAGNET
 10
-1.887001523285277
 20
-5.4999979716715179
 30
0.0
  0
VERTEX
  5
A4AA
  8
MAGNET
 10
-3.386969832631848
 20
-5.4999430865772183
 30
0.0
  0
SEQEND
  5
A4AB
  8
MAGNET
  0
POLYLINE
  5
A424
  8
MAGNET
 66
     1
 10
0.0
 20
0.0
 30
0.0
 70
     1
  0
VERTEX
  5
A4AC
  8
MAGNET
 10
6.4566381975292302
 20
-0.1832260142894029
 30
0.0
  0
VERTEX
  5
A4AD
  8
MAGNET
 10
0.6330111786070916
 20
-0.0964081331853208
 30
0.0
  0
VERTEX
  5
A4AE
  8
MAGNET
 10
0.2330111786068869
 20
0.5964121898422832
 30
0.0
  0
VERTEX
  5
A4AF
  8
MAGNET
 10
3.0696381975292288
 20
5.6832300709463652
 30
0.0
  0
VERTEX
  5
A4B0
  8
MAGNET
 10
3.8196381975292861
 20
4.3841919652697916
 30
0.0
  0
VERTEX
  5
A4B1
  8
MAGNET
 10
0.5060912593637568
 20
0.5234236154364567
 30
0.0
  0
VERTEX
  5
A4B2
  8
MAGNET
 10
0.7060912593638024
 20
0.1770134539226547
 30
0.0
  0
VERTEX
  5
A4B3
  8
MAGNET
 10
5.7066381975292302
 20
1.115812091387397
 30
0.0
  0
VERTEX
  5
A4B4
  8
MAGNET
 10
6.4565748203164608
 20
-0.183226011925683
 30
0.0
  0
SEQEND
  5
A4B5
  8
MAGNET
  0
POLYLINE
  5
A425
  8
MAGNET
 66
     1
 10
0.0
 20
0.0
 30
0.0
 70
     1
  0
VERTEX
  5
A4B6
  8
MAGNET
 10
-3.0696412440996701
 20
5.6832300709463652
 30
0.0
  0
VERTEX
  5
A4B7
  8
MAGNET
 10
-0.2330142251775555
 20
0.5964121898422832
 30
0.0
  0
VERTEX
  5
A4B8
  8
MAGNET
 10
-0.6330142251775897
 20
-0.0964081331853208
 30
0.0
  0
VERTEX
  5
A4B9
  8
MAGNET
 10
-6.4566412440996714
 20
-0.1832260142894029
 30
0.0
  0
VERTEX
  5
A4BA
  8
MAGNET
 10
-5.7066412440996714
 20
1.115812091387397
 30
0.0
  0
VERTEX
  5
A4BB
  8
MAGNET
 10
-0.7063443059342945
 20
0.1765804412207217
 30
0.0
  0
VERTEX
  5
A4BC
  8
MAGNET
 10
-0.5063443059343058
 20
0.5229906027343532
 30
0.0
  0
VERTEX
  5
A4BD
  8
MAGNET
 10
-3.8196412440997838
 20
4.3841919652697916
 30
0.0
  0
VERTEX
  5
A4BE
  8
MAGNET
 10
-3.069609557540502
 20
5.6831751834882871
 30
0.0
  0
SEQEND
  5
A4BF
  8
MAGNET
  0
POLYLINE
  5
A43A
  8
MAGNET
 66
     1
 10
0.0
 20
0.0
 30
0.0
 70
     1
  0
VERTEX
  5
A4C0
  8
MAGNET
 10
-0.1000000000000227
 20
0.1000000000001364
 30
0.0
  0
VERTEX
  5
A4C1
  8
MAGNET
 10
-0.1000000000000227
 20
0.1000000000001364
 30
0.0
  0
VERTEX
  5
A4C2
  8
MAGNET
 10
-0.1000000000000227
 20
0.1000000000001364
 30
0.0
  0
VERTEX
  5
A4C3
  8
MAGNET
 10
-0.1000000000000227
 20
0.1000000000001364
 30
0.0
  0
VERTEX
  5
A4C4
  8
MAGNET
 10
-0.1000000000000227
 20
0.1000000000001364
 30
0.0
  0
SEQEND
  5
A4C5
  8
MAGNET
  0
POLYLINE
  5
A443
  8
MAGNET
 66
     1
 10
0.0
 20
0.0
 30
0.0
 70
     1
  0
VERTEX
  5
A4C6
  8
MAGNET
 10
-0.1000000000000227
 20
0.1000000000001364
 30
0.0
  0
VERTEX
  5
A4C7
  8
MAGNET
 10
0.0
 20
0.0
 30
0.0
  0
VERTEX
  5
A4C8
  8
MAGNET
 10
-0.1000000000000227
 20
-0.1000000000000227
 30
0.0
  0
VERTEX
  5
A4C9
  8
MAGNET
 10
-0.1000000000000227
 20
0.1000000000000227
 30
0.0
  0
SEQEND
  5
A4CA
  8
MAGNET
  0
VIEWPORT
  5
17BD
 67
     1
  8
0
 10
107.42106577723629
 20
96.747649856142374
 30
0.0
 40
0.2596745447064885
 41
0.1162094437668202
 68
     1
 69
     1
1001
ACAD
1000
MVIEW
1002
{
1070
    16
1010
0.0
1020
0.0
1030
0.0
1010
0.0
1020
0.0
1030
1.0
1040
0.0
1040
0.1162094437668202
1040
107.42106577723629
1040
96.747649856142374
1040
50.0
1040
0.0
1040
0.0
1070
     0
1070
  1000
1070
     1
1070
     1
1070
     0
1070
     0
1070
     0
1070
     0
1040
0.0
1040
0.0
1040
0.0
1040
10.0
1040
10.0
1040
10.0
1040
10.0
1070
     0
1002
{
1002
}
1002
}
  0
VIEWPORT
  5
17C1
 67
     1
  8
0
 10
128.5
 20
97.5
 30
0.0
 40
205.59999999999999
 41
156.0
 68
     2
 69
     2
1001
ACAD
1000
MVIEW
1002
{
1070
    16
1010
-10.0
1020
-10.0
1030
0.0
1010
0.0
1020
0.0
1030
5967.6020490148394
1040
0.0
1040
3030.0
1040
0.0
1040
0.0
1040
50.0
1040
0.0
1040
0.0
1070
     0
1070
  1000
1070
     1
1070
     3
1070
     0
1070
     1
1070
     0
1070
     0
1040
0.0
1040
0.0
1040
0.0
1040
10.0
1040
10.0
1040
10.0
1040
10.0
1070
     0
1002
{
1002
}
1002
}
  0
ENDSEC
  0
EOF
